<?xml version="1.0" encoding="UTF-8" standalone="no"?><svg xmlns:svg="http://www.w3.org/2000/svg" xmlns="http://www.w3.org/2000/svg" version="1.0" width="500" height="306.87" id="svg2"><defs id="defs4"><clipPath id="clipPath3046"><path d="M 587.298,415.523 L 7.093,415.523 L 7.093,5.966 L 587.298,5.966 L 587.298,415.523 z" id="path3048"/></clipPath><clipPath id="clipPath3040"><path d="M 6.9579,415.781 L 587.4319,415.781 L 587.4319,6.685 L 6.9579,6.685 L 6.9579,415.781 z" id="path3042"/></clipPath><clipPath id="clipPath3034"><path d="M 587.58,415.523 L 587.58,6.4348 L 7.0924,6.4348 L 7.0924,415.523" id="path3036"/></clipPath><clipPath id="clipPath3022"><path d="M 39.81,83.817 L 39.81,389.521 L 147.943,389.521 L 147.943,83.817 L 161.889,83.817 L 94.045,32.881 L 25.874,83.817 L 39.81,83.817" id="path3024"/></clipPath><clipPath id="clipPath2970"><path d="M 587.298,415.523 L 7.093,415.523 L 7.093,5.966 L 587.298,5.966 L 587.298,415.523 z" id="path2972"/></clipPath><clipPath id="clipPath2958"><path d="M 118.757,147.741 L 66.181,147.741 L 66.181,59.842 L 118.757,59.842 L 118.757,147.741 z" id="path2960"/></clipPath><linearGradient x1="0" y1="0" x2="1" y2="0" id="linearGradient2946" gradientUnits="userSpaceOnUse" gradientTransform="matrix(-0.276938,-1.314092,-2.888545,0.616773,96.700302,61.72723)" spreadMethod="pad"><stop id="stop2948" style="stop-color:#909fce;stop-opacity:1" offset="0"/><stop id="stop2950" style="stop-color:#ffffff;stop-opacity:1" offset="1"/></linearGradient><clipPath id="clipPath2942"><path d="M 0.065,0.222 L 1.268,0.222 L 1.268,0.778 L 0.065,0.778 L 0.065,0.222 z" id="path2944"/></clipPath><clipPath id="clipPath2930"><path d="M 95.769,61.837 C 95.769,61.837 95.457,60.706 94.947,60.583 C 94.53,60.483 94.374,60.714 94.474,60.912 C 94.601,61.195 95.305,61.075 95.769,61.837" id="path2932"/></clipPath><linearGradient x1="0" y1="0" x2="1" y2="0" id="linearGradient2918" gradientUnits="userSpaceOnUse" gradientTransform="matrix(0,-2.014726,-2.793469,0,98.56144,70.724625)" spreadMethod="pad"><stop id="stop2920" style="stop-color:#6a82bd;stop-opacity:1" offset="0"/><stop id="stop2922" style="stop-color:#ffffff;stop-opacity:1" offset="1"/></linearGradient><clipPath id="clipPath2914"><path d="M 0.075,0.198 L 1.243,0.198 L 1.243,0.802 L 0.075,0.802 L 0.075,0.198 z" id="path2916"/></clipPath><clipPath id="clipPath2902"><path d="M 97.933,70.574 C 97.933,70.574 98.009,68.841 97.283,68.5 C 96.689,68.221 96.32,68.578 96.474,68.88 C 96.575,69.337 97.478,69.311 97.933,70.574" id="path2904"/></clipPath><linearGradient x1="0" y1="0" x2="1" y2="0" id="linearGradient2890" gradientUnits="userSpaceOnUse" gradientTransform="matrix(1.120918,3.173577,-5.351443,1.890202,98.80513,67.703415)" spreadMethod="pad"><stop id="stop2892" style="stop-color:#cbd1e8;stop-opacity:1" offset="0"/><stop id="stop2894" style="stop-color:#5474b4;stop-opacity:1" offset="1"/></linearGradient><clipPath id="clipPath2886"><path d="M -0.365,0.124 L 1.275,0.124 L 1.275,0.876 L -0.365,0.876 L -0.365,0.124 z" id="path2888"/></clipPath><clipPath id="clipPath2874"><path d="M 97.557,68.678 C 96.538,67.66 95.236,68.917 95.454,69.72 C 95.564,70.128 95.702,70.34 95.95,70.699 C 96.395,71.346 96.554,71.554 96.765,71.846 C 96.871,71.993 96.99,72.479 97.184,72.508 C 97.303,72.524 97.442,72.495 97.508,72.395 C 97.652,72.175 97.97,72.362 97.977,72.104 C 97.988,71.712 98.042,69.164 97.557,68.678" id="path2876"/></clipPath><linearGradient x1="0" y1="0" x2="1" y2="0" id="linearGradient2862" gradientUnits="userSpaceOnUse" gradientTransform="matrix(0,-5.267289,-3.476551,0,96.618484,65.673286)" spreadMethod="pad"><stop id="stop2864" style="stop-color:#cbd1e8;stop-opacity:1" offset="0"/><stop id="stop2866" style="stop-color:#5474b4;stop-opacity:1" offset="1"/></linearGradient><clipPath id="clipPath2858"><path d="M -0.058,0.159 L 0.99,0.159 L 0.99,0.841 L -0.058,0.841 L -0.058,0.159 z" id="path2860"/></clipPath><clipPath id="clipPath2846"><path d="M 96.019,65.01 C 96.067,65.346 96.015,65.682 95.693,65.838 C 95.399,65.981 94.952,65.968 94.674,65.806 C 94.436,65.667 94.25,65.503 94.093,65.277 C 93.929,65.043 93.749,64.745 93.719,64.434 C 93.694,64.178 93.713,63.866 93.816,63.647 C 93.927,63.41 94.131,63.236 94.213,63.001 C 94.401,62.458 94.179,61.836 94.184,61.275 C 94.188,60.991 94.223,60.722 94.495,60.578 C 94.66,60.491 94.886,60.457 95.035,60.571 C 95.363,60.82 95.553,61.253 95.698,61.629 C 95.918,62.201 95.915,62.831 95.91,63.435 C 95.905,63.97 95.944,64.48 96.019,65.01" id="path2848"/></clipPath><linearGradient x1="0" y1="0" x2="1" y2="0" id="linearGradient2834" gradientUnits="userSpaceOnUse" gradientTransform="matrix(0,-78.877205,-27.022942,0,114.62231,147.3707)" spreadMethod="pad"><stop id="stop2836" style="stop-color:#ffffff;stop-opacity:1" offset="0"/><stop id="stop2838" style="stop-color:#5474b4;stop-opacity:1" offset="1"/></linearGradient><clipPath id="clipPath2830"><path d="M -0.002,0.02 L 1,0.02 L 1,0.98 L -0.002,0.98 L -0.002,0.02 z" id="path2832"/></clipPath><clipPath id="clipPath2818"><path d="M 104.592,108.523 C 104.855,108.465 107.157,107.706 107.476,107.5 C 107.618,107.407 107.925,106.953 108.15,106.619 C 108.61,105.937 108.912,105.513 109.228,105.393 C 110.074,105.07 111.113,104.567 111.236,104.345 C 111.221,104.373 111.249,104.32 111.249,104.321 C 111.262,104.166 111.033,103.629 110.877,103.257 C 110.491,102.339 110.281,101.804 110.488,101.453 C 110.57,101.315 110.706,101.23 110.872,101.212 C 111.595,101.165 113.803,100.351 114.032,100.038 C 114.032,100.038 114.04,100.022 114.051,100.001 C 114.071,99.963 114.033,99.913 114.035,99.922 C 113.956,99.611 112.769,98.641 111.307,97.56 C 110.655,97.078 105.62,94.414 103.048,93.073 C 102.952,93.024 102.888,92.932 102.87,92.828 C 102.853,92.722 102.888,92.614 102.962,92.538 C 103.861,91.614 104.646,90.607 104.647,90.344 C 104.648,90.379 104.647,90.343 104.647,90.344 C 104.503,89.989 102.677,88.424 101.46,87.375 C 99.534,85.713 98.675,84.946 98.525,84.583 C 98.361,84.191 98.506,83.576 98.776,82.52 C 99.02,81.561 99.324,80.369 99.083,79.853 C 99.074,79.835 99.066,79.816 99.062,79.796 C 98.979,79.48 98.641,78.975 98.314,78.485 C 97.889,77.849 97.488,77.248 97.449,76.798 C 97.422,76.505 97.508,75.985 97.628,75.266 C 97.819,74.118 98.079,72.547 97.934,71.391 C 97.92,71.231 97.91,71.076 97.9,70.911 C 97.845,70.067 97.779,69.017 97.271,68.677 C 97.031,68.516 96.669,68.514 96.195,68.673 C 96.213,68.667 96.229,68.66 96.245,68.651 C 95.856,68.855 95.638,69.085 95.575,69.354 C 95.445,69.92 95.989,70.659 96.427,71.252 C 96.582,71.462 96.728,71.66 96.834,71.837 C 97.385,72.756 97.022,73.779 96.673,74.769 C 96.412,75.508 96.213,76.179 96.37,76.755 C 96.537,77.364 97.133,78.751 97.684,79.524 C 98.127,80.144 97.845,81.502 97.429,83.212 C 97.321,83.66 97.425,84.397 97.435,84.527 C 97.579,85.233 99.249,86.604 100.553,87.685 C 102.398,89.216 103.169,89.848 103.118,90.368 C 103.067,90.898 102.394,91.518 101.939,92.193 C 101.684,92.569 101.336,93.025 101.327,93.193 C 101.327,93.193 101.328,93.223 101.332,93.23 C 101.354,93.268 101.37,93.278 101.369,93.278 C 101.687,93.66 105.154,95.382 107.297,96.467 C 109.296,97.478 110.439,98.06 110.701,98.263 C 111.387,98.796 111.497,98.965 111.743,99.423 C 111.81,99.55 111.811,99.696 111.748,99.819 C 111.594,100.116 111.154,100.316 110.222,100.431 C 109.806,100.483 109.201,100.531 109.062,100.635 C 109.063,100.634 109.045,100.556 109.063,100.51 C 109.069,100.494 109.056,100.548 109.056,100.548 C 109.033,100.716 109.25,101.276 109.4,101.716 C 109.746,102.738 109.934,103.332 109.759,103.683 C 109.571,104.057 109.181,104.198 108.803,104.332 C 108.544,104.426 108.275,104.523 108.07,104.691 C 107.821,104.894 107.566,105.258 107.32,105.61 C 107.057,105.984 106.786,106.372 106.474,106.649 C 105.949,107.119 105.151,107.304 104.38,107.481 C 104.199,107.523 104.012,107.566 103.833,107.612 C 103.61,107.669 103.196,107.764 102.674,107.884 C 101.478,108.158 98.723,108.766 98.395,108.999 C 98.395,108.999 98.372,109.017 98.395,108.983 C 98.405,108.968 98.395,108.999 98.395,108.999 C 98.29,109.305 98.645,111.102 98.959,111.674 C 99.076,111.889 99.459,112.311 99.831,112.719 C 100.583,113.548 101.087,114.124 101.208,114.561 C 101.4,115.257 100.977,115.497 100.751,115.626 C 100.658,115.68 100.577,115.726 100.532,115.788 C 100.538,115.78 100.541,115.775 100.541,115.775 C 100.48,115.898 100.437,116.47 100.407,116.888 C 100.334,117.874 100.251,118.992 99.852,119.479 C 99.269,120.188 94.806,121.996 93.886,122.363 C 93.886,122.407 93.882,122.553 93.899,122.432 C 92.63,131.811 90.728,140.05 88.151,147.478 C 88.168,147.431 88.174,147.381 88.169,147.332 C 88.176,147.405 88.236,147.495 88.35,147.528 C 88.47,147.564 88.594,147.511 88.633,147.41 C 91.711,139.832 94.066,131.606 95.638,122.951 C 95.659,122.835 95.739,122.738 95.849,122.695 C 98.219,121.787 100.775,120.705 101.04,120.366 C 101.017,120.395 101,120.263 101.04,120.366 C 100.952,119.699 101.639,116.741 101.808,116.251 C 101.963,115.801 102.276,115.489 102.527,115.239 C 102.639,115.127 102.809,114.958 102.82,114.893 C 102.82,114.896 102.82,114.902 102.821,114.906 C 102.72,114.634 101.432,113.052 100.248,111.685 C 100.227,111.66 100.209,111.631 100.195,111.601 C 100.03,111.232 99.676,110.321 99.954,109.855 C 100.309,109.249 104.544,108.519 104.58,108.527 L 104.592,108.523" id="path2820"/></clipPath><radialGradient cx="0" cy="0" r="1" fx="0" fy="0" id="radialGradient2806" gradientUnits="userSpaceOnUse" gradientTransform="matrix(0,-1.899758,-1.899758,0,94.9748,63.075268)"><stop id="stop2808" style="stop-color:#ffffff;stop-opacity:1" offset="0"/><stop id="stop2810" style="stop-color:#b9c2e0;stop-opacity:1" offset="1"/></radialGradient><clipPath id="clipPath2802"><path d="M -1.523,-0.674 L 1.267,-0.674 L 1.267,0.629 L -1.523,0.629 L -1.523,-0.674 z" id="path2804"/></clipPath><clipPath id="clipPath2790"><path d="M 96.21,64.924 C 96.255,65.237 96.039,65.688 95.739,65.833 C 95.463,65.968 95.061,65.906 94.802,65.755 C 94.58,65.626 94.387,65.514 94.239,65.302 C 94.086,65.083 93.83,64.718 93.802,64.427 C 93.779,64.189 94.055,63.856 94.152,63.65 C 94.255,63.428 94.446,63.266 94.522,63.045 C 94.698,62.539 94.49,61.958 94.496,61.433 C 94.499,61.167 94.531,60.916 94.785,60.782 C 94.939,60.7 95.151,60.668 95.29,60.775 C 95.598,61.007 95.775,61.412 95.911,61.764 C 96.116,62.298 96.113,62.887 96.108,63.451 C 96.104,63.951 96.141,64.428 96.21,64.924" id="path2792"/></clipPath><radialGradient cx="0" cy="0" r="1" fx="0" fy="0" id="radialGradient2778" gradientUnits="userSpaceOnUse" gradientTransform="matrix(0,-29.328938,-29.328938,0,101.28207,108.1181)"><stop id="stop2780" style="stop-color:#ffffff;stop-opacity:1" offset="0"/><stop id="stop2782" style="stop-color:#b9c2e0;stop-opacity:1" offset="1"/></radialGradient><clipPath id="clipPath2774"><path d="M -1.35,-0.448 L 1.36,-0.448 L 1.36,0.436 L -1.35,0.436 L -1.35,-0.448 z" id="path2776"/></clipPath><clipPath id="clipPath2762"><path d="M 105.608,108.512 C 105.871,108.454 107.498,107.863 107.817,107.657 C 107.959,107.565 108.268,107.109 108.491,106.776 C 108.952,106.094 109.253,105.67 109.569,105.549 C 110.416,105.226 111.454,104.724 111.577,104.502 C 111.562,104.53 111.59,104.477 111.59,104.477 C 111.603,104.323 111.375,103.786 111.218,103.414 C 110.831,102.496 110.623,101.96 110.83,101.61 C 110.911,101.472 111.043,101.443 111.209,101.426 C 111.931,101.378 114.145,100.508 114.374,100.195 C 114.374,100.195 114.382,100.179 114.392,100.158 C 114.412,100.12 114.374,100.07 114.377,100.079 C 114.298,99.768 113.11,98.798 111.648,97.717 C 110.996,97.234 105.96,94.572 103.389,93.232 C 103.294,93.182 103.229,93.09 103.211,92.985 C 103.195,92.879 103.229,92.772 103.304,92.695 C 104.202,91.772 104.988,90.765 104.989,90.501 C 104.989,90.536 104.988,90.501 104.989,90.501 C 104.844,90.147 103.018,88.582 101.802,87.532 C 99.877,85.87 99.016,85.104 98.867,84.74 C 98.703,84.349 98.848,83.733 99.117,82.677 C 99.362,81.718 99.666,80.526 99.424,80.011 C 99.415,79.992 99.408,79.973 99.404,79.954 C 99.321,79.638 98.982,79.131 98.656,78.642 C 98.23,78.006 97.831,77.405 97.791,76.955 C 97.764,76.662 97.85,76.142 97.97,75.424 C 98.16,74.275 98.433,72.671 98.288,71.516 C 98.273,71.355 98.252,71.233 98.241,71.069 C 98.188,70.225 98.004,68.795 97.482,68.476 C 97.238,68.327 96.864,68.218 96.39,68.376 C 96.408,68.371 96.571,68.817 96.586,68.808 C 96.198,69.012 95.979,69.242 95.916,69.512 C 95.787,70.078 96.331,70.816 96.769,71.41 C 96.923,71.62 97.069,71.817 97.175,71.994 C 97.726,72.913 97.365,73.936 97.014,74.926 C 96.754,75.665 96.507,76.364 96.664,76.939 C 96.83,77.548 97.476,78.909 98.027,79.681 C 98.469,80.302 98.187,81.66 97.77,83.369 C 97.662,83.817 97.527,84.372 97.537,84.503 C 97.68,85.208 99.466,86.688 100.77,87.77 C 102.615,89.3 103.308,89.928 103.257,90.448 C 103.207,90.978 102.736,91.675 102.28,92.35 C 102.026,92.726 101.678,93.182 101.669,93.35 C 101.669,93.35 101.671,93.38 101.675,93.387 C 101.695,93.425 101.712,93.436 101.711,93.435 C 102.029,93.817 105.495,95.54 107.64,96.623 C 109.638,97.635 110.78,98.217 111.043,98.42 C 111.728,98.952 111.839,99.122 112.084,99.58 C 112.152,99.707 112.153,99.853 112.089,99.976 C 111.934,100.273 111.516,100.336 110.583,100.451 C 110.168,100.502 109.562,100.552 109.423,100.654 C 109.424,100.654 109.386,100.713 109.405,100.667 C 109.41,100.651 109.398,100.705 109.398,100.705 C 109.375,100.873 109.592,101.433 109.741,101.873 C 110.088,102.894 110.275,103.489 110.101,103.84 C 109.914,104.214 109.524,104.354 109.145,104.489 C 108.885,104.583 108.617,104.68 108.412,104.847 C 108.162,105.051 107.908,105.415 107.662,105.767 C 107.4,106.141 107.129,106.529 106.817,106.806 C 106.29,107.276 105.493,107.46 104.722,107.638 C 104.541,107.68 104.354,107.723 104.174,107.769 C 103.952,107.826 103.538,107.921 103.015,108.041 C 101.82,108.315 99.064,108.922 98.737,109.156 C 98.737,109.155 98.714,109.174 98.737,109.14 C 98.746,109.125 98.737,109.156 98.737,109.156 C 98.631,109.462 98.987,111.259 99.3,111.831 C 99.417,112.046 99.801,112.468 100.172,112.876 C 100.926,113.704 101.428,114.281 101.55,114.718 C 101.741,115.414 101.32,115.654 101.092,115.783 C 100.999,115.837 100.918,115.883 100.874,115.945 C 100.879,115.937 100.882,115.933 100.882,115.933 C 100.822,116.055 100.779,116.627 100.748,117.045 C 100.675,118.031 100.592,119.149 100.194,119.635 C 99.61,120.345 95.146,122.153 94.228,122.52 C 94.228,122.564 94.224,122.71 94.24,122.589 C 92.973,131.968 91.069,140.207 88.494,147.635 C 88.509,147.587 88.516,147.538 88.51,147.488 C 88.519,147.562 88.577,147.652 88.693,147.686 C 88.812,147.721 88.936,147.668 88.975,147.566 C 92.052,139.989 94.408,131.762 95.979,123.108 C 96,122.992 96.08,122.894 96.19,122.852 C 98.561,121.944 100.858,121.117 101.123,120.778 C 101.1,120.806 101.548,120.421 101.588,120.525 C 101.5,119.857 101.98,116.897 102.151,116.407 C 102.305,115.958 102.618,115.646 102.869,115.395 C 102.98,115.284 103.15,115.115 103.162,115.05 C 103.162,115.053 103.162,115.058 103.163,115.063 C 103.061,114.791 101.773,113.209 100.59,111.841 C 100.568,111.817 100.558,111.784 100.537,111.758 C 100.182,111.312 99.97,110.446 100.295,110.012 C 100.717,109.449 104.481,108.801 104.517,108.81 L 105.608,108.512" id="path2764"/></clipPath><clipPath id="clipPath2744"><path d="M 118.757,147.741 L 66.181,147.741 L 66.181,59.842 L 118.757,59.842 L 118.757,147.741 z" id="path2746"/></clipPath><linearGradient x1="0" y1="0" x2="1" y2="0" id="linearGradient2732" gradientUnits="userSpaceOnUse" gradientTransform="matrix(0,-79.53006,-27.851511,0,114.83206,147.34808)" spreadMethod="pad"><stop id="stop2734" style="stop-color:#ffffff;stop-opacity:1" offset="0"/><stop id="stop2736" style="stop-color:#b6b4b6;stop-opacity:1" offset="1"/></linearGradient><clipPath id="clipPath2728"><path d="M -0.003,0.02 L 1.007,0.02 L 1.007,0.98 L -0.003,0.98 L -0.003,0.02 z" id="path2730"/></clipPath><clipPath id="clipPath2716"><path d="M 97.972,71.006 C 98.208,72.891 97.424,75.734 97.484,76.423 C 97.546,77.112 98.883,78.58 99.09,79.363 C 99.606,80.472 98.244,83.405 98.539,84.108 C 98.831,84.814 104.677,89.333 104.69,89.957 C 104.701,90.582 102.903,92.428 102.903,92.428 C 102.903,92.428 110.36,96.318 111.21,96.943 C 112.058,97.571 114.28,99.316 114.13,99.767 C 113.978,100.216 111.319,101.155 110.61,101.203 C 109.954,101.273 111.505,103.693 111.273,104.116 C 111.042,104.54 109.496,105.193 109.051,105.365 C 108.605,105.535 107.793,107.158 107.362,107.44 C 106.928,107.721 104.004,108.646 104.384,108.492 C 104.762,108.338 100.16,109.319 99.945,109.683 C 99.726,110.049 100.206,111.119 100.206,111.119 C 100.206,111.119 102.745,114.049 102.85,114.479 C 102.957,114.908 102.094,115.252 101.831,116.017 C 101.565,116.778 100.919,119.605 101.095,120.062 C 101.27,120.522 95.67,122.666 95.67,122.666 C 94.087,131.375 91.72,139.627 88.653,147.185 C 88.551,147.449 88.251,147.595 87.953,147.507 C 87.716,147.436 87.556,147.24 87.532,147.021 C 90.223,139.265 92.096,130.74 93.307,121.758 C 93.307,121.758 98.735,119.597 99.291,118.919 C 99.848,118.241 99.701,115.603 99.959,115.246 C 100.213,114.887 100.769,114.977 100.583,114.306 C 100.398,113.634 98.69,112.091 98.363,111.493 C 98.035,110.894 97.595,108.784 97.813,108.453 C 98.032,108.121 102.525,107.177 103.45,106.94 C 104.378,106.703 105.374,106.566 105.952,106.053 C 106.53,105.54 107.001,104.54 107.556,104.085 C 108.113,103.629 108.926,103.649 109.155,103.188 C 109.386,102.725 108.259,100.43 108.428,99.998 C 108.6,99.566 111.364,99.649 111.143,99.238 C 110.924,98.828 110.849,98.693 110.193,98.185 C 109.54,97.677 100.729,93.508 100.656,92.995 C 100.584,92.484 102.197,90.766 102.28,89.913 C 102.363,89.062 96.876,85.596 96.562,84.057 C 96.467,83.589 97.7,80.199 97.108,79.376 C 96.52,78.549 95.871,77.163 95.698,76.525 C 95.289,75.031 97.103,73.095 96.244,71.665 C 95.696,70.749 93.774,68.948 95.788,68.007 C 97.963,67.277 97.855,69.65 97.972,71.006" id="path2718"/></clipPath><radialGradient cx="0" cy="0" r="1" fx="0" fy="0" id="radialGradient2704" gradientUnits="userSpaceOnUse" gradientTransform="matrix(0,-2.346565,-2.346565,0,94.230179,62.650963)"><stop id="stop2706" style="stop-color:#ffffff;stop-opacity:1" offset="0"/><stop id="stop2708" style="stop-color:#8e8e91;stop-opacity:1" offset="1"/></radialGradient><clipPath id="clipPath2700"><path d="M -1.446,-1.007 L 1.197,-1.007 L 1.197,0.626 L -1.446,0.626 L -1.446,-1.007 z" id="path2702"/></clipPath><clipPath id="clipPath2688"><path d="M 94.761,65.781 C 93.633,66.045 92.761,64.106 92.911,63.101 C 93.013,62.419 93.316,62.206 93.372,61.474 C 93.433,60.69 93.122,59.542 94.316,59.842 C 95.596,60.165 95.878,61.998 95.7,62.937 C 95.575,63.588 96.592,65.404 94.761,65.781" id="path2690"/></clipPath><clipPath id="clipPath2682"><path d="M 118.757,147.741 L 66.181,147.741 L 66.181,59.842 L 118.757,59.842 L 118.757,147.741 z" id="path2684"/></clipPath><radialGradient cx="0" cy="0" r="1" fx="0" fy="0" id="radialGradient2670" gradientUnits="userSpaceOnUse" gradientTransform="matrix(0,-29.634838,-29.634838,0,100.75052,107.45453)"><stop id="stop2672" style="stop-color:#ffffff;stop-opacity:1" offset="0"/><stop id="stop2674" style="stop-color:#8e8e91;stop-opacity:1" offset="1"/></radialGradient><clipPath id="clipPath2666"><path d="M -1.351,-0.454 L 1.361,-0.454 L 1.361,0.438 L -1.351,0.438 L -1.351,-0.454 z" id="path2668"/></clipPath><clipPath id="clipPath2654"><path d="M 97.685,70.84 C 97.933,72.723 97.171,75.572 97.236,76.26 C 97.302,76.95 98.649,78.408 98.861,79.19 C 99.386,80.294 98.043,83.236 98.343,83.938 C 98.64,84.642 104.518,89.12 104.536,89.744 C 104.551,90.368 102.765,92.227 102.765,92.227 C 102.765,92.227 110.25,96.065 111.104,96.684 C 111.956,97.307 114.191,99.036 114.044,99.487 C 113.894,99.938 111.242,100.895 110.534,100.949 C 109.877,101.024 111.446,103.432 111.217,103.858 C 110.989,104.283 109.447,104.947 109.004,105.121 C 108.559,105.294 107.759,106.923 107.329,107.208 C 106.896,107.492 103.98,108.438 104.358,108.282 C 104.736,108.125 100.142,109.138 99.928,109.502 C 99.712,109.869 100.199,110.938 100.199,110.938 C 100.199,110.938 102.759,113.849 102.866,114.279 C 102.976,114.706 102.116,115.057 101.859,115.823 C 101.599,116.587 100.972,119.418 101.151,119.875 C 101.329,120.331 95.744,122.516 95.744,122.516 C 94.223,131.235 91.914,139.505 88.898,147.082 C 88.798,147.348 88.499,147.496 88.202,147.41 C 87.964,147.341 87.802,147.146 87.777,146.927 C 90.413,139.152 92.227,130.614 93.375,121.624 C 93.375,121.624 98.787,119.426 99.339,118.744 C 99.892,118.061 99.725,115.424 99.982,115.065 C 100.232,114.706 100.789,114.792 100.598,114.122 C 100.409,113.45 98.69,111.92 98.359,111.323 C 98.027,110.727 97.571,108.62 97.788,108.289 C 98.004,107.955 102.491,106.979 103.414,106.735 C 104.34,106.492 105.335,106.349 105.91,105.83 C 106.484,105.313 106.947,104.311 107.499,103.852 C 108.053,103.392 108.867,103.406 109.093,102.942 C 109.321,102.48 108.177,100.192 108.344,99.758 C 108.513,99.326 111.276,99.388 111.054,98.981 C 110.831,98.571 110.755,98.437 110.096,97.934 C 109.44,97.429 100.599,93.322 100.522,92.811 C 100.447,92.298 102.049,90.571 102.125,89.717 C 102.202,88.865 96.691,85.437 96.367,83.901 C 96.269,83.434 97.477,80.035 96.879,79.216 C 96.286,78.393 95.627,77.012 95.449,76.376 C 95.03,74.884 96.83,72.936 95.961,71.512 C 95.407,70.6 93.514,68.836 95.48,67.857 C 97.65,67.112 97.559,69.485 97.685,70.84" id="path2656"/></clipPath><clipPath id="clipPath2548"><path d="M 587.298,415.523 L 7.093,415.523 L 7.093,5.966 L 587.298,5.966 L 587.298,415.523 z" id="path2550"/></clipPath><clipPath id="clipPath2542"><path d="M 6.9579,415.781 L 587.4319,415.781 L 587.4319,6.685 L 6.9579,6.685 L 6.9579,415.781 z" id="path2544"/></clipPath><clipPath id="clipPath2536"><path d="M 587.58,415.523 L 587.58,6.4348 L 7.0924,6.4348 L 7.0924,415.523" id="path2538"/></clipPath><clipPath id="clipPath2524"><path d="M 587.298,415.523 L 7.093,415.523 L 7.093,5.966 L 587.298,5.966 L 587.298,415.523 z" id="path2526"/></clipPath><clipPath id="clipPath2498"><path d="M 587.298,836.013 L 7.093,836.013 L 7.093,426.456 L 587.298,426.456 L 587.298,836.013 z" id="path2500"/></clipPath><clipPath id="clipPath2492"><path d="M 6.9579,836.271 L 587.4319,836.271 L 587.4319,427.175 L 6.9579,427.175 L 6.9579,836.271 z" id="path2494"/></clipPath><clipPath id="clipPath2486"><path d="M 7.0924,836.013 L 587.5804,836.013 L 587.5804,426.924 L 7.0924,426.924 L 7.0924,836.013 z" id="path2488"/></clipPath><clipPath id="clipPath2474"><path d="M 587.298,836.013 L 7.093,836.013 L 7.093,426.456 L 587.298,426.456 L 587.298,836.013 z" id="path2476"/></clipPath><clipPath id="clipPath2468"><path d="M 101.195,822.45 L 551.266,822.45 L 551.266,440.995 L 101.195,440.995 L 101.195,822.45 z" id="path2470"/></clipPath><clipPath id="clipPath2462"><path d="M 6.9579,836.271 L 587.4319,836.271 L 587.4319,427.175 L 6.9579,427.175 L 6.9579,836.271 z" id="path2464"/></clipPath><clipPath id="clipPath2456"><path d="M 7.0924,836.013 L 587.5804,836.013 L 587.5804,426.924 L 7.0924,426.924 L 7.0924,836.013 z" id="path2458"/></clipPath><clipPath id="clipPath2450"><path d="M 551.392,822.587 L 101.007,822.587 L 101.007,440.049 L 551.392,440.049 L 551.392,822.587 z" id="path2452"/></clipPath><clipPath id="clipPath2434"><path d="M 587.298,836.013 L 7.093,836.013 L 7.093,426.456 L 587.298,426.456 L 587.298,836.013 z" id="path2436"/></clipPath><clipPath id="clipPath2428"><path d="M 6.9579,836.271 L 587.4319,836.271 L 587.4319,427.175 L 6.9579,427.175 L 6.9579,836.271 z" id="path2430"/></clipPath><clipPath id="clipPath2422"><path d="M 7.0924,836.013 L 587.5804,836.013 L 587.5804,426.924 L 7.0924,426.924 L 7.0924,836.013 z" id="path2424"/></clipPath></defs><g transform="translate(-538.49935,-372.50891)" id="layer1"><g transform="matrix(4.3649985,0,0,4.3649985,-2026.9247,-2327.8518)" id="g4469"><path d="M 686.17427,647.27013 C 683.82052,646.96013 680.25927,647.91263 679.39927,647.83138 C 678.53677,647.74888 676.71427,646.06513 675.73677,645.80013 C 674.35677,645.14388 670.67927,646.82263 669.80177,646.44763 C 668.92177,646.07638 663.32427,638.72888 662.54427,638.70638 C 661.76427,638.68763 659.44052,640.92013 659.44052,640.92013 C 659.44052,640.92013 654.64302,631.56388 653.86927,630.49638 C 653.09052,629.43138 650.92927,626.63763 650.36552,626.82138 C 649.80177,627.00888 648.60552,630.32388 648.53802,631.20888 C 648.44427,632.03013 645.43427,630.06888 644.90177,630.35513 C 644.37052,630.64013 643.54052,632.56763 643.32302,633.12138 C 643.10677,633.67763 641.07052,634.67763 640.71427,635.21513 C 640.35927,635.75638 639.17677,639.40138 639.37177,638.92888 C 639.56802,638.45638 638.30177,644.19888 637.84677,644.46638 C 637.38802,644.73638 636.05177,644.12763 636.05177,644.12763 C 636.05177,644.12763 632.41302,640.92763 631.87552,640.79388 C 631.34177,640.65638 630.90302,641.73138 629.94552,642.05263 C 628.99052,642.37763 625.45177,643.16138 624.88052,642.93763 C 624.31052,642.71513 621.57927,649.69638 621.57927,649.69638 C 610.68052,651.59763 600.34302,654.48388 590.87177,658.25388 C 590.53927,658.37888 590.35427,658.75263 590.46177,659.12388 C 590.54802,659.42138 590.79177,659.62388 591.06552,659.65513 C 600.78427,656.36013 611.45677,654.09263 622.69427,652.65763 C 622.69427,652.65763 625.44177,645.89263 626.29427,645.20263 C 627.14802,644.51138 630.44427,644.72013 630.89302,644.39888 C 631.34177,644.08638 631.23427,643.39013 632.07177,643.62888 C 632.91177,643.86513 634.82427,646.01388 635.57052,646.42763 C 636.31552,646.84263 638.94927,647.41263 639.36302,647.14138 C 639.78052,646.87138 641.00052,641.26263 641.30552,640.10888 C 641.60927,638.95138 641.78802,637.70763 642.43677,636.98888 C 643.08302,636.27138 644.33552,635.69263 644.90927,635.00263 C 645.48427,634.31013 645.46677,633.29263 646.04677,633.01013 C 646.62427,632.72513 649.48427,634.15513 650.02677,633.94638 C 650.56677,633.73513 650.48927,630.28138 650.99802,630.55888 C 651.51052,630.83763 651.67802,630.93263 652.30677,631.75638 C 652.93802,632.57638 658.07177,643.62763 658.71052,643.72388 C 659.35177,643.81763 661.51052,641.81513 662.57802,641.72013 C 663.64302,641.62388 667.92802,648.51263 669.84802,648.91763 C 670.43177,649.04013 674.68052,647.53013 675.70427,648.27763 C 676.73302,649.01888 678.45927,649.84263 679.25427,650.06513 C 681.11927,650.58888 683.55427,648.33888 685.33427,649.42513 C 686.47427,650.11763 688.67927,652.48388 689.90302,650.02638 C 690.83427,647.31388 687.86802,647.42763 686.17427,647.27013" id="path2660" style="fill:#8e8e91;fill-opacity:1;fill-rule:nonzero;stroke:none"/><path d="M 692.49802,650.92513 C 692.16802,652.33513 694.59177,653.42513 695.84802,653.23763 C 696.70052,653.11013 696.96677,652.73138 697.88177,652.66138 C 698.86177,652.58513 700.29677,652.97388 699.92177,651.48138 C 699.51802,649.88138 697.22677,649.52888 696.05302,649.75138 C 695.23927,649.90763 692.96927,648.63638 692.49802,650.92513" id="path2694" style="fill:#8e8e91;fill-opacity:1;fill-rule:nonzero;stroke:none"/><path d="M 685.96677,646.91138 C 683.61052,646.61638 680.05677,647.59638 679.19552,647.52138 C 678.33427,647.44388 676.49927,645.77263 675.52052,645.51388 C 674.13427,644.86888 670.46802,646.57138 669.58927,646.20263 C 668.70677,645.83763 663.05802,638.53013 662.27802,638.51388 C 661.49677,638.50013 659.18927,640.74763 659.18927,640.74763 C 659.18927,640.74763 654.32677,631.42638 653.54552,630.36388 C 652.76052,629.30388 650.57927,626.52638 650.01552,626.71388 C 649.45427,626.90388 648.28052,630.22763 648.22052,631.11388 C 648.13302,631.93388 645.10802,629.99513 644.57927,630.28513 C 644.04927,630.57388 643.23302,632.50638 643.01802,633.06263 C 642.80552,633.62013 640.77677,634.63513 640.42427,635.17388 C 640.07302,635.71638 638.91677,639.37138 639.10927,638.89638 C 639.30177,638.42388 638.07552,644.17638 637.62052,644.44513 C 637.16302,644.71888 635.82552,644.11888 635.82552,644.11888 C 635.82552,644.11888 632.16302,640.94513 631.62552,640.81388 C 631.08927,640.68013 630.65927,641.75888 629.70302,642.08763 C 628.75177,642.42013 625.21802,643.22763 624.64677,643.00763 C 624.07177,642.78888 621.39177,649.78888 621.39177,649.78888 C 610.50552,651.76763 600.19052,654.72638 590.74302,658.56013 C 590.41302,658.68763 590.23052,659.06263 590.34052,659.43513 C 590.42927,659.73138 590.67427,659.93138 590.94802,659.96138 C 600.64302,656.59763 611.29927,654.25638 622.52677,652.74263 C 622.52677,652.74263 625.22802,645.95763 626.07552,645.26263 C 626.92302,644.56638 630.22052,644.75013 630.66677,644.42763 C 631.11552,644.11013 631.00302,643.41513 631.84177,643.64763 C 632.68177,643.87888 634.61052,646.01388 635.35802,646.42263 C 636.10677,646.83263 638.74427,647.38263 639.15802,647.11013 C 639.57302,646.83638 640.75302,641.22013 641.04927,640.06388 C 641.34552,638.90388 641.51677,637.65888 642.15802,636.93638 C 642.79927,636.21388 644.04927,635.62513 644.61802,634.93138 C 645.18802,634.23513 645.16302,633.21888 645.73927,632.93263 C 646.31802,632.64388 649.18677,634.05263 649.72677,633.84138 C 650.26677,633.62638 650.16302,630.17138 650.67677,630.44763 C 651.18927,630.72138 651.35802,630.81513 651.99302,631.63513 C 652.62802,632.45138 657.83927,643.46513 658.48052,643.55638 C 659.11927,643.64638 661.26677,641.63013 662.33302,641.52638 C 663.39677,641.42263 667.72927,648.28138 669.65302,648.67388 C 670.23802,648.79263 674.47552,647.25138 675.50427,647.99138 C 676.53802,648.72638 678.27052,649.53763 679.06802,649.75388 C 680.93552,650.26513 683.35552,647.99763 685.14302,649.07138 C 686.28802,649.75638 688.53927,652.15888 689.71552,649.64138 C 690.62802,646.92263 687.66177,647.05763 685.96677,646.91138" id="path2722" style="fill:#ffffff;fill-opacity:1;fill-rule:nonzero;stroke:none"/><path d="M 685.85177,646.73388 C 683.49677,646.42263 679.93802,647.37513 679.07552,647.29513 C 678.21552,647.21263 676.39177,645.52888 675.41552,645.26263 C 674.03302,644.60638 670.35552,646.28513 669.47927,645.91013 C 668.59802,645.53888 663.00177,638.19138 662.22177,638.17013 C 661.44177,638.15138 659.11677,640.38263 659.11677,640.38263 C 659.11677,640.38263 654.31927,631.02638 653.54677,629.95888 C 652.76927,628.89388 650.60802,626.10013 650.04302,626.28513 C 649.47927,626.47138 648.28177,629.78638 648.21677,630.67138 C 648.12302,631.49138 645.11302,629.53013 644.58052,629.81763 C 644.04927,630.10263 643.21927,632.03013 643.00052,632.58513 C 642.78552,633.14013 640.74802,634.14138 640.39052,634.67638 C 640.03802,635.21763 638.85427,638.86388 639.04927,638.39138 C 639.24677,637.92013 637.98052,643.66138 637.52427,643.93013 C 637.06552,644.19888 635.73052,643.59138 635.73052,643.59138 C 635.73052,643.59138 632.09177,640.39013 631.55427,640.25638 C 631.01927,640.11888 630.58177,641.19388 629.62177,641.51638 C 628.66927,641.84138 625.13052,642.62513 624.55802,642.40013 C 623.98802,642.17763 621.25802,649.15888 621.25802,649.15888 C 610.35802,651.06013 600.02177,653.94638 590.54802,657.71763 C 590.21802,657.84138 590.03302,658.21388 590.14052,658.58763 C 590.22552,658.88513 590.47052,659.08638 590.74302,659.11763 C 600.46177,655.82263 611.13427,653.55513 622.37177,652.12013 C 622.37177,652.12013 625.12052,645.35638 625.97302,644.66513 C 626.82552,643.97513 630.12177,644.18263 630.57177,643.86263 C 631.02052,643.54888 630.91302,642.85388 631.75052,643.09263 C 632.58927,643.32763 634.50427,645.47638 635.24802,645.89013 C 635.99427,646.30638 638.62552,646.87513 639.04177,646.60388 C 639.45927,646.33388 640.67802,640.72513 640.98177,639.57263 C 641.28677,638.41388 641.46677,637.17013 642.11302,636.45263 C 642.75927,635.73388 644.01427,635.15513 644.58802,634.46513 C 645.16052,633.77263 645.14552,632.75638 645.72427,632.47263 C 646.30302,632.18888 649.16177,633.61763 649.70427,633.40888 C 650.24427,633.19888 650.16552,629.74388 650.67677,630.02263 C 651.18802,630.30138 651.35552,630.39513 651.98427,631.21763 C 652.61427,632.03888 657.74802,643.09013 658.38802,643.18638 C 659.02802,643.28013 661.18927,641.27763 662.25552,641.18388 C 663.32177,641.08638 667.60427,647.97513 669.52552,648.38138 C 670.10927,648.50263 674.35802,646.99388 675.38302,647.73888 C 676.41052,648.48138 678.13677,649.30513 678.93177,649.52763 C 680.79677,650.05138 683.23302,647.80138 685.01177,648.88763 C 686.15302,649.58013 688.49427,651.97388 689.58052,649.49013 C 690.51302,646.77638 687.54677,646.89138 685.85177,646.73388" id="path2750" style="fill:#ffffff;fill-opacity:1;fill-rule:nonzero;stroke:none"/><path d="M 692.12927,650.53888 C 691.80052,651.95013 694.22177,653.04013 695.48052,652.85138 C 696.33177,652.72388 696.59927,652.34763 697.51177,652.27513 C 698.49302,652.19888 699.92927,652.59013 699.55302,651.09888 C 699.15052,649.49638 696.85927,649.14388 695.68552,649.36513 C 694.87177,649.52138 692.60052,648.25013 692.12927,650.53888" id="path2752" style="fill:#ffffff;fill-opacity:1;fill-rule:nonzero;stroke:none"/><path d="M 692.06177,650.37763 C 691.73427,651.78763 694.15802,652.87763 695.41302,652.69013 C 696.26677,652.56263 696.53302,652.18388 697.44802,652.11388 C 698.43052,652.03513 699.86177,652.42763 699.48802,650.93763 C 699.08427,649.33513 696.79302,648.97888 695.61927,649.20388 C 694.80427,649.35888 692.53427,648.08638 692.06177,650.37763" id="path2754" style="fill:#4e71b2;fill-opacity:1;fill-rule:nonzero;stroke:none"/><path d="M 685.67802,646.47513 C 683.32052,646.17888 679.76802,647.15888 678.90552,647.08013 C 678.04427,647.00513 676.21052,645.33388 675.22802,645.07638 C 673.84427,644.42888 670.18052,646.13388 669.29927,645.76513 C 668.41552,645.40013 662.76802,638.09138 661.98677,638.07638 C 661.20802,638.06013 658.89802,640.30763 658.89802,640.30763 C 658.89802,640.30763 654.03677,630.98513 653.25427,629.92763 C 652.47052,628.86763 650.28802,626.08763 649.72552,626.27763 C 649.16427,626.46888 647.98802,629.79138 647.92927,630.67888 C 647.84302,631.49263 644.81927,629.56013 644.29052,629.84888 C 643.76052,630.13388 642.94177,632.07013 642.72927,632.62513 C 642.51677,633.18138 640.48427,634.19638 640.13552,634.73888 C 639.78427,635.28013 638.62552,638.93388 638.81677,638.46138 C 639.00927,637.98638 637.75427,643.69138 637.33052,644.00763 C 636.79302,644.40763 635.53552,643.68263 635.53552,643.68263 C 635.53552,643.68263 631.87177,640.50888 631.33427,640.37513 C 630.79927,640.24138 630.36802,641.32263 629.41302,641.65263 C 628.46052,641.98263 624.92927,642.78888 624.35552,642.57013 C 623.78302,642.34763 621.10177,649.34888 621.10177,649.34888 C 610.21552,651.32638 599.89927,654.28888 590.45427,658.12513 C 590.12302,658.25013 589.94052,658.62513 590.04802,658.99388 C 590.13802,659.29263 590.38552,659.49263 590.65552,659.52263 C 600.35302,656.16013 611.00802,653.81888 622.23677,652.30263 C 622.23677,652.30263 624.93802,645.52013 625.78427,644.82388 C 626.63302,644.13013 629.92802,644.31513 630.37802,643.99138 C 630.82302,643.66888 630.71177,642.97888 631.55177,643.21013 C 632.39177,643.44263 634.32052,645.57513 635.06802,645.98513 C 635.81677,646.39388 638.45302,646.94388 638.86927,646.67263 C 639.28302,646.39763 640.46052,640.78513 640.76052,639.62638 C 641.05677,638.46888 641.22677,637.22138 641.86802,636.49888 C 642.50927,635.77763 643.76052,635.18888 644.32927,634.49263 C 644.89802,633.79763 644.87427,632.77888 645.44927,632.49263 C 646.02677,632.20513 648.89552,633.61763 649.43802,633.40388 C 649.97677,633.18888 649.87302,629.73388 650.38802,630.00763 C 650.89802,630.28138 651.06802,630.37763 651.70177,631.19638 C 652.33802,632.01263 657.54802,643.02763 658.18802,643.11888 C 658.82802,643.20763 660.97677,641.19138 662.04177,641.08888 C 663.10802,640.98638 667.43802,647.84263 669.36177,648.23513 C 669.94802,648.35263 674.18552,646.81638 675.21427,647.55138 C 676.24802,648.28763 677.98052,649.10013 678.77677,649.31888 C 680.64552,649.82638 683.06302,647.56138 684.85302,648.63388 C 685.99677,649.32138 688.19802,651.67888 689.42552,649.20263 C 690.33802,646.48263 687.37052,646.62263 685.67802,646.47513" id="path2756" style="fill:#4e71b2;fill-opacity:1;fill-rule:nonzero;stroke:none"/><path d="M 639.08427,637.36638 C 639.15677,637.03763 639.89552,635.00388 640.15302,634.60513 C 640.26802,634.42763 640.83802,634.04138 641.25427,633.76263 C 642.10677,633.18638 642.63677,632.81013 642.78802,632.41513 C 643.19177,631.35638 643.81927,630.05888 644.09677,629.90513 C 644.06177,629.92388 644.12802,629.88888 644.12802,629.88888 C 644.32052,629.87263 644.99177,630.15763 645.45677,630.35388 C 646.60427,630.83763 647.27427,631.09763 647.71177,630.83888 C 647.88427,630.73763 647.92052,630.57263 647.94177,630.36513 C 648.00177,629.46263 649.08927,626.69513 649.48052,626.40888 C 649.48052,626.40888 649.50052,626.39888 649.52677,626.38638 C 649.57427,626.36138 649.63677,626.40888 649.62552,626.40513 C 650.01427,626.50388 651.22677,627.98888 652.57802,629.81638 C 653.18177,630.63138 656.50927,636.92638 658.18427,640.14013 C 658.24677,640.25888 658.36177,640.34013 658.49302,640.36263 C 658.62552,640.38263 658.75927,640.34013 658.85552,640.24638 C 660.00927,639.12388 661.26802,638.14138 661.59802,638.14013 C 661.55427,638.14013 661.59802,638.14138 661.59802,638.14013 C 662.04052,638.32138 663.99677,640.60388 665.30927,642.12388 C 667.38677,644.53013 668.34427,645.60638 668.79927,645.79263 C 669.28802,645.99763 670.05802,645.81638 671.37802,645.48013 C 672.57677,645.17388 674.06677,644.79388 674.71052,645.09638 C 674.73427,645.10763 674.75802,645.11638 674.78177,645.12138 C 675.17677,645.22513 675.81052,645.64888 676.42177,646.05638 C 677.21677,646.58888 677.96802,647.08763 678.53052,647.13763 C 678.89677,647.17138 679.54677,647.06388 680.44427,646.91388 C 681.88052,646.67638 683.88552,646.33513 685.32927,646.51638 C 685.53052,646.53513 685.68302,646.56138 685.88802,646.57513 C 686.94302,646.64138 688.73052,646.87138 689.12927,647.52388 C 689.31552,647.82888 689.45177,648.29638 689.25427,648.88888 C 689.26052,648.86638 688.70302,648.66263 688.71427,648.64388 C 688.45927,649.12888 688.17177,649.40263 687.83427,649.48138 C 687.12677,649.64263 686.20427,648.96263 685.46177,648.41513 C 685.19927,648.22263 684.95302,648.04013 684.73177,647.90763 C 683.58302,647.21888 682.30427,647.67013 681.06677,648.10888 C 680.14302,648.43388 679.26927,648.74263 678.55052,648.54638 C 677.78927,648.33888 676.08802,647.53138 675.12302,646.84263 C 674.34677,646.29013 672.64927,646.64263 670.51302,647.16388 C 669.95302,647.29888 669.25927,647.46763 669.09552,647.45513 C 668.21427,647.27638 666.36427,645.04388 665.01177,643.41388 C 663.09927,641.10763 662.31427,640.24138 661.66427,640.30513 C 661.00177,640.36763 660.13052,640.95638 659.28677,641.52638 C 658.81677,641.84388 658.24677,642.27888 658.03677,642.29013 C 658.03677,642.29013 657.99927,642.28763 657.99052,642.28263 C 657.94302,642.25763 657.92927,642.23638 657.93052,642.23763 C 657.45302,641.84013 655.29927,637.50763 653.94552,634.82638 C 652.68052,632.32888 651.95302,630.90138 651.69927,630.57263 C 651.03427,629.71638 650.82177,629.57763 650.24927,629.27138 C 650.09052,629.18638 649.90802,629.18513 649.75427,629.26513 C 649.38302,629.45888 649.30427,629.98138 649.16052,631.14763 C 649.09677,631.66638 649.03427,632.42388 648.90677,632.59763 C 648.90677,632.59638 648.83302,632.64388 648.89052,632.62013 C 648.91052,632.61388 648.84302,632.62888 648.84302,632.62888 C 648.63302,632.65763 647.93302,632.38638 647.38302,632.20013 C 646.10677,631.76638 645.36302,631.53263 644.92427,631.75013 C 644.45677,631.98388 644.28177,632.47138 644.11302,632.94513 C 643.99552,633.27013 643.87427,633.60513 643.66552,633.86138 C 643.41052,634.17388 642.95552,634.49138 642.51552,634.79888 C 642.04802,635.12638 641.56302,635.46513 641.21677,635.85513 C 640.62927,636.51388 640.39927,637.51013 640.17677,638.47388 C 640.12427,638.70013 640.07052,638.93388 640.01302,639.15888 C 639.94177,639.43638 639.82302,639.95388 639.67302,640.60763 C 639.33052,642.10138 638.57177,645.54638 638.27927,645.95513 C 638.28052,645.95513 638.25677,645.98388 638.29927,645.95513 C 638.31802,645.94388 638.27927,645.95513 638.27927,645.95513 C 637.89677,646.08763 635.65052,645.64263 634.93552,645.25138 C 634.66677,645.10513 634.13927,644.62513 633.62927,644.16138 C 632.59427,643.21888 631.87302,642.59138 631.32677,642.43888 C 630.45677,642.20013 630.15677,642.72638 629.99552,643.01138 C 629.92802,643.12763 629.87052,643.22888 629.79302,643.28388 C 629.80302,643.27763 629.80802,643.27388 629.80802,643.27388 C 629.65552,643.34888 628.94052,643.40263 628.41802,643.44138 C 627.18552,643.53263 625.78802,643.63638 625.18052,644.13388 C 624.29302,644.86388 622.03302,650.44388 621.57427,651.59138 C 621.51927,651.59138 621.33677,651.59638 621.48802,651.57638 C 609.76427,653.16013 599.46552,655.54013 590.18052,658.75888 C 590.24052,658.74013 590.30177,658.73138 590.36427,658.73888 C 590.27177,658.72763 590.15927,658.65513 590.11677,658.51013 C 590.07302,658.36138 590.13927,658.20638 590.26677,658.15763 C 599.73802,654.31138 610.02177,651.36638 620.83927,649.40263 C 620.98427,649.37638 621.10677,649.27638 621.15927,649.13888 C 622.29427,646.17513 623.32802,643.30388 623.75177,642.97263 C 623.71677,643.00138 624.19802,642.44138 624.06802,642.39138 C 624.90302,642.50138 628.60302,641.90138 629.21552,641.68763 C 629.77677,641.49513 630.16677,641.10388 630.48052,640.79013 C 630.61927,640.65138 630.83052,640.43888 630.91177,640.42388 C 630.90802,640.42388 630.90177,640.42388 630.89552,640.42263 C 631.23552,640.55013 633.21302,642.16013 634.92302,643.63888 C 634.95302,643.66638 634.99427,643.67888 635.02677,643.70513 C 635.58427,644.14888 636.66677,644.41388 637.20927,644.00763 C 637.91302,643.48013 638.72302,638.77513 638.71177,638.73013 L 639.08427,637.36638" id="path2768" style="fill:#b9c2e0;fill-opacity:1;fill-rule:nonzero;stroke:none"/><path d="M 693.56927,649.11388 C 693.17802,649.05763 692.61427,649.32763 692.43302,649.70263 C 692.26427,650.04763 692.34177,650.55013 692.53052,650.87388 C 692.69177,651.15138 692.83177,651.39263 693.09677,651.57763 C 693.37052,651.76888 693.82677,652.08888 694.19052,652.12388 C 694.48802,652.15263 694.90427,651.80763 695.16177,651.68638 C 695.43927,651.55763 695.64177,651.31888 695.91802,651.22388 C 696.55052,651.00388 697.27677,651.26388 697.93302,651.25638 C 698.26552,651.25263 698.57927,651.21263 698.74677,650.89513 C 698.84927,650.70263 698.88927,650.43763 698.75552,650.26388 C 698.46552,649.87888 697.95927,649.65763 697.51927,649.48763 C 696.85177,649.23138 696.11552,649.23513 695.41052,649.24138 C 694.78552,649.24638 694.18927,649.20013 693.56927,649.11388" id="path2796" style="fill:#b9c2e0;fill-opacity:1;fill-rule:nonzero;stroke:none"/><path d="M 639.07052,638.63638 C 639.14302,638.30763 640.09177,635.43013 640.34927,635.03138 C 640.46552,634.85388 641.03302,634.47013 641.45052,634.18888 C 642.30302,633.61388 642.83302,633.23638 642.98302,632.84138 C 643.38677,631.78388 644.01552,630.48513 644.29302,630.33138 C 644.25802,630.35013 644.32427,630.31513 644.32302,630.31513 C 644.51677,630.29888 645.18802,630.58513 645.65302,630.78013 C 646.80052,631.26263 647.46927,631.52513 647.90802,631.26638 C 648.08052,631.16388 648.18677,630.99388 648.20927,630.78638 C 648.26802,629.88263 649.28552,627.12263 649.67677,626.83638 C 649.67677,626.83638 649.69677,626.82638 649.72302,626.81263 C 649.77052,626.78763 649.83302,626.83513 649.82177,626.83263 C 650.21052,626.93138 651.42302,628.41513 652.77427,630.24263 C 653.37677,631.05763 656.70677,637.35138 658.38302,640.56638 C 658.44427,640.68638 658.55927,640.76638 658.68927,640.78888 C 658.82177,640.81013 658.95677,640.76638 659.05177,640.67388 C 660.20677,639.55013 661.46552,638.56888 661.79427,638.56763 C 661.75052,638.56638 661.79552,638.56763 661.79427,638.56763 C 662.23802,638.74763 664.19427,641.03013 665.50552,642.55138 C 667.58302,644.95888 668.54177,646.03263 668.99552,646.22013 C 669.48552,646.42513 670.25427,646.24388 671.57427,645.90638 C 672.77302,645.60138 674.26302,645.22138 674.90802,645.52263 C 674.93052,645.53388 674.95427,645.54388 674.97927,645.54888 C 675.37427,645.65263 676.00552,646.07513 676.61802,646.48388 C 677.41302,647.01513 678.16427,647.51638 678.72677,647.56513 C 679.09302,647.59888 679.74302,647.49138 680.64177,647.34138 C 682.07677,647.10263 684.04052,646.77763 685.48552,646.95888 C 685.68552,646.97638 685.87927,646.98888 686.08552,647.00138 C 687.14052,647.07013 688.45302,647.15263 688.87802,647.78763 C 689.07927,648.08763 689.08177,648.54013 688.88302,649.13263 C 688.89052,649.11013 688.89927,649.09013 688.91052,649.07013 C 688.65552,649.55638 688.36802,649.82888 688.03177,649.90763 C 687.32427,650.07013 686.40052,649.39013 685.65927,648.84263 C 685.39677,648.64888 685.14927,648.46638 684.92802,648.33388 C 683.77927,647.64513 682.50052,648.09888 681.26302,648.53513 C 680.33927,648.86138 679.50052,649.11013 678.78052,648.91388 C 678.01927,648.70513 676.28552,647.96013 675.31927,647.27138 C 674.54427,646.71763 672.84677,647.07013 670.70927,647.59013 C 670.14927,647.72513 669.22802,647.59513 669.06552,647.58263 C 668.18302,647.40263 666.46927,645.31513 665.11802,643.68513 C 663.20427,641.37888 662.41427,640.41513 661.76427,640.47888 C 661.10177,640.54263 660.32677,641.38388 659.48302,641.95263 C 659.01302,642.27138 658.44302,642.70638 658.23302,642.71763 C 658.23302,642.71763 658.19552,642.71638 658.18677,642.71138 C 658.13927,642.68388 658.12677,642.66388 658.12677,642.66513 C 657.64927,642.26763 655.49677,637.93388 654.14052,635.25513 C 652.87677,632.75638 652.14927,631.32763 651.89552,631.00013 C 651.22927,630.14263 651.01802,630.00513 650.44552,629.69763 C 650.28677,629.61388 650.10427,629.61263 649.95052,629.69138 C 649.57927,629.88388 649.32927,630.43388 649.18552,631.59888 C 649.12052,632.11888 649.06052,632.87513 648.93052,633.04888 C 648.93177,633.04763 649.02927,633.07013 649.08677,633.04763 C 649.10677,633.04013 649.03927,633.05638 649.03927,633.05638 C 648.82927,633.08513 648.12927,632.81388 647.57927,632.62638 C 646.30177,632.19388 645.55927,631.95888 645.12052,632.17763 C 644.65302,632.41263 644.47677,632.90013 644.30927,633.37263 C 644.19177,633.69638 644.07052,634.03263 643.86052,634.28888 C 643.60677,634.60013 643.15177,634.91888 642.71177,635.22638 C 642.24427,635.55513 641.75927,635.89388 641.41302,636.28388 C 640.82552,636.94013 640.59427,637.93763 640.37302,638.90138 C 640.32052,639.12763 640.26677,639.36138 640.20927,639.58513 C 640.13802,639.86388 640.01927,640.38138 639.86927,641.03388 C 639.52677,642.52888 638.76677,645.97263 638.47552,646.38263 C 638.47552,646.38263 638.45302,646.41138 638.49552,646.38263 C 638.51427,646.37013 638.47552,646.38263 638.47552,646.38263 C 638.09302,646.51388 635.84677,646.07013 635.13177,645.67763 C 634.86302,645.53138 634.33552,645.05263 633.82552,644.58763 C 632.78927,643.64763 632.06927,643.01763 631.52302,642.86638 C 630.65302,642.62638 630.35302,643.15513 630.19177,643.43763 C 630.12427,643.55388 630.06677,643.65513 629.98927,643.71138 C 629.99927,643.70388 630.00552,643.70013 630.00552,643.70013 C 629.85177,643.77638 629.13677,643.83013 628.61427,643.86763 C 627.38177,643.95888 625.98427,644.06263 625.37552,644.56138 C 624.48927,645.29013 622.22927,650.86888 621.77052,652.01888 C 621.71552,652.01888 621.53302,652.02388 621.68427,652.00263 C 609.96052,653.58888 599.66177,655.96638 590.37677,659.18763 C 590.43552,659.16638 590.49802,659.15888 590.55927,659.16513 C 590.46802,659.15638 590.35552,659.08138 590.31427,658.93888 C 590.26927,658.78888 590.33552,658.63388 590.46177,658.58513 C 599.93427,654.73763 610.21677,651.79388 621.03552,649.82888 C 621.18052,649.80263 621.30177,649.70263 621.35552,649.56513 C 622.49052,646.60263 623.84302,643.40763 624.26677,643.07638 C 624.23052,643.10513 624.39552,643.12638 624.26677,643.07638 C 625.10052,643.18638 628.79802,642.32763 629.41052,642.11638 C 629.97302,641.92263 630.36302,641.53138 630.67552,641.21763 C 630.81552,641.07763 631.02677,640.86513 631.10802,640.85138 C 631.10427,640.85138 631.09677,640.85138 631.09177,640.85013 C 631.43177,640.97638 633.40927,642.58638 635.11802,644.06638 C 635.14927,644.09263 635.18552,644.11513 635.22302,644.13263 C 635.68427,644.33888 636.82302,644.78138 637.40552,644.43388 C 638.16302,643.99013 639.07552,638.69638 639.06552,638.65138 L 639.07052,638.63638" id="path2824" style="fill:#ffffff;fill-opacity:1;fill-rule:nonzero;stroke:none"/><path d="M 693.46177,649.35263 C 693.04177,649.29263 692.62177,649.35763 692.42677,649.76013 C 692.24802,650.12763 692.26427,650.68638 692.46677,651.03388 C 692.64052,651.33138 692.84552,651.56388 693.12802,651.76013 C 693.42052,651.96513 693.79302,652.19013 694.18177,652.22763 C 694.50177,652.25888 694.89177,652.23513 695.16552,652.10638 C 695.46177,651.96763 695.67927,651.71263 695.97302,651.61013 C 696.65177,651.37513 697.42927,651.65263 698.13052,651.64638 C 698.48552,651.64138 698.82177,651.59763 699.00177,651.25763 C 699.11052,651.05138 699.15302,650.76888 699.01052,650.58263 C 698.69927,650.17263 698.15802,649.93513 697.68802,649.75388 C 696.97302,649.47888 696.18552,649.48263 695.43052,649.48888 C 694.76177,649.49513 694.12427,649.44638 693.46177,649.35263" id="path2852" style="fill:#cbd1e8;fill-opacity:1;fill-rule:nonzero;stroke:none"/><path d="M 688.87677,647.43013 C 690.14927,648.70388 688.57802,650.33138 687.57427,650.05888 C 687.06427,649.92138 686.79927,649.74888 686.35052,649.43888 C 685.54177,648.88263 685.28177,648.68388 684.91677,648.42013 C 684.73302,648.28763 684.12552,648.13888 684.08927,647.89638 C 684.06927,647.74763 684.10552,647.57388 684.23052,647.49138 C 684.50552,647.31138 684.27177,646.91388 684.59427,646.90513 C 685.08427,646.89138 688.26927,646.82388 688.87677,647.43013" id="path2880" style="fill:#cbd1e8;fill-opacity:1;fill-rule:nonzero;stroke:none"/><path d="M 686.50677,646.96013 C 686.50677,646.96013 688.67302,646.86513 689.09927,647.77263 C 689.44802,648.51513 689.00177,648.97638 688.62427,648.78388 C 688.05302,648.65763 688.08552,647.52888 686.50677,646.96013" id="path2908" style="fill:#6a82bd;fill-opacity:1;fill-rule:nonzero;stroke:none"/><path d="M 697.42802,649.66513 C 697.42802,649.66513 698.84177,650.05513 698.99552,650.69263 C 699.12052,651.21388 698.83177,651.40888 698.58427,651.28388 C 698.23052,651.12513 698.38052,650.24513 697.42802,649.66513" id="path2936" style="fill:#909fce;fill-opacity:1;fill-rule:nonzero;stroke:none"/><path d="M 681.26802,642.38138 L 681.26802,621.16388 L 616.01552,621.16388 L 616.01552,646.16638 M 616.01552,657.39263 L 616.01552,686.41763 L 681.26802,686.41763 L 681.26802,653.84638" id="path2964" style="fill:none;stroke:#949497;stroke-width:0.46625;stroke-linecap:butt;stroke-linejoin:miter;stroke-miterlimit:4;stroke-dasharray:none;stroke-opacity:1"/><path d="M 645.09052,658.89388 C 644.11177,657.89513 642.91427,657.39513 641.50177,657.39513 C 640.53427,657.39513 639.70052,657.65638 638.99677,658.17388 C 638.61302,658.45888 638.24927,658.84888 637.91052,659.34513 L 637.91052,657.66638 L 634.29177,657.66638 L 634.29177,673.66138 L 637.95552,673.66138 L 637.95552,667.78263 C 638.28802,668.26388 638.63177,668.62763 638.98052,668.87263 C 639.62177,669.32638 640.42427,669.55013 641.39427,669.55013 C 642.91052,669.55013 644.15177,669.01388 645.11427,667.94763 C 646.07802,666.88013 646.56302,665.32388 646.56302,663.28888 C 646.56302,661.35763 646.06802,659.89388 645.09052,658.89388 z M 640.24302,667.16013 C 638.72052,667.16013 637.89302,665.55388 637.89302,663.57013 C 637.89302,661.58888 638.72052,659.98013 640.24302,659.98013 C 641.76427,659.98013 642.71177,661.58888 642.71177,663.57013 C 642.71177,665.55388 641.76427,667.16013 640.24302,667.16013" id="path2976" style="fill:#00529f;fill-opacity:1;fill-rule:nonzero;stroke:none"/><path d="M 660.70427,667.06388 C 659.93802,667.06388 659.34927,666.75013 658.93552,666.12013 C 658.52177,665.49263 658.31802,664.59888 658.31802,663.44513 C 658.31802,662.28888 658.52177,661.40138 658.93552,660.77388 C 659.34927,660.15013 659.93802,659.83263 660.70427,659.83263 C 661.46927,659.83263 662.05552,660.15013 662.46677,660.77388 C 662.87802,661.40138 663.08302,662.28888 663.08302,663.44513 C 663.08302,664.59888 662.87802,665.49263 662.46677,666.12013 C 662.05552,666.75013 661.46927,667.06388 660.70427,667.06388 z M 666.86552,663.45388 C 666.86552,661.79513 666.35927,660.36888 665.33927,659.16263 C 664.32052,657.95388 662.77302,657.34888 660.69802,657.34888 C 658.62427,657.34888 657.07802,657.95388 656.05927,659.16263 C 655.03927,660.36888 654.53302,661.79513 654.53302,663.45388 C 654.53302,665.13138 655.03927,666.56763 656.05927,667.76138 C 657.07802,668.95513 658.62427,669.55013 660.69802,669.55013 C 662.77302,669.55013 664.32052,668.95513 665.33927,667.76138 C 666.35927,666.56763 666.86552,665.13138 666.86552,663.45388" id="path2978" style="fill:#00529f;fill-opacity:1;fill-rule:nonzero;stroke:none"/><path d="M 666.65427,660.10638 L 666.65427,657.66638 L 676.30802,657.66638 L 672.07802,666.70388 L 676.51802,666.70388 L 676.51802,669.14263 L 666.86677,669.14263 L 671.20052,660.10638 L 666.65427,660.10638" id="path2980" style="fill:#00529f;fill-opacity:1;fill-rule:nonzero;stroke:none"/><path d="M 656.27052,657.87013 C 656.14802,657.81138 656.01927,657.75388 655.87677,657.70638 C 655.26677,657.52138 654.26677,657.38513 653.12677,657.89763 C 652.43427,658.20388 651.53177,658.99388 651.28052,659.62138 L 651.28052,657.66638 L 647.79677,657.66638 L 647.79677,669.14263 L 651.46052,669.14263 L 651.46052,663.81763 C 651.46052,662.48513 651.43177,661.87888 652.07552,661.22763 C 652.69677,660.59638 653.46927,660.55763 654.17177,660.90388 C 654.45927,660.07888 654.89427,659.32013 655.47927,658.62888 C 655.71927,658.34638 655.98177,658.09263 656.27052,657.87013" id="path2982" style="fill:#00529f;fill-opacity:1;fill-rule:nonzero;stroke:none"/><path d="M 632.63802,666.22638 L 632.63802,661.51388 C 632.63802,660.12638 632.46177,659.08013 631.08677,658.16013 C 630.13677,657.52888 628.30427,657.34888 627.33427,657.34888 C 626.04052,657.34888 624.42302,657.61763 623.30302,658.44888 L 623.30302,661.04763 C 625.16927,659.61763 627.34177,659.62388 628.08802,659.87388 C 628.77427,660.10138 628.99552,660.47388 628.99552,661.00763 C 628.99552,661.39638 628.79302,661.75013 628.31677,661.86763 C 627.13677,662.16013 625.09677,662.14013 623.66802,662.76763 C 622.30177,663.36888 621.29802,664.63763 621.45052,666.26513 C 621.61052,667.99888 622.65302,669.47138 624.83052,669.52263 C 627.01177,669.57138 628.35802,668.72013 629.08677,667.84388 C 629.10927,668.09513 629.13802,668.31763 629.17677,668.51513 C 629.21177,668.71388 629.27927,668.92263 629.37427,669.14263 L 633.29427,669.14263 C 632.97802,668.55763 632.63802,667.35513 632.63802,666.22638 z M 627.45052,667.17638 C 626.26427,667.60513 625.28927,667.20013 625.17802,666.12638 C 625.07052,665.08638 625.58302,664.68263 626.17427,664.43013 C 627.03302,664.05638 628.11302,664.14763 628.97677,663.52263 C 628.97677,665.17013 628.74552,666.70513 627.45052,667.17638" id="path2984" style="fill:#00529f;fill-opacity:1;fill-rule:nonzero;stroke:none"/><path d="M 625.30427,675.90763 C 625.07302,675.69513 624.76677,675.48263 624.48052,675.48263 C 624.00427,675.48263 623.73802,675.83138 623.73802,676.29138 C 623.73802,676.71638 624.03052,677.03138 624.64427,677.58388 C 625.29677,678.18013 625.67927,678.72388 625.67927,679.49013 C 625.67927,680.43513 624.96427,681.04763 624.20177,681.04763 C 623.74552,681.04763 623.20052,680.84388 622.86052,680.42638 L 623.15302,679.93263 C 623.43177,680.17888 623.73802,680.45263 624.18802,680.45263 C 624.65802,680.45263 625.01802,680.13638 625.01802,679.47388 C 625.01802,678.72388 624.30427,678.24013 623.91552,677.88263 C 623.52052,677.49888 623.07802,677.13263 623.07802,676.29138 C 623.07802,675.49138 623.69802,674.88638 624.43927,674.88638 C 624.93677,674.88638 625.35177,675.10763 625.61802,675.48263 L 625.30427,675.90763" id="path2986" style="fill:#949497;fill-opacity:1;fill-rule:nonzero;stroke:none"/><path d="M 627.98677,677.13263 C 628.75552,677.13263 629.00802,678.00138 629.00802,678.76638 C 629.00802,679.56763 628.78927,680.50263 627.98677,680.50263 C 627.19052,680.50263 626.97177,679.56763 626.97177,678.76638 C 626.97177,678.00138 627.22427,677.13263 627.98677,677.13263 z M 627.98677,681.04763 C 628.99427,681.04763 629.66802,680.08513 629.66802,678.76638 C 629.66802,677.38763 628.84427,676.58888 627.98677,676.58888 C 627.12802,676.58888 626.31177,677.38763 626.31177,678.76638 C 626.31177,680.08513 626.98552,681.04763 627.98677,681.04763" id="path2988" style="fill:#949497;fill-opacity:1;fill-rule:nonzero;stroke:none"/><path d="M 632.71802,680.45263 C 632.37052,680.82638 632.06302,681.04763 631.62177,681.04763 C 630.83802,681.04763 630.41677,680.50263 630.41677,679.43138 L 630.41677,676.69013 L 631.02927,676.69013 L 631.02927,679.26013 C 631.02927,680.06013 631.30177,680.48513 631.85302,680.48513 C 632.32302,680.48513 632.71052,680.00013 632.71052,679.17638 L 632.71052,676.69013 L 633.32427,676.69013 L 633.32427,680.94638 L 632.71802,680.94638 L 632.71802,680.45263" id="path2990" style="fill:#949497;fill-opacity:1;fill-rule:nonzero;stroke:none"/><path d="M 634.93052,677.21888 L 635.17552,676.89388 C 635.31802,676.71638 635.54177,676.58888 635.68552,676.58888 C 635.83552,676.58888 636.06052,676.72513 636.25052,677.00513 L 635.97177,677.49888 C 635.82177,677.40638 635.67177,677.32138 635.51552,677.32138 C 635.20177,677.32138 634.94427,677.71263 634.94427,678.65638 L 634.94427,680.94638 L 634.33052,680.94638 L 634.33052,676.69013 L 634.93052,676.69013 L 634.93052,677.21888" id="path2992" style="fill:#949497;fill-opacity:1;fill-rule:nonzero;stroke:none"/><path d="M 639.31427,680.60513 C 638.98052,680.90263 638.57802,681.04763 638.28552,681.04763 C 636.67177,681.04763 636.46927,679.39638 636.46927,678.80888 C 636.46927,677.74513 637.03302,676.58888 638.31427,676.58888 C 638.66052,676.58888 638.97302,676.69888 639.22552,676.93638 L 639.02052,677.37138 C 638.82302,677.25263 638.57302,677.15013 638.32052,677.15013 C 637.76177,677.15013 637.12927,677.61013 637.12927,678.76638 C 637.12927,679.65138 637.49052,680.48513 638.31427,680.48513 C 638.60677,680.48513 638.87802,680.39263 639.14427,680.17888 L 639.31427,680.60513" id="path2994" style="fill:#949497;fill-opacity:1;fill-rule:nonzero;stroke:none"/><path d="M 640.41677,678.35763 C 640.43802,677.81388 640.69552,677.13263 641.34927,677.13263 C 641.88677,677.13263 642.11177,677.69513 642.11177,678.35763 L 640.41677,678.35763 z M 642.67052,678.86888 C 642.73927,677.75388 642.39177,676.58888 641.35677,676.58888 C 640.58802,676.58888 639.74302,677.26138 639.74302,678.73263 C 639.74302,680.23013 640.44302,681.04763 641.50677,681.04763 C 641.86052,681.04763 642.28302,680.86888 642.63677,680.55513 L 642.45927,680.13638 C 642.22052,680.35763 641.83927,680.50263 641.52552,680.50263 C 640.85302,680.50263 640.36927,679.72138 640.37677,678.86888 L 642.67052,678.86888" id="path2996" style="fill:#949497;fill-opacity:1;fill-rule:nonzero;stroke:none"/><path d="M 645.02552,677.37138 C 644.78052,677.16763 644.58302,677.09888 644.39927,677.09888 C 644.18052,677.09888 643.90177,677.22763 643.90177,677.58388 C 643.90177,677.94138 644.21552,678.12013 644.60427,678.48638 C 645.04052,678.90263 645.32552,679.25138 645.32552,679.84763 C 645.32552,680.56138 644.75927,681.04763 644.13302,681.04763 C 643.74552,681.04763 643.31052,680.83388 643.08552,680.51138 L 643.38427,680.07638 C 643.58177,680.30763 643.84802,680.50263 644.11927,680.50263 C 644.40677,680.50263 644.69927,680.31513 644.69927,679.89888 C 644.69927,679.40513 644.34552,679.19138 644.02427,678.90263 C 643.63677,678.55388 643.29677,678.26513 643.29677,677.68638 C 643.29677,677.01388 643.82677,676.58888 644.42552,676.58888 C 644.75927,676.58888 645.08677,676.75888 645.26302,676.98013 L 645.02552,677.37138" id="path2998" style="fill:#949497;fill-opacity:1;fill-rule:nonzero;stroke:none"/><path d="M 653.26927,680.94638 L 652.60927,680.94638 L 652.60927,676.09513 L 652.59677,676.09513 C 652.40427,676.79138 651.32302,679.42263 650.68302,680.94638 L 650.41677,680.94638 C 649.82427,679.42263 648.83802,676.87888 648.65427,676.09513 L 648.63927,676.09513 L 648.63927,680.94638 L 648.09427,680.94638 L 648.09427,674.98888 L 648.80302,674.98888 C 649.41552,676.57138 650.02927,678.16263 650.63552,679.83888 C 651.30927,678.16263 651.98302,676.57138 652.64927,674.98888 L 653.26927,674.98888 L 653.26927,680.94638" id="path3000" style="fill:#949497;fill-opacity:1;fill-rule:nonzero;stroke:none"/><path d="M 654.65177,675.80513 C 654.95177,675.80513 655.03927,675.51638 655.03927,675.28638 C 655.03927,675.07388 654.89677,674.83513 654.65177,674.83513 C 654.40677,674.83513 654.26427,675.07388 654.26427,675.28638 C 654.26427,675.51638 654.35177,675.80513 654.65177,675.80513 z M 654.34552,676.69013 L 654.34552,680.94538 L 654.95739,680.94538 L 654.95739,676.69013 L 654.34552,676.69013 z" id="path3002" style="fill:#949497;fill-opacity:1;fill-rule:nonzero;stroke:none"/><path d="M 656.57052,677.21888 C 656.89177,676.79138 657.38177,676.58888 657.73552,676.58888 C 658.51802,676.58888 658.94052,677.13263 658.94052,678.20513 L 658.94052,680.94638 L 658.32802,680.94638 L 658.32802,678.36638 C 658.32802,677.56763 658.05552,677.15013 657.50302,677.15013 C 657.02052,677.15013 656.57802,677.56763 656.57802,678.38513 L 656.57802,680.94638 L 655.96552,680.94638 L 655.96552,676.69013 L 656.57052,676.69013 L 656.57052,677.21888" id="path3004" style="fill:#949497;fill-opacity:1;fill-rule:nonzero;stroke:none"/><path d="M 660.39052,678.35763 C 660.41052,677.81388 660.66927,677.13263 661.32302,677.13263 C 661.86052,677.13263 662.08552,677.69513 662.08552,678.35763 L 660.39052,678.35763 z M 660.86052,676.07763 L 661.97552,675.12513 C 662.11177,675.00638 662.25427,674.88638 662.25427,674.71638 C 662.25427,674.61513 662.15427,674.45263 662.07177,674.45263 C 661.92052,674.45263 661.78552,674.58888 661.66427,674.71638 L 660.63552,675.79763 L 660.86052,676.07763 z M 662.64427,678.86888 C 662.71177,677.75388 662.36427,676.58888 661.32927,676.58888 C 660.55927,676.58888 659.71552,677.26138 659.71552,678.73263 C 659.71552,680.23013 660.41677,681.04763 661.47927,681.04763 C 661.83302,681.04763 662.25427,680.86888 662.60927,680.55513 L 662.43302,680.13638 C 662.19427,680.35763 661.81302,680.50263 661.49927,680.50263 C 660.82677,680.50263 660.34177,679.72138 660.34927,678.86888 L 662.64427,678.86888" id="path3006" style="fill:#949497;fill-opacity:1;fill-rule:nonzero;stroke:none"/><path d="M 663.99802,677.21888 L 664.24302,676.89388 C 664.38552,676.71638 664.61052,676.58888 664.75427,676.58888 C 664.90302,676.58888 665.12802,676.72513 665.31802,677.00513 L 665.03927,677.49888 C 664.89052,677.40638 664.74052,677.32138 664.58302,677.32138 C 664.26927,677.32138 664.01177,677.71263 664.01177,678.65638 L 664.01177,680.94638 L 663.39927,680.94638 L 663.39927,676.69013 L 663.99802,676.69013 L 663.99802,677.21888" id="path3008" style="fill:#949497;fill-opacity:1;fill-rule:nonzero;stroke:none"/><path d="M 667.57177,678.45263 C 667.65302,679.77888 667.09552,680.45263 666.65927,680.45263 C 666.41427,680.45263 666.16927,680.17013 666.16927,679.72763 C 666.16927,679.19138 666.44927,678.86888 666.98677,678.66513 L 667.57177,678.45263 z M 667.57177,680.22138 C 667.57177,680.49513 667.58552,680.76638 667.66677,680.94638 L 668.33427,680.94638 C 668.21927,680.63888 668.18552,680.23013 668.18552,679.90763 L 668.18552,678.03513 C 668.18552,676.79138 667.43552,676.58888 666.92552,676.58888 C 666.44927,676.58888 666.10177,676.75888 665.76052,677.16763 L 665.99927,677.55013 C 666.24427,677.29388 666.49677,677.09013 666.89052,677.09013 C 667.22427,677.09013 667.54552,677.42263 667.57177,677.94138 L 666.74802,678.26513 C 666.03927,678.52888 665.53677,678.99638 665.53677,679.73638 C 665.53677,680.53763 665.93052,681.04763 666.50302,681.04763 C 666.81552,681.04763 667.11552,680.78388 667.35302,680.48513 L 667.57177,680.22138" id="path3010" style="fill:#949497;fill-opacity:1;fill-rule:nonzero;stroke:none"/><path d="M 669.78552,680.94513 L 669.78552,674.69088 L 669.17242,674.69088 L 669.17242,680.94513 L 669.78552,680.94513 z" id="path3012" style="fill:#949497;fill-opacity:1;fill-rule:nonzero;stroke:none"/><path d="M 671.23427,678.35763 C 671.25427,677.81388 671.51427,677.13263 672.16677,677.13263 C 672.70427,677.13263 672.92927,677.69513 672.92927,678.35763 L 671.23427,678.35763 z M 673.48677,678.86888 C 673.55677,677.75388 673.20927,676.58888 672.17427,676.58888 C 671.40427,676.58888 670.55927,677.26138 670.55927,678.73263 C 670.55927,680.23013 671.26177,681.04763 672.32302,681.04763 C 672.67802,681.04763 673.09927,680.86888 673.45302,680.55513 L 673.27677,680.13638 C 673.03927,680.35763 672.65677,680.50263 672.34427,680.50263 C 671.66927,680.50263 671.18677,679.72138 671.19302,678.86888 L 673.48677,678.86888" id="path3014" style="fill:#949497;fill-opacity:1;fill-rule:nonzero;stroke:none"/><path d="M 675.84302,677.37138 C 675.59802,677.16763 675.39927,677.09888 675.21677,677.09888 C 674.99927,677.09888 674.71927,677.22763 674.71927,677.58388 C 674.71927,677.94138 675.03302,678.12013 675.42177,678.48638 C 675.85677,678.90263 676.14302,679.25138 676.14302,679.84763 C 676.14302,680.56138 675.57802,681.04763 674.95052,681.04763 C 674.56177,681.04763 674.12677,680.83388 673.90302,680.51138 L 674.20302,680.07638 C 674.40052,680.30763 674.66552,680.50263 674.93802,680.50263 C 675.22427,680.50263 675.51552,680.31513 675.51552,679.89888 C 675.51552,679.40513 675.16177,679.19138 674.84302,678.90263 C 674.45552,678.55388 674.11427,678.26513 674.11427,677.68638 C 674.11427,677.01388 674.64552,676.58888 675.24302,676.58888 C 675.57802,676.58888 675.90427,676.75888 676.08052,676.98013 L 675.84302,677.37138" id="path3016" style="fill:#949497;fill-opacity:1;fill-rule:nonzero;stroke:none"/></g></g></svg>