<?xml version="1.0" encoding="UTF-8"?><svg xmlns="http://www.w3.org/2000/svg" xmlns:xlink="http://www.w3.org/1999/xlink" version="1.1" id="Ebene_1" x="0px" y="0px" width="211.133px" height="42.023px" viewBox="0 0 211.133 42.023" xml:space="preserve"><g><g><rect fill="#FFCC00" width="211.133" height="42.023"/><path fill="#FF0000" d="M200.19,16.159c0,0,1.589-7.288,1.612-7.356h-10.104c0,0.045-2.089,9.673-2.089,9.718 c0.022,0,2.589,0,2.589,0c0.022,0,1.589-7.266,1.589-7.266h4.904c0,0-1.544,7.288-1.589,7.334c0.045,0,7.47,0,7.47,0l-0.977,4.495 c0,0-7.401,0-7.425,0c0,0.046-1.498,6.858-1.498,6.858s-5.563,0-5.608,0c0,0.022-0.5,2.451-0.522,2.475h8.265 c0-0.023,1.476-6.88,1.476-6.88s7.38,0,7.426,0c0-0.023,1.952-9.332,1.952-9.378H200.19z"/><polygon fill="#FFFFFF" points="185.895,32.417 187.348,25.537 93.082,25.537 91.628,32.417 "/><path d="M102.556,24.811c1.181,0,2.361-0.296,3.27-0.613l-0.658,2.93c-0.728,0.295-1.931,0.59-3.247,0.59 c-3.588,0-6.563-2.066-6.563-6.335c0-5.404,3.725-9.4,8.9-9.4c1.34,0,2.68,0.317,3.611,0.727l-0.613,2.929 c-0.999-0.363-2.066-0.636-3.088-0.658c-3.633-0.068-5.246,3.043-5.359,5.927C98.719,23.448,100.104,24.811,102.556,24.811 L102.556,24.811z M113.137,15.955c-1.499,0-3.02,0.341-3.52,0.5l-0.545,2.61c0.727-0.204,2.156-0.59,3.429-0.59 c1.702,0,2.315,0.521,2.315,1.407c0,0.159,0,0.341-0.045,0.522l-0.045,0.227c-0.818-0.09-1.59-0.158-1.953-0.158 c-3.225,0-5.813,1.249-5.813,4.2c0,1.931,1.498,3.089,3.451,3.089c1.385,0,2.565-0.546,3.338-1.454l-0.25,1.182h2.884l1.407-6.449 c0.113-0.477,0.16-0.977,0.16-1.453C117.952,17.657,116.883,15.955,113.137,15.955L113.137,15.955z M110.003,24.242 c0-1.135,0.999-1.771,2.657-1.771c0.317,0,1.021,0.022,1.657,0.113l-0.136,0.636c-0.387,1.34-1.477,2.248-2.771,2.248 C110.481,25.469,110.003,25.015,110.003,24.242L110.003,24.242z M118.428,27.49h3.224l1.181-5.313 c0.545-2.498,1.658-3.293,3.338-3.293c0.408,0,0.771,0.068,1.09,0.159l0.613-2.952c-0.272-0.068-0.568-0.113-0.932-0.113 c-1.407,0-2.588,0.727-3.451,1.976l0.387-1.726h-3.02L118.428,27.49z M131.938,20.042l1.067-5.018h1.362 c1.498,0,2.225,0.612,2.225,2.043c0,1.84-1.158,2.975-3.292,2.975H131.938z M131.37,22.835h1.431c4.564,0,7.107-2.248,7.107-5.994 c0-2.793-1.976-4.609-5.358-4.609h-4.224l-3.224,15.259h3.27L131.37,22.835z M145.016,25.219c-1.294,0-2.315-1.021-1.839-3.36 c0.478-2.339,1.612-3.36,2.907-3.36c1.293,0,2.315,1.044,1.816,3.36C147.423,24.174,146.311,25.219,145.016,25.219L145.016,25.219 z M144.721,27.83c3.564,0,5.973-2.588,6.518-5.972c0.567-3.383-1.318-5.972-4.883-5.972s-5.972,2.589-6.517,5.972 C139.272,25.242,141.157,27.83,144.721,27.83L144.721,27.83z M156.984,24.174c0,0.909-1.113,1.068-2.044,1.068 c-1.181,0-2.497-0.318-3.201-0.545l-0.545,2.543c1.021,0.25,2.315,0.454,3.542,0.454c2.906,0,5.268-1.09,5.268-3.815 c0-3.519-4.223-2.906-4.223-4.473c0-0.704,0.681-0.954,1.748-0.954c1.021,0,2.452,0.409,2.929,0.545l0.545-2.565 c-0.977-0.272-2.134-0.432-3.179-0.432c-3.156,0-5.063,1.408-5.063,3.747C152.761,23.176,156.984,22.607,156.984,24.174 L156.984,24.174z M169.222,18.702l0.522-2.475h-3.475l0.682-3.134l-3.383,0.749l-2.112,9.628c-0.59,2.725,0.908,4.224,3.633,4.224 c0.568,0,1.521-0.114,2.203-0.341l0.545-2.476c-0.545,0.137-1.227,0.273-1.817,0.273c-0.931,0-1.589-0.318-1.361-1.454 l1.066-4.995H169.222z M175.035,15.955c-1.498,0-3.02,0.341-3.52,0.5l-0.545,2.61c0.727-0.204,2.157-0.59,3.429-0.59 c1.703,0,2.316,0.521,2.316,1.407c0,0.159,0,0.341-0.045,0.522l-0.046,0.227c-0.817-0.09-1.59-0.158-1.953-0.158 c-3.224,0-5.813,1.249-5.813,4.2c0,1.931,1.499,3.089,3.451,3.089c1.385,0,2.565-0.546,3.338-1.454l-0.25,1.182h2.884l1.408-6.449 c0.113-0.477,0.158-0.977,0.158-1.453C179.848,17.657,178.782,15.955,175.035,15.955L175.035,15.955z M171.901,24.242 c0-1.135,1-1.771,2.657-1.771c0.317,0,1.021,0.022,1.657,0.113l-0.136,0.636c-0.386,1.34-1.477,2.248-2.771,2.248 C172.378,25.469,171.901,25.015,171.901,24.242L171.901,24.242z M183.664,11.459l-3.338,16.031h3.225l3.337-16.031H183.664z"/></g><g><path fill="#FFFFFF" d="M29.734,15.853c-0.692-0.506-1.458-0.909-2.283-1.192c-0.879-0.303-1.822-0.469-2.803-0.469 c-1.068,0-2.093,0.195-3.036,0.549c-0.04,0.018-0.083,0.037-0.126,0.051c0.445-0.268,0.919-0.5,1.416-0.686 c0.945-0.354,1.967-0.549,3.033-0.549c0.981,0,1.926,0.164,2.805,0.467c0.578,0.199,1.129,0.459,1.645,0.768L29.734,15.853 L29.734,15.853z"/><path fill="#FFFFFF" d="M18.291,28.653c-0.618-0.672-1.129-1.443-1.509-2.287c-0.005-0.01-0.009-0.018-0.013-0.027 c-2.718-1.656-5.874-3.664-8.184-5.236C8.116,20.78,7.68,20.478,7.292,20.2c0,0,0.001,1.533,0.002,1.535 C10.474,23.903,15.256,26.892,18.291,28.653L18.291,28.653z"/><path fill="#FFFFFF" d="M17.735,22.821c0,3.814,3.096,6.91,6.913,6.91c1.314,0,2.543-0.369,3.592-1.004 c0.07-0.045,0.142-0.09,0.214-0.139c-0.784,0.307-1.625,0.506-2.519,0.506c-3.817,0-6.912-3.094-6.912-6.91 c0-2.463,1.285-4.623,3.225-5.848C19.613,17.313,17.735,19.847,17.735,22.821L17.735,22.821z"/><path fill="#FFFFFF" d="M39.066,11.217c-0.029,0.383-0.096,1.176-0.096,1.176l8.566,3.862c-2.48,5.205-6.766,11.045-12.15,13.984 c0.35-0.156,0.697-0.324,1.041-0.508c5.5-2.887,9.879-8.826,12.398-14.115L39.066,11.217L39.066,11.217z"/><path d="M47.537,16.255l-9.76-4.401c-0.312,3.96-1.004,7.765-2.708,11.153c-0.671,1.451-1.917,3.801-3.419,4.92 c1.383-2,1.625-3.646,1.625-5.105c0-2.668-1.215-5.057-3.119-6.639c-0.793-0.658-1.707-1.181-2.705-1.522 c-0.879-0.303-1.822-0.469-2.803-0.469c-1.068,0-2.093,0.195-3.036,0.549c-0.04,0.018-0.083,0.037-0.126,0.051 c-3.201,1.265-5.468,4.382-5.468,8.03c0,1.254,0.269,2.441,0.751,3.518c0.004,0.01,0.008,0.018,0.013,0.027 c0.38,0.844,0.891,1.615,1.509,2.287c-3.035-1.762-7.817-4.75-10.997-6.918c-0.001-0.002-0.002-0.002-0.002-0.002 c-0.468-0.32-0.901-0.619-1.289-0.896v2.229c1.955,1.375,3.948,2.666,5.978,3.873c3.268,1.906,6.523,3.865,10.17,4.861 c3.371,0.975,7.489,0.756,10.699-0.434c0.781-0.27,1.543-0.605,2.285-0.994c0.084-0.047,0.168-0.09,0.25-0.133 C40.771,27.3,45.056,21.46,47.537,16.255L47.537,16.255z M22.248,16.337c0.033-0.012,0.068-0.025,0.102-0.037 c0.718-0.252,1.492-0.391,2.299-0.391c3.816,0,6.911,3.094,6.911,6.912c0,2.41-1.234,4.531-3.105,5.768 c-0.072,0.049-0.144,0.094-0.214,0.139c-1.049,0.635-2.277,1.004-3.592,1.004c-3.817,0-6.913-3.096-6.913-6.91 C17.735,19.847,19.613,17.313,22.248,16.337L22.248,16.337z"/></g></g></svg>