<?xml version="1.0" encoding="UTF-8" standalone="no"?><svg xmlns:dc="http://purl.org/dc/elements/1.1/" xmlns:cc="http://creativecommons.org/ns#" xmlns:rdf="http://www.w3.org/1999/02/22-rdf-syntax-ns#" xmlns:svg="http://www.w3.org/2000/svg" xmlns="http://www.w3.org/2000/svg" xmlns:sodipodi="http://sodipodi.sourceforge.net/DTD/sodipodi-0.dtd" xmlns:inkscape="http://www.inkscape.org/namespaces/inkscape" viewBox="0 0 619.3 175.8" id="svg2" version="1.1" inkscape:version="0.91 r13725" sodipodi:docname="logo_crr_sion_with_claim_rgb_bigger.svg" width="619.29999" height="175.8"><metadata id="metadata84"></metadata><defs id="defs82"/><path d="m 123.3,164.5 -6.7,0 c -26.5,0 -36.7,-4.9 -36.7,-24.5 0,-4.9 4.1,-9 9,-9 4.9,0 9,4.1 9,9 0,9.8 3.9,13.3 21,13.3 l 4.9,0 c 13.9,0 22.8,-1.4 22.8,-12.2 l 0,-11.2 c 0,-8.4 -5.3,-11.6 -18.1,-11.6 l -15.7,0 c -21,0 -31.4,-9.4 -31.4,-24.1 l 0,-9.2 c 0,-12.8 9.6,-23.2 40,-23.2 l 1.8,0 c 27.7,0 37.7,3.1 37.7,22.6 0,4.9 -4.1,9 -9,9 -4.9,0 -9,-4.1 -9,-9 0,-9.4 -1.8,-11.4 -19,-11.4 l -0.8,0 C 102.7,73 99,76.5 99,85 l 0,9.6 c 0,6.7 5.5,10 18.1,10 l 15.9,0 c 21.8,0 31.2,8.4 31.2,23.2 l 0,3.6 c 7.3,-12.8 11.6,-27.7 11.6,-43.5 C 175.8,39.4 136.4,0 87.9,0 39.4,0 0,39.4 0,87.9 c 0,48.5 39.4,87.9 87.9,87.9 15.8,0 30.6,-4.2 43.3,-11.4 -2.5,0 -5.2,0.1 -7.9,0.1 z" id="path4" inkscape:connector-curvature="0" style="fill:#008ea6"/><path d="m 243.8,121.9 -2.7,0 c -13.6,0 -26.4,-0.5 -26.4,-18.2 l 0,-20.5 c 0,-18.6 14.3,-19.3 28.5,-19.3 l 0.6,0 c 16.3,0 23.5,3.5 23.5,11.4 0,3.2 -1.5,5.8 -4.7,5.8 l -5.2,0 C 248.5,81.1 255,72 244.3,72 l -2.6,0 c -10.5,0 -10.6,1.3 -10.6,8.7 l 0,23 c 0,9 1.5,10.1 10.9,10.1 l 2.3,0 c 10.7,0 4.3,-9.1 13.1,-9.1 l 5.2,0 c 3.2,0 4.7,2.5 4.7,5.8 0,7.9 -7.1,11.4 -23.5,11.4 z" id="path6" inkscape:connector-curvature="0" style="fill:#868686"/><path d="m 311.7,72.4 -4.9,0 c -9.2,0 -10.1,0.5 -10.1,11.3 l 0,31.3 c 0,3.2 -2.5,5.8 -5.8,5.8 l -5.3,0 c -3.2,0 -5.8,-2.5 -5.8,-5.8 l 0,-31.2 c 0,-19 11.5,-19.9 26.8,-19.9 l 4.9,0 c 2.4,0 4.4,2 4.4,4.3 0.1,2.2 -1.9,4.2 -4.2,4.2 z" id="path8" inkscape:connector-curvature="0" style="fill:#868686"/><path d="m 359.8,72.4 -4.9,0 c -9.2,0 -10.1,0.5 -10.1,11.3 l 0,31.3 c 0,3.2 -2.5,5.8 -5.8,5.8 l -5.3,0 c -3.2,0 -5.8,-2.5 -5.8,-5.8 l 0,-31.2 c 0,-19 11.5,-19.9 26.8,-19.9 l 4.9,0 c 2.4,0 4.4,2 4.4,4.3 0.1,2.2 -1.9,4.2 -4.2,4.2 z" id="path10" inkscape:connector-curvature="0" style="fill:#868686"/><path d="m 419.1,121.9 -3.9,0 c -18.4,0 -23.5,-4.6 -23.5,-13 0,-3.2 1.5,-5.8 4.6,-5.8 l 5.3,0 c 8.9,0 1,10.7 14.4,10.7 l 3.3,0 c 7.4,0 10,-1.3 10,-6.9 l 0,-3 c 0,-4.7 -0.1,-6.6 -7.4,-6.6 l -8.8,0 c -11.9,0 -20.6,-5.3 -20.6,-13.6 l 0,-6.8 c 0,-7.9 6.4,-13.1 25.4,-13.1 l 1.3,0 c 19.2,0 23.5,5.3 23.5,11.4 0,3.1 -1.5,5.8 -4.7,5.8 l -5.2,0 c -8.9,0 -2.4,-9.1 -13.1,-9.1 l -1.8,0 c -8.1,0 -9.6,1.3 -9.6,6.8 l 0,3.2 c 0,3.8 0.2,5.6 7.4,5.6 l 9,0 c 12.3,0 20.5,4.7 20.5,13.1 l 0,5.3 c -0.1,13.5 -9.1,16 -26.1,16 z" id="path12" inkscape:connector-curvature="0" style="fill:#008ea6"/><path d="m 470.4,58.9 -5.3,0 c -3.1,0 -5.8,-2.6 -5.8,-5.8 l 0,-5.3 c 0,-3.1 2.6,-5.8 5.8,-5.8 l 5.3,0 c 3.1,0 5.8,2.6 5.8,5.8 l 0,5.3 c 0,3.2 -2.7,5.8 -5.8,5.8 z m 0,61.8 -5.3,0 c -3.2,0 -5.8,-2.5 -5.8,-5.8 l 0,-44.1 c 0,-3.2 2.5,-5.8 5.8,-5.8 l 5.3,0 c 3.2,0 5.8,2.5 5.8,5.8 l 0,44.2 c 0,3.2 -2.6,5.7 -5.8,5.7 z" id="path14" inkscape:connector-curvature="0" style="fill:#008ea6"/><path d="m 520.9,121.9 c -15.5,0 -28.5,-1 -28.5,-18.8 l 0,-19.3 c 0,-19 13.2,-19.9 28.5,-19.9 15.3,0 28.5,0.9 28.5,19.9 l 0,19.3 c 0.1,17.7 -13,18.8 -28.5,18.8 z m 12.2,-38.3 c 0,-11 -1.7,-11.4 -12.2,-11.4 -10.5,0 -12.2,0.3 -12.2,11.4 l 0,19.3 c 0,10 2,10.5 12.2,10.5 10.2,0 12.2,-0.5 12.2,-10.5 z" id="path16" inkscape:connector-curvature="0" style="fill:#008ea6"/><path d="m 613.5,120.7 -5.3,0 c -3.2,0 -5.8,-2.5 -5.8,-5.8 l 0,-31.3 c 0,-10.8 -0.9,-11.4 -10,-11.4 -9.2,0 -10.1,0.6 -10.1,11.4 l 0,31.3 c 0,3.2 -2.5,5.8 -5.8,5.8 l -5.3,0 c -3.2,0 -5.8,-2.5 -5.8,-5.8 l 0,-31.2 c 0,-19 11.5,-19.9 26.8,-19.9 15.3,0 26.9,0.9 26.9,19.9 l 0,31.2 c 0.1,3.3 -2.4,5.8 -5.6,5.8 z" id="path18" inkscape:connector-curvature="0" style="fill:#008ea6"/><g id="g20" style="fill:#868686" transform="translate(-16.9,-23.7)"><path d="m 237.8,188.4 -0.6,0 c -2.9,0 -5.6,-0.1 -5.6,-3.9 l 0,-4.4 c 0,-4 3,-4.1 6.1,-4.1 l 0.1,0 c 3.5,0 5,0.7 5,2.4 0,0.7 -0.3,1.2 -1,1.2 l -1.1,0 c -1.9,0 -0.5,-1.9 -2.8,-1.9 l -0.6,0 c -2.2,0 -2.3,0.3 -2.3,1.9 l 0,4.9 c 0,1.9 0.3,2.2 2.3,2.2 l 0.5,0 c 2.3,0 0.9,-1.9 2.8,-1.9 l 1.1,0 c 0.7,0 1,0.5 1,1.2 0.1,1.7 -1.4,2.4 -4.9,2.4 z" id="path22" inkscape:connector-curvature="0"/><path d="m 247.7,188.2 -1.1,0 c -0.7,0 -1.2,-0.5 -1.2,-1.2 l 0,-14.6 c 0,-0.7 0.5,-1.2 1.2,-1.2 l 1.1,0 c 0.7,0 1.2,0.5 1.2,1.2 l 0,14.6 c 0,0.6 -0.5,1.2 -1.2,1.2 z" id="path24" inkscape:connector-curvature="0"/><path d="m 255,175 -1.1,0 c -0.7,0 -1.2,-0.6 -1.2,-1.2 l 0,-1.1 c 0,-0.7 0.6,-1.2 1.2,-1.2 l 1.1,0 c 0.7,0 1.2,0.6 1.2,1.2 l 0,1.1 c 0,0.6 -0.6,1.2 -1.2,1.2 z m 0,13.2 -1.1,0 c -0.7,0 -1.2,-0.5 -1.2,-1.2 l 0,-9.4 c 0,-0.7 0.5,-1.2 1.2,-1.2 l 1.1,0 c 0.7,0 1.2,0.5 1.2,1.2 l 0,9.4 c 0,0.6 -0.5,1.2 -1.2,1.2 z" id="path26" inkscape:connector-curvature="0"/><path d="m 270.1,188.2 -1.1,0 c -0.7,0 -1.2,-0.5 -1.2,-1.2 l 0,-6.7 c 0,-2.3 -0.2,-2.4 -2.1,-2.4 -2,0 -2.2,0.1 -2.2,2.4 l 0,6.7 c 0,0.7 -0.5,1.2 -1.2,1.2 l -1.1,0 c -0.7,0 -1.2,-0.5 -1.2,-1.2 l 0,-6.7 c 0,-4.1 2.5,-4.2 5.7,-4.2 3.2,0 5.7,0.2 5.7,4.2 l 0,6.7 c 0,0.6 -0.6,1.2 -1.3,1.2 z" id="path28" inkscape:connector-curvature="0"/><path d="m 277.4,175 -1.1,0 c -0.7,0 -1.2,-0.6 -1.2,-1.2 l 0,-1.1 c 0,-0.7 0.6,-1.2 1.2,-1.2 l 1.1,0 c 0.7,0 1.2,0.6 1.2,1.2 l 0,1.1 c 0,0.6 -0.6,1.2 -1.2,1.2 z m 0,13.2 -1.1,0 c -0.7,0 -1.2,-0.5 -1.2,-1.2 l 0,-9.4 c 0,-0.7 0.5,-1.2 1.2,-1.2 l 1.1,0 c 0.7,0 1.2,0.5 1.2,1.2 l 0,9.4 c 0,0.6 -0.5,1.2 -1.2,1.2 z" id="path30" inkscape:connector-curvature="0"/><path d="m 292.8,193.3 -1.1,0 c -0.7,0 -1.2,-0.5 -1.2,-1.2 l 0,-5.1 c -0.4,1.1 -1.5,1.4 -3.9,1.4 -4.1,0 -4.8,-1.4 -4.8,-4 l 0,-3.9 c 0,-4.1 3.5,-4.5 6.2,-4.5 2.9,0 6,0.3 6,4.5 l 0,11.6 c 0,0.7 -0.5,1.2 -1.2,1.2 z m -2.2,-13.6 c 0,-1.4 -0.4,-1.8 -2.6,-1.8 -2.2,0 -2.5,0.4 -2.5,1.8 l 0,5 c 0,1.5 0.3,1.8 2.6,1.8 2.2,0 2.6,-0.6 2.6,-1.8 l 0,-5 z" id="path32" inkscape:connector-curvature="0"/><path d="m 303.4,188.4 c -3.3,0 -5.7,-0.2 -5.7,-4.2 l 0,-6.7 c 0,-0.7 0.5,-1.2 1.2,-1.2 l 1.1,0 c 0.7,0 1.2,0.5 1.2,1.2 l 0,6.7 c 0,2.3 0.2,2.4 2.1,2.4 2,0 2.2,-0.1 2.2,-2.4 l 0,-6.7 c 0,-0.7 0.5,-1.2 1.2,-1.2 l 1.1,0 c 0.7,0 1.2,0.5 1.2,1.2 l 0,6.7 c 0.1,4 -2.3,4.2 -5.6,4.2 z" id="path34" inkscape:connector-curvature="0"/><path d="m 323,182.8 -7.2,0 0,1.9 c 0,1.5 0.3,2 2.5,2 l 0.6,0 c 2.3,0 0.9,-1.9 2.8,-1.9 l 1.1,0 c 0.7,0 1,0.5 1,1.2 0,1.7 -1.5,2.4 -5,2.4 l -0.6,0 c -2.9,0 -5.8,-0.5 -5.8,-3.2 l 0,-5.1 c 0,-3 2.3,-4.1 5.9,-4.1 3.3,0 5.7,0.9 5.7,4.1 l 0,1.7 c -0.1,0.8 -0.3,1 -1,1 z m -2.5,-3.1 c 0,-1.3 -0.4,-1.9 -2.3,-1.9 -1.8,0 -2.4,0.3 -2.4,1.9 l 0,1.3 4.1,0 c 0.5,0 0.7,-0.1 0.7,-0.6 l 0,-0.7 z" id="path36" inkscape:connector-curvature="0"/><path d="m 341.3,177.9 -1.1,0 c -2,0 -2.2,0.1 -2.2,2.4 l 0,6.7 c 0,0.7 -0.5,1.2 -1.2,1.2 l -1.1,0 c -0.7,0 -1.2,-0.5 -1.2,-1.2 l 0,-6.7 c 0,-4.1 2.5,-4.2 5.7,-4.2 l 1.1,0 c 0.5,0 0.9,0.4 0.9,0.9 0,0.5 -0.4,0.9 -0.9,0.9 z" id="path38" inkscape:connector-curvature="0"/><path d="m 350.2,188.4 c -3.3,0 -6.1,-0.2 -6.1,-4 l 0,-4.1 c 0,-4.1 2.8,-4.2 6.1,-4.2 3.3,0 6.1,0.2 6.1,4.2 l 0,4.1 c 0,3.8 -2.8,4 -6.1,4 z m 2.6,-8.1 c 0,-2.4 -0.4,-2.4 -2.6,-2.4 -2.2,0 -2.6,0.1 -2.6,2.4 l 0,4.1 c 0,2.1 0.4,2.2 2.6,2.2 2.2,0 2.6,-0.1 2.6,-2.2 z" id="path40" inkscape:connector-curvature="0"/><path d="m 377.2,188.2 -1.1,0 c -0.7,0 -1.2,-0.5 -1.2,-1.2 l 0,-6.7 c 0,-2.3 -0.1,-2.4 -2,-2.4 -2,0 -2.1,0.1 -2.1,2.4 l 0,6.7 c 0,0.7 -0.5,1.2 -1.2,1.2 l -1.1,0 c -0.7,0 -1.2,-0.5 -1.2,-1.2 l 0,-6.7 c 0,-2.3 -0.1,-2.4 -2,-2.4 -2,0 -2.1,0.1 -2.1,2.4 l 0,6.7 c 0,0.7 -0.5,1.2 -1.2,1.2 l -1.1,0 c -0.7,0 -1.2,-0.5 -1.2,-1.2 l 0,-6.7 c 0,-4.1 2.4,-4.2 5.6,-4.2 1.5,0 2.9,0 3.9,0.5 1,-0.4 2.3,-0.5 3.8,-0.5 3.3,0 5.6,0.2 5.6,4.2 l 0,6.7 c -0.2,0.6 -0.7,1.2 -1.4,1.2 z" id="path42" inkscape:connector-curvature="0"/><path d="m 393.2,188.2 -2.3,0 c -0.8,0 -1.4,-0.6 -1.4,-1.1 -0.2,1.1 -1.7,1.4 -3.5,1.4 -3.1,0 -4.5,-0.5 -4.5,-3.7 0,-2.6 0.8,-3.5 4.3,-3.5 l 3.6,0 0,-1.8 c 0,-1.3 -0.4,-1.7 -1.9,-1.7 l -0.6,0 c -2.3,0 -0.9,1.9 -2.8,1.9 l -1.1,0 c -0.7,0 -1,-0.5 -1,-1.2 0,-1.8 1.7,-2.4 5.3,-2.4 l 1.1,0 c 3.7,0 4.5,1.1 4.5,3.7 l 0,6.1 c 0,0.4 0,0.8 0.6,0.9 0.3,0.1 0.6,0.4 0.6,0.7 -0.2,0.4 -0.6,0.7 -0.9,0.7 z m -3.9,-5.3 -2.7,0 c -1.6,0 -1.8,0.5 -1.8,1.9 0,1.3 0.5,1.8 1.9,1.8 l 0.7,0 c 1.4,0 1.9,-0.2 1.9,-1 z" id="path44" inkscape:connector-curvature="0"/><path d="m 406.5,188.2 -1.1,0 c -0.7,0 -1.2,-0.5 -1.2,-1.2 l 0,-6.7 c 0,-2.3 -0.2,-2.4 -2.1,-2.4 -2,0 -2.2,0.1 -2.2,2.4 l 0,6.7 c 0,0.7 -0.5,1.2 -1.2,1.2 l -1.1,0 c -0.7,0 -1.2,-0.5 -1.2,-1.2 l 0,-6.7 c 0,-4.1 2.5,-4.2 5.7,-4.2 3.2,0 5.7,0.2 5.7,4.2 l 0,6.7 c -0.1,0.6 -0.6,1.2 -1.3,1.2 z" id="path46" inkscape:connector-curvature="0"/><path d="m 417.1,188.4 -0.6,0 c -2.6,0 -5.6,-0.1 -5.6,-4 l 0,-3.9 c 0,-2.6 0.6,-4.5 4.8,-4.5 2.4,0 3.4,0.3 3.9,1.4 l 0,-5.1 c 0,-0.7 0.5,-1.2 1.2,-1.2 l 1.1,0 c 0.7,0 1.2,0.5 1.2,1.2 l 0,11.7 c 0,4.1 -3.1,4.4 -6,4.4 z m 2.5,-8.6 c 0,-1.2 -0.4,-1.8 -2.6,-1.8 -2.3,0 -2.6,0.2 -2.6,1.8 l 0,5 c 0,1.4 0.4,1.8 2.5,1.8 2.1,0 2.6,-0.4 2.6,-1.8 l 0,-5 z" id="path48" inkscape:connector-curvature="0"/><path d="m 436.9,182.8 -7.2,0 0,1.9 c 0,1.5 0.3,2 2.5,2 l 0.6,0 c 2.3,0 0.9,-1.9 2.8,-1.9 l 1.1,0 c 0.7,0 1,0.5 1,1.2 0,1.7 -1.5,2.4 -5,2.4 l -0.6,0 c -2.9,0 -5.8,-0.5 -5.8,-3.2 l 0,-5.1 c 0,-3 2.3,-4.1 5.9,-4.1 3.3,0 5.7,0.9 5.7,4.1 l 0,1.7 c 0,0.8 -0.2,1 -1,1 z m -2.4,-3.1 c 0,-1.3 -0.4,-1.9 -2.3,-1.9 -1.8,0 -2.4,0.3 -2.4,1.9 l 0,1.3 4,0 c 0.5,0 0.7,-0.1 0.7,-0.6 z" id="path50" inkscape:connector-curvature="0"/><path d="m 454.3,188.4 -0.6,0 c -2.6,0 -5.6,-0.1 -5.6,-4 l 0,-3.9 c 0,-2.6 0.6,-4.5 4.8,-4.5 2.4,0 3.4,0.3 3.9,1.4 l 0,-5.1 c 0,-0.7 0.5,-1.2 1.2,-1.2 l 1.1,0 c 0.7,0 1.2,0.5 1.2,1.2 l 0,11.7 c 0,4.1 -3.1,4.4 -6,4.4 z m 2.5,-8.6 c 0,-1.2 -0.4,-1.8 -2.6,-1.8 -2.3,0 -2.6,0.2 -2.6,1.8 l 0,5 c 0,1.4 0.4,1.8 2.5,1.8 2.2,0 2.6,-0.4 2.6,-1.8 l 0,-5 z" id="path52" inkscape:connector-curvature="0"/><path d="m 474.1,182.8 -7.2,0 0,1.9 c 0,1.5 0.3,2 2.5,2 l 0.6,0 c 2.3,0 0.9,-1.9 2.8,-1.9 l 1.1,0 c 0.7,0 1,0.5 1,1.2 0,1.7 -1.5,2.4 -5,2.4 l -0.6,0 c -2.9,0 -5.8,-0.5 -5.8,-3.2 l 0,-5.1 c 0,-3 2.3,-4.1 5.9,-4.1 3.3,0 5.7,0.9 5.7,4.1 l 0,1.7 c 0,0.8 -0.2,1 -1,1 z m -2.5,-3.1 c 0,-1.3 -0.4,-1.9 -2.3,-1.9 -1.8,0 -2.4,0.3 -2.4,1.9 l 0,1.3 4,0 c 0.5,0 0.7,-0.1 0.7,-0.6 z" id="path54" inkscape:connector-curvature="0"/><path d="m 492,177.9 -1.1,0 c -2,0 -2.2,0.1 -2.2,2.4 l 0,6.7 c 0,0.7 -0.5,1.2 -1.2,1.2 l -1.1,0 c -0.7,0 -1.2,-0.5 -1.2,-1.2 l 0,-6.7 c 0,-4.1 2.5,-4.2 5.7,-4.2 l 1.1,0 c 0.5,0 0.9,0.4 0.9,0.9 0,0.5 -0.4,0.9 -0.9,0.9 z" id="path56" inkscape:connector-curvature="0"/><path d="m 505.4,182.8 -7.2,0 0,1.9 c 0,1.5 0.3,2 2.5,2 l 0.6,0 c 2.3,0 0.9,-1.9 2.8,-1.9 l 1.1,0 c 0.7,0 1,0.5 1,1.2 0,1.7 -1.5,2.4 -5,2.4 l -0.6,0 c -2.9,0 -5.8,-0.5 -5.8,-3.2 l 0,-5.1 c 0,-3 2.3,-4.1 5.9,-4.1 3.3,0 5.7,0.9 5.7,4.1 l 0,1.7 c 0,0.8 -0.2,1 -1,1 z m -3.1,-9.4 -2.8,1.3 c -0.2,0.1 -0.7,0.3 -1,0.3 -0.5,0 -0.8,-0.4 -0.8,-0.9 0,-0.2 0,-0.4 0.2,-0.6 l 2.7,-2.1 c 0.3,-0.3 0.7,-0.5 1.1,-0.5 0.8,0 1.4,0.6 1.4,1.4 0.1,0.4 -0.3,0.9 -0.8,1.1 z m 0.7,6.3 c 0,-1.3 -0.4,-1.9 -2.3,-1.9 -1.8,0 -2.4,0.3 -2.4,1.9 l 0,1.3 4,0 c 0.5,0 0.7,-0.1 0.7,-0.6 z" id="path58" inkscape:connector-curvature="0"/><path d="m 520.6,188.2 -2.3,0 c -0.8,0 -1.3,-0.6 -1.4,-1.1 -0.2,1.1 -1.7,1.4 -3.5,1.4 -3.1,0 -4.5,-0.5 -4.5,-3.7 0,-2.6 0.8,-3.5 4.3,-3.5 l 3.6,0 0,-1.8 c 0,-1.3 -0.4,-1.7 -1.9,-1.7 l -0.6,0 c -2.3,0 -0.9,1.9 -2.8,1.9 l -1.1,0 c -0.7,0 -1,-0.5 -1,-1.2 0,-1.8 1.7,-2.4 5.3,-2.4 l 1.1,0 c 3.7,0 4.5,1.1 4.5,3.7 l 0,6.1 c 0,0.4 0,0.8 0.6,0.9 0.3,0.1 0.6,0.4 0.6,0.7 -0.1,0.4 -0.5,0.7 -0.9,0.7 z m -3.8,-5.3 -2.7,0 c -1.6,0 -1.8,0.5 -1.8,1.9 0,1.3 0.5,1.8 1.9,1.8 l 0.7,0 c 1.4,0 1.9,-0.2 1.9,-1 z" id="path60" inkscape:connector-curvature="0"/><path d="m 529.5,188.4 -0.6,0 c -2.6,0 -5.6,-0.1 -5.6,-4 l 0,-3.9 c 0,-2.6 0.6,-4.5 4.8,-4.5 2.4,0 3.4,0.3 3.9,1.4 l 0,-5.1 c 0,-0.7 0.5,-1.2 1.2,-1.2 l 1.1,0 c 0.7,0 1.2,0.5 1.2,1.2 l 0,11.7 c 0,4.1 -3.1,4.4 -6,4.4 z m 2.5,-8.6 c 0,-1.2 -0.4,-1.8 -2.6,-1.8 -2.3,0 -2.6,0.2 -2.6,1.8 l 0,5 c 0,1.4 0.4,1.8 2.5,1.8 2.1,0 2.6,-0.4 2.6,-1.8 l 0,-5 z" id="path62" inkscape:connector-curvature="0"/><path d="m 550.1,188.2 -2.3,0 c -0.8,0 -1.3,-0.6 -1.4,-1.1 -0.2,1.1 -1.7,1.4 -3.5,1.4 -3.1,0 -4.5,-0.5 -4.5,-3.7 0,-2.6 0.8,-3.5 4.3,-3.5 l 3.6,0 0,-1.8 c 0,-1.3 -0.4,-1.7 -1.9,-1.7 l -0.6,0 c -2.3,0 -0.9,1.9 -2.8,1.9 l -1.1,0 c -0.7,0 -1,-0.5 -1,-1.2 0,-1.8 1.7,-2.4 5.3,-2.4 l 1.1,0 c 3.7,0 4.5,1.1 4.5,3.7 l 0,6.1 c 0,0.4 0,0.8 0.6,0.9 0.3,0.1 0.6,0.4 0.6,0.7 -0.1,0.4 -0.5,0.7 -0.9,0.7 z m -3.8,-5.3 -2.7,0 c -1.6,0 -1.8,0.5 -1.8,1.9 0,1.3 0.5,1.8 1.9,1.8 l 0.7,0 c 1.4,0 1.9,-0.2 1.9,-1 z" id="path64" inkscape:connector-curvature="0"/><path d="m 560.6,188.4 c -2.4,0 -3.4,-0.3 -3.9,-1.4 l 0,5.1 c 0,0.7 -0.5,1.2 -1.2,1.2 l -1.1,0 c -0.7,0 -1.2,-0.5 -1.2,-1.2 l 0,-11.6 c 0,-4.1 3.1,-4.5 6,-4.5 l 0.6,0 c 2.6,0 5.6,0.1 5.6,4 l 0,3.9 c 0,2.6 -0.6,4.5 -4.8,4.5 z m 1.2,-8.7 c 0,-1.4 -0.4,-1.8 -2.5,-1.8 -2.2,0 -2.6,0.4 -2.6,1.8 l 0,5 c 0,1.2 0.4,1.8 2.6,1.8 2.3,0 2.6,-0.2 2.6,-1.8 l 0,-5 z" id="path66" inkscape:connector-curvature="0"/><path d="m 574.3,188.3 c -2.5,0 -4.9,-0.3 -4.9,-3.6 l 0,-6.6 -1.5,0 c -0.5,0 -0.9,-0.4 -0.9,-0.9 0,-0.5 0.4,-0.9 0.9,-0.9 l 1.5,0 0,-0.8 c 0,-0.9 0.3,-0.8 0.7,-1 0.4,-0.2 0.6,-0.4 0.6,-1 l 0,-0.2 c 0,-0.6 0.5,-1.1 1.1,-1.1 0.6,0 1.1,0.5 1.1,1.1 l 0,3.1 2.4,0 c 0.5,0 0.9,0.4 0.9,0.9 0,0.5 -0.4,0.9 -0.9,0.9 l -2.3,0 0,6.4 c 0,1.8 0.2,2.1 2,2.1 0.6,0 1.3,0 1.3,0.9 -0.1,0.6 -0.9,0.7 -2,0.7 z" id="path68" inkscape:connector-curvature="0"/><path d="m 589.5,188.2 -2.3,0 c -0.8,0 -1.3,-0.6 -1.4,-1.1 -0.2,1.1 -1.7,1.4 -3.5,1.4 -3.1,0 -4.5,-0.5 -4.5,-3.7 0,-2.6 0.8,-3.5 4.3,-3.5 l 3.6,0 0,-1.8 c 0,-1.3 -0.4,-1.7 -1.9,-1.7 l -0.6,0 c -2.3,0 -0.9,1.9 -2.8,1.9 l -1.1,0 c -0.7,0 -1,-0.5 -1,-1.2 0,-1.8 1.7,-2.4 5.3,-2.4 l 1.1,0 c 3.7,0 4.5,1.1 4.5,3.7 l 0,6.1 c 0,0.4 0,0.8 0.6,0.9 0.3,0.1 0.6,0.4 0.6,0.7 -0.2,0.4 -0.5,0.7 -0.9,0.7 z m -3.9,-5.3 -2.7,0 c -1.6,0 -1.8,0.5 -1.8,1.9 0,1.3 0.5,1.8 1.9,1.8 l 0.7,0 c 1.4,0 1.9,-0.2 1.9,-1 z" id="path70" inkscape:connector-curvature="0"/><path d="m 598.2,188.3 c -2.5,0 -4.9,-0.3 -4.9,-3.6 l 0,-6.6 -1.5,0 c -0.5,0 -0.9,-0.4 -0.9,-0.9 0,-0.5 0.4,-0.9 0.9,-0.9 l 1.5,0 0,-0.8 c 0,-0.9 0.3,-0.8 0.7,-1 0.4,-0.2 0.6,-0.4 0.6,-1 l 0,-0.2 c 0,-0.6 0.5,-1.1 1.1,-1.1 0.6,0 1.1,0.5 1.1,1.1 l 0,3.1 2.4,0 c 0.5,0 0.9,0.4 0.9,0.9 0,0.5 -0.4,0.9 -0.9,0.9 l -2.4,0 0,6.4 c 0,1.8 0.2,2.1 2,2.1 0.6,0 1.3,0 1.3,0.9 0.1,0.6 -0.7,0.7 -1.9,0.7 z" id="path72" inkscape:connector-curvature="0"/><path d="m 604.8,175 -1.1,0 c -0.7,0 -1.2,-0.6 -1.2,-1.2 l 0,-1.1 c 0,-0.7 0.6,-1.2 1.2,-1.2 l 1.1,0 c 0.7,0 1.2,0.6 1.2,1.2 l 0,1.1 c 0,0.6 -0.5,1.2 -1.2,1.2 z m 0,13.2 -1.1,0 c -0.7,0 -1.2,-0.5 -1.2,-1.2 l 0,-9.4 c 0,-0.7 0.5,-1.2 1.2,-1.2 l 1.1,0 c 0.7,0 1.2,0.5 1.2,1.2 l 0,9.4 c 0,0.6 -0.5,1.2 -1.2,1.2 z" id="path74" inkscape:connector-curvature="0"/><path d="m 615.4,188.4 c -3.3,0 -6.1,-0.2 -6.1,-4 l 0,-4.1 c 0,-4.1 2.8,-4.2 6.1,-4.2 3.3,0 6.1,0.2 6.1,4.2 l 0,4.1 c 0,3.8 -2.8,4 -6.1,4 z m 2.6,-8.1 c 0,-2.4 -0.4,-2.4 -2.6,-2.4 -2.2,0 -2.6,0.1 -2.6,2.4 l 0,4.1 c 0,2.1 0.4,2.2 2.6,2.2 2.2,0 2.6,-0.1 2.6,-2.2 z" id="path76" inkscape:connector-curvature="0"/><path d="m 634.9,188.2 -1.1,0 c -0.7,0 -1.2,-0.5 -1.2,-1.2 l 0,-6.7 c 0,-2.3 -0.2,-2.4 -2.1,-2.4 -2,0 -2.2,0.1 -2.2,2.4 l 0,6.7 c 0,0.7 -0.5,1.2 -1.2,1.2 l -1.1,0 c -0.7,0 -1.2,-0.5 -1.2,-1.2 l 0,-6.7 c 0,-4.1 2.5,-4.2 5.7,-4.2 3.3,0 5.7,0.2 5.7,4.2 l 0,6.7 c -0.1,0.6 -0.6,1.2 -1.3,1.2 z" id="path78" inkscape:connector-curvature="0"/></g></svg>