<?xml version="1.0" encoding="UTF-8"?><svg xmlns="http://www.w3.org/2000/svg" xmlns:xlink="http://www.w3.org/1999/xlink" version="1.1" id="Ebene_1" x="0px" y="0px" viewBox="0 0 377.16 70.29" style="enable-background:new 0 0 377.16 70.29;" xml:space="preserve"><style type="text/css">.st0{fill:#181716;}	.st1{fill:#FFED00;}</style><g><g><path class="st0" d="M18.51,2.61c0.47,0.15,0.71,0.32,0.62,0.91l-0.44,2.85c-0.06,0.29-0.24,0.44-0.53,0.44h-6.91 c-3.56,0-4.44,1.65-5.27,6.94c-0.85,5.27-0.47,6.94,3.06,6.94h3.27l1-6.24c0.03-0.29,0.21-0.5,0.5-0.5h4.21 c0.29,0,0.41,0.21,0.38,0.5l-1.29,8.12c-0.09,0.5-0.12,0.62-0.29,0.82c-0.91,1.18-4.44,2.03-8.5,2.03 c-7.68,0-9.27-2.65-7.86-11.68C1.9,4.68,4.34,2.06,11.99,2.06C14.01,2.08,17.13,2.26,18.51,2.61z"/><path class="st0" d="M32.36,8.82c0.32,0.06,0.47,0.21,0.41,0.62l-0.5,3c-0.03,0.29-0.24,0.44-0.56,0.44H28.8 c-1.26,0-1.82,0.21-2.03,1.47l-1.65,10.47c-0.06,0.32-0.24,0.47-0.53,0.47h-4.27c-0.29,0-0.41-0.15-0.35-0.47l1.88-11.86 c0.62-3.91,3.21-4.5,6.36-4.5C29.13,8.47,31.16,8.56,32.36,8.82z"/><path class="st0" d="M40.04,8.62c0.29,0,0.41,0.18,0.35,0.47l-2.47,15.74c-0.06,0.32-0.24,0.47-0.53,0.47h-4.24 c-0.29,0-0.41-0.15-0.38-0.47l2.5-15.74c0.06-0.29,0.24-0.47,0.53-0.47H40.04z M41.63,4.08c-0.29,1.71-1.53,2.71-3.38,2.71 c-1.91,0-2.85-1-2.56-2.71c0.26-1.68,1.5-2.68,3.38-2.68C40.95,1.41,41.89,2.41,41.63,4.08z"/><path class="st0" d="M56.48,8.94c0.32,0.09,0.47,0.21,0.38,0.62l-0.44,2.85c-0.06,0.32-0.24,0.47-0.56,0.47h-5 c-2.24,0-2.79,0.82-3.32,4.06c-0.5,3.27-0.24,4.09,2.03,4.09h4.97c0.35,0,0.5,0.15,0.47,0.47l-0.47,2.85 c-0.06,0.41-0.24,0.53-0.62,0.62c-1.71,0.41-4.03,0.47-5.06,0.47c-6.53,0-7.5-1.71-6.47-8.5c1.09-6.8,2.65-8.47,9.18-8.47 C52.6,8.47,54.89,8.53,56.48,8.94z"/><path class="st0" d="M65.74,2.26c0.29,0,0.41,0.18,0.38,0.47l-0.94,5.89c0.91-0.09,2.03-0.15,2.82-0.15c5.83,0,7,1.27,6.09,7.15 l-1.47,9.21c-0.06,0.32-0.24,0.47-0.53,0.47h-4.27c-0.29,0-0.38-0.15-0.32-0.47l1.21-7.62c0.62-4.09,0.44-4.33-2.21-4.33h-1.97 l-1.91,11.95c-0.03,0.32-0.21,0.47-0.5,0.47h-4.3c-0.29,0-0.41-0.15-0.35-0.47l3.5-22.1c0.03-0.29,0.21-0.47,0.5-0.47L65.74,2.26 L65.74,2.26z"/><path class="st0" d="M85.3,4.03c0.32-0.09,0.44,0.15,0.38,0.47L85,8.74h2.53c0.35,0,0.5,0.15,0.47,0.44l-0.47,2.85 c-0.06,0.32-0.26,0.47-0.59,0.47h-2.53l-1.12,7.06c-0.21,1.27,0.26,1.47,1.44,1.47h1.09c0.35,0,0.5,0.15,0.47,0.44l-0.47,3.06 c-0.09,0.38-0.29,0.53-0.62,0.59c-1.29,0.24-2.18,0.32-2.97,0.32c-2.77,0-5-0.12-4.35-4.03l1.38-8.91h-1.74 c-0.32,0-0.47-0.15-0.41-0.47l0.44-2.85c0.03-0.29,0.24-0.44,0.59-0.44h1.74l0.47-3.12c0.06-0.32,0.21-0.38,0.53-0.47L85.3,4.03z"/><path class="st0" d="M95.68,8.62c0.29,0,0.41,0.18,0.35,0.47l-2.47,15.74c-0.06,0.32-0.24,0.47-0.53,0.47h-4.24 c-0.29,0-0.41-0.15-0.38-0.47l2.5-15.74c0.06-0.29,0.24-0.47,0.53-0.47H95.68z M97.27,4.08c-0.29,1.71-1.53,2.71-3.38,2.71 c-1.91,0-2.85-1-2.56-2.71c0.26-1.68,1.5-2.68,3.38-2.68S97.54,2.41,97.27,4.08z"/><path class="st0" d="M113.89,15.62l-1.47,9.21c-0.06,0.32-0.24,0.47-0.53,0.47h-4.27c-0.29,0-0.38-0.15-0.32-0.47l1.21-7.62 c0.62-4.09,0.44-4.33-2.21-4.33h-1.97l-1.91,11.95c-0.03,0.32-0.21,0.47-0.5,0.47h-4.33c-0.29,0-0.38-0.15-0.32-0.47l2.41-15.39 c0.06-0.35,0.21-0.38,0.5-0.44c1.91-0.44,5-0.53,7.62-0.53C113.63,8.47,114.81,9.73,113.89,15.62z"/><path class="st0" d="M132.78,9.09c0.41,0.06,0.65,0.38,0.56,0.85l-2.47,15.56c-0.59,3.74-1.68,5.94-8.33,5.94 c-2.12,0-4.27-0.12-6-0.47c-0.24-0.06-0.35-0.15-0.29-0.47l0.41-2.74c0.06-0.32,0.18-0.44,0.47-0.44h5.5 c2.24,0,2.91-0.47,3.15-2.06l0.03-0.21c-1.29,0.3-2.41,0.38-3.53,0.38c-5.27,0-6.53-1.97-5.41-8.83c1-6.36,2.88-8.15,9.36-8.15 C128.3,8.47,130.8,8.73,132.78,9.09z M125.24,12.88c-2.5,0-2.85,1.12-3.32,4.06c-0.53,3.38-0.21,4.06,2.41,4.06 c0.56,0,1.44-0.03,2.15-0.18l1.27-7.95h-2.51V12.88z"/><path class="st0" d="M157.39,2.61c0.47,0.15,0.71,0.32,0.62,0.85l-0.44,2.94c-0.06,0.3-0.24,0.41-0.53,0.41h-4.74 c-2.35,0-3.27,0.35-3.56,2.12l-0.06,0.38c-0.26,1.74,0.35,2.33,2.71,2.33h8.39c0.35,0,0.5,0.15,0.44,0.44l-0.41,2.53 c-0.03,0.32-0.26,0.38-0.59,0.47l-2.03,0.47l-0.68,4.24c-0.21,1.27,0.26,1.47,1.44,1.47h0.85c0.35,0,0.5,0.12,0.44,0.44 l-0.41,2.82c-0.09,0.38-0.26,0.53-0.62,0.59c-0.74,0.21-1.65,0.32-2.47,0.32c-1.12,0-2.62,0.03-3.32-0.94 c-1.53,0.77-3.15,0.94-4.62,0.94c-3.38,0-6.94-0.97-6.18-5.74l0.26-1.68c0.21-1.47,0.85-3.71,3.77-4.27 c-2.71-0.53-2.68-2.82-2.44-4.29l0.29-1.68c0.74-4.77,4.35-5.71,8.86-5.71C153.77,2.08,156.04,2.29,157.39,2.61z M150.36,15.74 c-2.09,0-2.8,0.59-3.03,2.32l-0.09,0.5c-0.29,1.71,0.47,2.15,2.44,2.15c0.79,0,1.5-0.12,2.29-0.38l0.71-4.59H150.36z"/><path class="st0" d="M190.13,2.26c0.29,0,0.41,0.12,0.32,0.47l-7.89,19.15c-1.32,3.24-2.09,3.56-5.91,3.56 c-3.74,0-4.38-0.29-4.68-3.56l-1.88-19.15c-0.03-0.35,0.15-0.47,0.44-0.47H175c0.29,0,0.29,0.12,0.35,0.47l1.62,17.8 c0.06,0.38,0.09,0.53,0.35,0.53c0.32,0,0.38-0.15,0.56-0.53l7.27-17.8c0.15-0.35,0.21-0.47,0.47-0.47H190.13z"/><path class="st0" d="M205.07,13.76l-1.59,10.12c-0.12,0.59-0.35,0.82-0.85,0.94c-2.68,0.53-5.3,0.62-6.88,0.62 c-4.68,0-7.21-0.32-6.5-5.27c0.74-4.18,3.03-4.94,7.24-4.94l3.24-0.03l0.09-0.59c0.18-1.24-0.5-1.74-1.97-1.74h-5.77 c-0.29,0-0.38-0.18-0.32-0.53l0.47-2.91c0.06-0.35,0.18-0.41,0.47-0.47c1.91-0.38,3.74-0.5,5.85-0.5 C204.98,8.47,205.57,10.62,205.07,13.76z M196.48,18.3c-1.47,0-1.94,0.5-2.09,1.53c-0.18,1.18,0.24,1.5,1.82,1.5 c0.44,0,1.8-0.06,2.56-0.24l0.44-2.79H196.48z"/><path class="st0" d="M215.18,2.26c0.29,0,0.41,0.18,0.38,0.47l-3.5,22.1c-0.06,0.32-0.24,0.47-0.53,0.47h-4.24 c-0.29,0-0.41-0.15-0.38-0.47l3.5-22.1c0.03-0.29,0.21-0.47,0.5-0.47H215.18z"/><path class="st0" d="M224.83,4.03c0.32-0.09,0.44,0.15,0.38,0.47l-0.68,4.24h2.53c0.35,0,0.5,0.15,0.47,0.44l-0.47,2.85 c-0.06,0.32-0.26,0.47-0.59,0.47h-2.53l-1.12,7.06c-0.21,1.27,0.26,1.47,1.44,1.47h1.09c0.35,0,0.5,0.15,0.47,0.44l-0.47,3.06 c-0.09,0.38-0.29,0.53-0.62,0.59c-1.29,0.24-2.18,0.32-2.97,0.32c-2.77,0-5-0.12-4.35-4.03l1.38-8.91h-1.74 c-0.32,0-0.47-0.15-0.41-0.47l0.44-2.85c0.03-0.29,0.24-0.44,0.59-0.44h1.74l0.47-3.12c0.06-0.32,0.21-0.38,0.53-0.47L224.83,4.03 z"/><path class="st0" d="M244.01,16.88l-0.15,0.91c-0.09,0.62-0.32,0.79-0.97,0.79h-9.18c-0.32,2.18,0.35,2.44,2.65,2.44h5.38 c0.29,0,0.41,0.15,0.38,0.44l-0.47,3c-0.06,0.35-0.24,0.44-0.5,0.5c-1.68,0.35-4.03,0.47-6.06,0.47c-6.15,0-7.47-1.68-6.38-8.47 c1.06-6.83,2.94-8.5,9.09-8.5C243.86,8.47,245.07,10.15,244.01,16.88z M234.15,15.47h4.94c0.29-2-0.29-2.59-2-2.59 C235.36,12.88,234.48,13.47,234.15,15.47z"/><path class="st0" d="M258.04,8.82c0.32,0.06,0.47,0.21,0.41,0.62l-0.5,3c-0.03,0.29-0.24,0.44-0.56,0.44h-2.91 c-1.26,0-1.82,0.21-2.03,1.47l-1.65,10.47c-0.06,0.32-0.24,0.47-0.53,0.47H246c-0.29,0-0.41-0.15-0.35-0.47l1.88-11.86 c0.62-3.91,3.21-4.5,6.36-4.5C254.8,8.47,256.83,8.56,258.04,8.82z"/><path class="st0" d="M265.71,8.62c0.29,0,0.41,0.18,0.35,0.47l-2.47,15.74c-0.06,0.32-0.23,0.47-0.53,0.47h-4.24 c-0.3,0-0.41-0.15-0.38-0.47l2.5-15.74c0.06-0.29,0.23-0.47,0.53-0.47H265.71z M267.3,4.08c-0.3,1.71-1.53,2.71-3.38,2.71 c-1.91,0-2.85-1-2.56-2.71c0.26-1.68,1.5-2.68,3.38-2.68C266.62,1.41,267.57,2.41,267.3,4.08z"/><path class="st0" d="M283.75,16.97c-1.09,6.8-2.85,8.47-9.18,8.47s-7.56-1.68-6.5-8.47c1.09-6.83,2.88-8.5,9.21-8.5 S284.83,10.15,283.75,16.97z M273.24,16.97c-0.53,3.24-0.21,4.06,2.03,4.06c2.23,0,2.79-0.82,3.32-4.06 c0.53-3.26,0.21-4.09-2.03-4.09C274.33,12.88,273.77,13.71,273.24,16.97z"/></g><path class="st0" d="M301.32,35.7c5.43-3.91,20.59-14,20.59-14c-7.1-13.76-27.59-18.68-27.59-18.68 c13.71,2.2,35.58,8.15,58.61,14.75c13.72,3.93,22.36,7.68,22.36,7.68c-67.04,0-112.13,44.84-112.13,44.84S284.09,48.14,301.32,35.7 "/><path class="st1" d="M377.16,22.42c0,0-9.3-4.7-26.14-9.87C325.69,4.77,290.52,0,290.52,0s27.62,5.6,33.23,18.69 c0,0-15.12,10.08-20.57,14c-17.25,12.42-38.17,34.55-38.17,34.55S310.09,22.42,377.16,22.42"/></g></svg>