<?xml version="1.0" encoding="UTF-8" standalone="no"?><svg xmlns="http://www.w3.org/2000/svg" xmlns:xlink="http://www.w3.org/1999/xlink" xmlns:serif="http://www.serif.com/" width="100%" height="100%" viewBox="0 0 2363 825" version="1.1" xml:space="preserve" style="fill-rule:evenodd;clip-rule:evenodd;stroke-linejoin:round;stroke-miterlimit:2;"><g transform="matrix(4.16667,0,0,4.16667,0,0)"><rect x="0" y="0" width="566.929" height="197.57" style="fill:white;fill-rule:nonzero;"/><path d="M4.296,31.989L4.296,4.29L29.817,4.29C19.466,11.588 10.745,21.034 4.296,31.989ZM18.684,77.166C18.684,42.714 46.528,14.802 80.894,14.802C115.251,14.802 143.092,42.714 143.092,77.166C143.092,111.615 115.251,139.503 80.894,139.503C46.528,139.503 18.684,111.615 18.684,77.166ZM41.53,89.908C41.53,111.822 59.179,129.654 80.877,129.654C102.568,129.654 120.229,111.822 120.229,89.908C120.229,67.986 102.568,50.136 80.877,50.136C59.179,50.136 41.53,67.986 41.53,89.908ZM131.954,4.29C154.805,20.413 169.75,47.034 169.75,77.166C169.75,126.364 129.983,166.278 80.894,166.278C48.253,166.278 19.753,148.635 4.296,122.363L4.296,193.273L562.632,193.273L562.632,4.29L131.954,4.29Z" style="fill:rgb(245,130,31);fill-rule:nonzero;"/><path d="M252.177,39.885L267.918,39.885L267.918,72.833L283.306,72.833L283.306,86.28L252.177,86.28L252.177,39.885ZM289.044,62.813C289.044,59.102 289.698,55.752 291.012,52.752C292.326,49.763 294.128,47.218 296.424,45.117C298.715,43.022 301.437,41.412 304.583,40.269C307.729,39.133 311.132,38.571 314.805,38.571C318.477,38.571 321.883,39.133 325.029,40.269C328.175,41.412 330.9,43.022 333.22,45.117C335.54,47.218 337.345,49.763 338.665,52.752C339.964,55.752 340.627,59.102 340.627,62.813C340.627,66.53 339.964,69.916 338.665,72.963C337.345,76.029 335.54,78.639 333.22,80.805C330.9,82.972 328.175,84.635 325.029,85.813C321.883,87.002 318.477,87.594 314.805,87.594C311.132,87.594 307.729,87.002 304.583,85.813C301.437,84.635 298.715,82.972 296.424,80.805C294.128,78.639 292.326,76.029 291.012,72.963C289.698,69.916 289.044,66.53 289.044,62.813ZM305.634,62.813C305.634,64.346 305.858,65.737 306.314,67.009C306.779,68.276 307.412,69.365 308.22,70.288C309.028,71.2 309.995,71.91 311.132,72.413C312.265,72.922 313.493,73.171 314.805,73.171C316.109,73.171 317.335,72.922 318.438,72.413C319.56,71.91 320.531,71.2 321.359,70.288C322.191,69.365 322.836,68.276 323.303,67.009C323.753,65.737 323.984,64.346 323.984,62.813C323.984,61.333 323.753,59.966 323.303,58.718C322.836,57.475 322.191,56.415 321.359,55.569C320.531,54.722 319.56,54.054 318.438,53.568C317.335,53.095 316.109,52.852 314.805,52.852C313.493,52.852 312.265,53.095 311.132,53.568C309.995,54.054 309.028,54.722 308.22,55.569C307.412,56.415 306.779,57.475 306.314,58.718C305.858,59.966 305.634,61.333 305.634,62.813ZM372.67,86.28L357.081,86.28L357.081,53.048L345.673,53.048L345.673,39.885L384.075,39.885L384.075,53.048L372.67,53.048L372.67,86.28ZM392.69,39.885L424.614,39.885L424.614,52.852L407.373,52.852L407.373,56.847L423.567,56.847L423.567,68.974L407.373,68.974L407.373,73.301L425.724,73.301L425.724,86.28L392.69,86.28L392.69,39.885ZM436.069,39.885L456.056,39.885C458.326,39.885 460.59,40.104 462.827,40.565C465.094,41.027 467.095,41.838 468.873,42.992C470.643,44.152 472.072,45.697 473.158,47.644C474.247,49.585 474.801,52.029 474.801,54.959C474.801,57.788 474.102,60.286 472.702,62.452C471.315,64.624 469.308,66.293 466.701,67.465L478.464,86.28L460.552,86.28L451.659,69.696L451.206,69.696L451.206,86.28L436.069,86.28L436.069,39.885ZM451.07,59.475L454.136,59.475C454.651,59.475 455.234,59.428 455.846,59.339C456.489,59.25 457.072,59.067 457.607,58.782C458.155,58.504 458.605,58.114 458.971,57.599C459.341,57.096 459.534,56.439 459.534,55.604C459.534,54.77 459.377,54.125 459.072,53.645C458.773,53.16 458.382,52.805 457.894,52.556C457.424,52.314 456.909,52.166 456.346,52.101C455.775,52.041 455.255,52 454.781,52L451.07,52L451.07,59.475ZM484.264,39.885L499.996,39.885L499.996,86.28L484.264,86.28L484.264,39.885ZM509.939,39.885L541.855,39.885L541.855,52.852L524.623,52.852L524.623,56.847L540.801,56.847L540.801,68.974L524.623,68.974L524.623,73.301L542.964,73.301L542.964,86.28L509.939,86.28L509.939,39.885ZM182.844,107.602L202.787,107.602C205.051,107.602 207.303,107.827 209.555,108.282C211.795,108.744 213.804,109.549 215.574,110.703C217.332,111.857 218.764,113.42 219.859,115.355C220.945,117.296 221.496,119.723 221.496,122.647C221.496,125.476 220.794,127.968 219.4,130.128C218.01,132.288 216.009,133.957 213.399,135.129L225.147,153.891L207.273,153.891L198.401,137.36L197.946,137.36L197.946,153.891L182.844,153.891L182.844,107.602ZM197.815,127.145L200.86,127.145C201.381,127.145 201.955,127.115 202.586,127.021C203.21,126.932 203.79,126.748 204.335,126.464C204.873,126.18 205.329,125.79 205.705,125.286C206.066,124.789 206.252,124.121 206.252,123.298C206.252,122.463 206.098,121.806 205.8,121.333C205.498,120.853 205.098,120.487 204.625,120.25C204.157,120.019 203.636,119.865 203.074,119.794C202.512,119.741 201.985,119.699 201.514,119.699L197.815,119.699L197.815,127.145ZM227.565,130.489C227.565,126.778 228.216,123.44 229.524,120.451C230.835,117.462 232.631,114.929 234.922,112.834C237.206,110.739 239.917,109.129 243.054,107.992C246.202,106.868 249.606,106.288 253.26,106.288C256.924,106.288 260.321,106.868 263.455,107.992C266.601,109.129 269.326,110.739 271.635,112.834C273.952,114.929 275.757,117.462 277.065,120.451C278.364,123.44 279.024,126.778 279.024,130.489C279.024,134.194 278.364,137.568 277.065,140.621C275.757,143.681 273.952,146.28 271.635,148.44C269.326,150.594 266.601,152.263 263.455,153.435C260.321,154.613 256.924,155.205 253.26,155.205C249.606,155.205 246.202,154.613 243.054,153.435C239.917,152.263 237.206,150.594 234.922,148.44C232.631,146.28 230.835,143.681 229.524,140.621C228.216,137.568 227.565,134.194 227.565,130.489ZM244.104,130.489C244.104,132.016 244.326,133.407 244.788,134.673C245.249,135.934 245.889,137.029 246.691,137.94C247.496,138.852 248.463,139.568 249.606,140.065C250.733,140.568 251.958,140.823 253.26,140.823C254.574,140.823 255.773,140.568 256.894,140.065C257.998,139.568 258.971,138.852 259.8,137.94C260.629,137.029 261.271,135.934 261.733,134.673C262.182,133.407 262.407,132.016 262.407,130.489C262.407,129.003 262.182,127.648 261.733,126.399C261.271,125.156 260.629,124.115 259.8,123.262C258.971,122.416 257.998,121.747 256.894,121.262C255.773,120.794 254.574,120.551 253.26,120.551C251.958,120.551 250.733,120.794 249.606,121.262C248.463,121.747 247.496,122.416 246.691,123.262C245.889,124.115 245.249,125.156 244.788,126.399C244.326,127.648 244.104,129.003 244.104,130.489ZM299.357,127.737L300.079,153.891L285.564,153.891L285.564,107.602L305.918,107.602L314.304,132.513L314.63,132.513L321.892,107.602L342.911,107.602L342.911,153.891L327.742,153.891L328.198,127.867L327.808,127.802L319.172,153.891L308.185,153.891L299.685,127.737L299.357,127.737ZM366.689,107.602L383.232,107.602L401.28,153.891L384.353,153.891L381.927,147.102L367.216,147.102L364.929,153.891L348.448,153.891L366.689,107.602ZM374.733,123.748L370.942,135.2L378.464,135.2L374.733,123.748ZM406.755,107.602L422.259,107.602L435.469,131.081L435.723,131.081L435.075,107.602L449.854,107.602L449.854,153.891L433.966,153.891L421.143,131.791L420.889,131.791L421.546,153.891L406.755,153.891L406.755,107.602ZM458.477,153.891L458.477,107.602L475.745,107.602C479.405,107.602 482.9,107.969 486.238,108.673C489.576,109.395 492.518,110.644 495.063,112.408C497.614,114.177 499.658,116.521 501.177,119.439C502.709,122.363 503.473,126.044 503.473,130.489C503.473,134.543 502.745,138.047 501.286,141.018C499.824,143.977 497.859,146.404 495.424,148.31C492.991,150.204 490.165,151.612 486.99,152.53C483.812,153.435 480.494,153.891 477.062,153.891L458.477,153.891ZM473.451,120.812L473.451,140.485L476.325,140.485C479.994,140.485 482.802,139.704 484.773,138.106C486.726,136.526 487.706,133.934 487.706,130.329C487.706,127.334 486.726,124.996 484.773,123.321C482.802,121.647 480.192,120.812 476.919,120.812L473.451,120.812ZM510.013,107.602L541.861,107.602L541.861,120.551L524.664,120.551L524.664,124.535L540.807,124.535L540.807,136.638L524.664,136.638L524.664,140.947L542.964,140.947L542.964,153.891L510.013,153.891L510.013,107.602Z" style="fill:white;fill-rule:nonzero;"/></g></svg>