<?xml version="1.0" encoding="UTF-8"?><svg xmlns="http://www.w3.org/2000/svg" xmlns:xlink="http://www.w3.org/1999/xlink" version="1.1" id="Calque_1" x="0px" y="0px" viewBox="0 0 323.72 120.03" style="enable-background:new 0 0 323.72 120.03;" xml:space="preserve"><style type="text/css">.st0{fill:#9E0054;}	.st1{fill-rule:evenodd;clip-rule:evenodd;fill:#8E8777;}	.st2{fill:#8E8777;}	.st3{fill:#FFFFFF;}</style><path class="st0" d="M17.7,59.94c7.83-0.39,14.88-5.89,15.75-12.28c0.86-6.39-4.78-11.26-12.61-10.87 C13,37.18,5.95,42.68,5.09,49.07C4.22,55.46,9.87,60.33,17.7,59.94z"/><path class="st0" d="M66.17,78.13c7.83-0.39,14.88-5.89,15.75-12.28c0.86-6.39-4.79-11.26-12.61-10.87 c-7.83,0.39-14.88,5.89-15.74,12.28C52.7,73.65,58.34,78.52,66.17,78.13z"/><g><path class="st1" d="M49.58,28.34c-1.72,0.46-6.97,2.62-8.31,6.32c-1.13,3.09,0.86,6.68,0.8,10.14c-0.1,6.3-4.98,13.03-11.98,16.73 c-4.48,2.37-9.52,2.85-13.87,7.05c-4.3,4.14-8.19,14.04-2.39,20.75c2.08,2.4,7.84,5.07,13.33,4.07c3.33-0.61,6.11-2.78,8.87-3.33 c8.89-1.77,20.19,2.08,24.82,10.12c1.81,3.14,2.18,7.2,4.55,10.17c6.1,7.7,21.51,6,25.44-5.86c3.46-10.46-3.97-23.26-14-22.73 c-4.01,0.21-9.36,3.04-12.61,3.29c-8.34,0.65-16.08-3.43-19.51-10.34c-4.48-9.04-0.72-18.71,4.84-23.4 c6.52-5.51,17.76-5.46,16.41-14.56C64.71,28.19,55.63,26.69,49.58,28.34z"/></g><g><path class="st0" d="M88.45,0h8.99l17.64,31.02h0.12V0h7.9v42.67h-8.82L96.47,11.65h-0.12v31.02h-7.9V0z"/><path class="st0" d="M154.77-0.86c12.11,0,22.31,9.69,22.31,22.31c0,12.22-10.03,22.08-22.31,22.08 c-12.28,0-22.31-9.86-22.31-22.08C132.45,8.82,142.66-0.86,154.77-0.86z M154.77,36.15c8.13,0,14.41-6.86,14.41-14.76 c0-8.19-6.4-14.88-14.41-14.88c-8.01,0-14.41,6.69-14.41,14.88C140.35,29.29,146.64,36.15,154.77,36.15z"/><path class="st0" d="M182.51,0h21.73v7.38h-13.84v10.44h13.2v7.38h-13.2v17.47h-7.9V0z"/><path class="st0" d="M210.82,0h7.9v42.67h-7.9V0z"/><path class="st0" d="M223.28,0h8.3l11.42,32.46h0.11L254.58,0h8.3l-16.55,42.67h-6.46L223.28,0z"/><path class="st0" d="M274.13,0h6.17l17.87,42.67h-8.71l-4.55-11.01h-15.28l-4.55,11.01h-8.71L274.13,0z M272.29,24.22h9.8 l-4.84-13.09h-0.12L272.29,24.22z"/><path class="st0" d="M302.79,0h7.9v35.29h13.03v7.38h-20.93V0z"/></g><g><g><path class="st2" d="M88.97,62.18h-1.64l0.69-2.11h0.94c-0.05-3.77,2.08-4.98,5.43-4.98l0.74,2.26c-0.42-0.1-0.82-0.15-1.21-0.15 c-1.78,0-2.58,0.79-2.58,2.88h3.17v2.11h-3.17v10.43l-2.38,0.4V62.18z"/><path class="st2" d="M98.04,54.9l1.59,1.88l-1.54,1.86l-1.59-1.86L98.04,54.9z M96.88,73.01V60.07l2.38-0.4v12.94L96.88,73.01z"/><path class="st2" d="M113.48,70.9c-1.19,1.37-2.7,2.11-4.56,2.11c-3.62,0-6.37-3.2-6.42-6.69c-0.05-3.84,2.85-6.64,6.42-6.64 c1.71,0,3.3,0.79,4.41,1.81v-6l2.38-0.4v17.52l-2.23,0.3V70.9z M109.02,61.91c-2.38,0-4.14,2.1-4.14,4.46 c0,2.3,1.93,4.41,4.24,4.41c2.58,0,4.51-1.71,4.51-4.41C113.63,63.67,111.6,61.91,109.02,61.91z"/><path class="st2" d="M130.26,59.68v12.94l-2.33,0.4v-1.86h-0.05c-0.77,1.29-2.28,1.86-3.77,1.86c-2.55,0-4.93-1.21-4.93-4.21 v-8.73l2.38-0.4v8.77c0,1.86,1.31,2.45,2.77,2.45c1.88,0,3.54-1.14,3.54-3.84v-6.99L130.26,59.68z"/><path class="st2" d="M142.9,63.07c-1.07-0.79-1.76-1.17-3.17-1.17c-2.4,0-4.04,2.16-4.04,4.46c0,2.25,1.91,4.41,4.09,4.41 c1.34,0,2.23-0.65,3.1-1.49l1.54,1.56c-1.26,1.31-2.85,2.16-4.71,2.16c-3.32,0-6.39-2.88-6.39-6.57c0-3.69,2.63-6.77,6.39-6.77 c1.73,0,3.32,0.62,4.63,1.76L142.9,63.07z"/><path class="st2" d="M148.62,54.9l1.59,1.88l-1.54,1.86l-1.59-1.86L148.62,54.9z M147.46,73.01V60.07l2.38-0.4v12.94L147.46,73.01 z"/><path class="st2" d="M161.33,73.01v-1.73h-0.05c-0.72,1.41-2.21,1.73-3.72,1.73c-2.82,0-4.66-2.11-4.66-4.88 c0-2.78,2.45-4.43,5.01-4.43c1.19,0,2.35,0.34,3.17,1.21v-0.97c0-1.86-1.12-2.03-2.97-2.03c-1.04,0-2.38,0.07-3.67,0.72l0.64-2.45 c0.87-0.17,2.25-0.5,3.42-0.5c3.37,0,4.96,1.34,4.96,4.71v8.23L161.33,73.01z M155.29,68.13c0,1.76,1.02,2.65,2.73,2.65 c1.64,0,3.07-0.62,3.07-2.65c0-1.58-1.41-2.33-2.9-2.33C156.77,65.8,155.29,66.49,155.29,68.13z"/><path class="st2" d="M168.4,54.9l1.59,1.88l-1.54,1.86l-1.59-1.86L168.4,54.9z M167.23,73.01V60.07l2.38-0.4v12.94L167.23,73.01z"/><path class="st2" d="M173.45,73.01V60.07l2.23-0.4v2.7h0.05c0.72-1.59,1.93-2.75,3.87-2.75h1.19l-0.99,2.38 c-2.13-0.12-3.97,1.44-3.97,4.69v5.92L173.45,73.01z"/><path class="st2" d="M185.22,68.75c0.79,1.26,1.96,2.03,3.44,2.03c1.71,0,3.37-1.17,4.66-2.18l0.47,2.5 c-1.56,1.09-3.02,1.91-4.98,1.91c-4.04,0-6.67-3.02-6.67-7.01c0-3.42,2.93-6.32,6.27-6.32c2.68,0,4.26,1.22,5.62,3.45 L185.22,68.75z M190.77,62.73c-0.54-0.62-1.34-0.82-2.18-0.82c-2.7,0-4.36,2.18-4.06,4.78L190.77,62.73z"/><path class="st2" d="M207.78,68.75c0.79,1.26,1.96,2.03,3.44,2.03c1.71,0,3.37-1.17,4.66-2.18l0.47,2.5 c-1.56,1.09-3.02,1.91-4.98,1.91c-4.04,0-6.67-3.02-6.67-7.01c0-3.42,2.92-6.32,6.27-6.32c2.68,0,4.26,1.22,5.63,3.45 L207.78,68.75z M213.33,62.73c-0.55-0.62-1.34-0.82-2.18-0.82c-2.7,0-4.36,2.18-4.06,4.78L213.33,62.73z"/><path class="st2" d="M226.41,62.18h-3.35v6.64c0,1.59,0.5,2.08,2.23,2.08c0.54,0,1.07-0.1,1.59-0.15l-0.42,2.16 c-0.47,0.05-0.89,0.1-1.91,0.1c-2.21,0-3.87-1.58-3.87-3.84v-6.99h-1.96l0.84-2.11h1.12V57l2.38-0.57v3.64h3.35V62.18z"/><path class="st2" d="M236.94,73.01V60.07l2.23-0.4v2.7h0.05c0.72-1.59,1.93-2.75,3.87-2.75h1.19l-0.99,2.38 c-2.13-0.12-3.97,1.44-3.97,4.69v5.92L236.94,73.01z"/><path class="st2" d="M248.71,68.75c0.79,1.26,1.96,2.03,3.44,2.03c1.71,0,3.37-1.17,4.66-2.18l0.47,2.5 c-1.56,1.09-3.02,1.91-4.98,1.91c-4.04,0-6.67-3.02-6.67-7.01c0-3.42,2.92-6.32,6.27-6.32c2.68,0,4.26,1.22,5.63,3.45 L248.71,68.75z M254.27,62.73c-0.55-0.62-1.34-0.82-2.18-0.82c-2.7,0-4.36,2.18-4.06,4.78L254.27,62.73z M252.23,54.65h3.37 l-3.57,3.57H250L252.23,54.65z"/><path class="st2" d="M261.4,59.68l3.62,8.53l3.59-8.53l2.25,0.4l-5.82,12.94H265l-5.83-12.94L261.4,59.68z"/><path class="st2" d="M274.19,54.9l1.58,1.88l-1.54,1.86l-1.59-1.86L274.19,54.9z M273.03,73.01V60.07l2.38-0.4v12.94L273.03,73.01 z"/><path class="st2" d="M279.94,69.52c0.72,0.84,1.44,1.39,2.63,1.39c0.94,0,2.11-0.47,2.11-1.58c0-3.25-6.17-0.99-6.17-5.68 c0-2.33,1.78-3.97,4.06-3.97c1.76,0,2.8,0.52,4.06,1.76L285.22,63c-0.74-0.77-1.31-1.22-2.4-1.22c-1.02,0-1.93,0.35-1.93,1.54 c0,2.83,6.17,0.72,6.17,5.7c0,2.43-2.03,3.99-4.34,3.99c-1.86,0-3.27-0.62-4.41-2.11L279.94,69.52z"/><path class="st2" d="M291.22,54.9l1.58,1.88l-1.54,1.86l-1.59-1.86L291.22,54.9z M290.05,73.01V60.07l2.38-0.4v12.94L290.05,73.01 z"/><path class="st2" d="M309.33,66.34c0,3.77-3.12,6.67-6.84,6.67c-3.72,0-6.82-2.9-6.82-6.67c0-3.77,3.1-6.67,6.82-6.67 C306.21,59.68,309.33,62.58,309.33,66.34z M302.49,61.91c-2.48,0-4.44,2.01-4.44,4.43c0,2.43,1.96,4.44,4.44,4.44 c2.5,0,4.46-2.01,4.46-4.44C306.95,63.92,304.99,61.91,302.49,61.91z"/><path class="st2" d="M312.35,73.01V60.07l2.38-0.4v1.86h0.05c0.72-1.29,2.23-1.86,3.72-1.86c2.55,0,4.93,1.22,4.93,4.36v8.57 l-2.38,0.4v-8.77c0-1.86-1.31-2.46-2.78-2.46c-1.88,0-3.54,1.14-3.54,3.84v6.99L312.35,73.01z"/></g></g><path class="st3" d="M92.11,84.81c-2.92-4.04-6.87-6.72-11.16-7.67c3.19-2.89,5.38-6.59,5.92-10.62c0.54-4.05-0.62-7.95-3.27-10.98 c-3.1-3.55-7.99-5.58-13.42-5.58c-0.37,0-0.75,0.01-1.13,0.03c-10.28,0.51-19.26,7.8-20.45,16.61c-0.24,1.75-0.13,3.48,0.25,5.12 c-2.68-6.35-0.07-13.2,3.93-16.57c1.69-1.42,4.11-2.5,6.45-3.54c5.22-2.32,13.12-5.82,11.68-15.57 c-1.19-8.06-7.81-13.28-16.84-13.28c-1.97,0-3.98,0.26-5.81,0.76c-0.36,0.1-9.19,2.54-11.69,9.43c-0.71,1.94-0.74,3.83-0.54,5.56 c-0.28-0.4-0.58-0.78-0.9-1.15c-3.1-3.55-7.99-5.58-13.42-5.58c-0.37,0-0.75,0.01-1.13,0.03C10.3,32.31,1.32,39.6,0.13,48.4 c-0.55,4.04,0.61,7.94,3.26,10.97c2.38,2.72,5.81,4.54,9.74,5.25c-0.13,0.12-0.26,0.22-0.38,0.34c-6.08,5.85-10.41,18.71-2.7,27.62 c3.06,3.54,9.09,6.01,14.66,6.01c1.14,0,2.27-0.1,3.36-0.3c2.41-0.44,4.48-1.42,6.15-2.21c1.08-0.51,2.1-0.99,2.79-1.13 c1.1-0.22,2.26-0.33,3.47-0.33c6.72,0,13.32,3.31,16.05,8.04c0.53,0.92,0.95,2.16,1.4,3.47c0.78,2.31,1.67,4.93,3.57,7.31 c3.31,4.17,8.59,6.57,14.47,6.57c9.12,0,16.82-5.48,19.63-13.97C97.88,99.11,96.55,90.96,92.11,84.81z M53.56,67.26 c0.86-6.4,7.91-11.89,15.74-12.28c0.3-0.01,0.59-0.02,0.88-0.02c7.37,0,12.56,4.74,11.73,10.89c-0.86,6.4-7.91,11.89-15.75,12.28 c-0.29,0.01-0.59,0.02-0.88,0.02C57.93,78.15,52.73,73.41,53.56,67.26z M5.09,49.07C5.95,42.68,13,37.18,20.83,36.79 c0.3-0.01,0.59-0.02,0.88-0.02c7.37,0,12.56,4.74,11.73,10.89c-0.87,6.39-7.91,11.89-15.75,12.28c-0.29,0.01-0.58,0.02-0.87,0.02 C9.46,59.96,4.25,55.23,5.09,49.07z M90.83,104.49c-2.34,7.08-8.78,10.54-14.89,10.54c-4.12,0-8.09-1.58-10.55-4.68 c-2.36-2.98-2.73-7.04-4.55-10.17c-3.89-6.75-12.47-10.54-20.38-10.54c-1.52,0-3.01,0.14-4.44,0.42c-2.75,0.54-5.53,2.71-8.87,3.33 c-0.82,0.15-1.64,0.22-2.46,0.22c-4.67,0-9.11-2.24-10.88-4.28c-5.81-6.71-1.92-16.61,2.39-20.75c4.36-4.2,9.39-4.68,13.87-7.05 c7-3.69,11.87-10.43,11.98-16.73c0.06-3.46-1.93-7.04-0.8-10.14c1.34-3.69,6.59-5.85,8.31-6.32c1.39-0.38,2.93-0.59,4.5-0.59 c5.3,0,10.92,2.4,11.9,9.01c1.35,9.1-9.89,9.05-16.41,14.56c-5.56,4.69-9.32,14.36-4.84,23.4c3.19,6.43,10.11,10.41,17.78,10.41 c0.57,0,1.15-0.02,1.73-0.07c3.24-0.26,8.6-3.08,12.61-3.29c0.2-0.01,0.4-0.02,0.6-0.02C87.16,81.75,94.23,94.24,90.83,104.49z"/></svg>