<?xml version="1.0" encoding="UTF-8" standalone="no"?><svg xmlns="http://www.w3.org/2000/svg" xmlns:xlink="http://www.w3.org/1999/xlink" xmlns:serif="http://www.serif.com/" width="100%" height="100%" viewBox="0 0 1442 334" version="1.1" xml:space="preserve" style="fill-rule:evenodd;clip-rule:evenodd;stroke-linejoin:round;stroke-miterlimit:2;"><g transform="matrix(4.16667,0,0,4.16667,0,-1)"><g transform="matrix(1.00188,0,0,1.00907,-1.11022e-16,-0.485907)"><rect x="0" y="0.651" width="345.351" height="79.349" style="fill:rgb(211,24,31);fill-rule:nonzero;"/></g><path d="M65.885,54.389L72.849,26.055L80.515,26.055L75.195,47.7L80.944,47.7L79.3,54.389L65.885,54.389Z" style="fill:white;fill-rule:nonzero;"/><g><path d="M93.234,42.026C93.464,40.936 93.401,39.508 92.087,39.508C90.846,39.508 90.026,41.012 89.815,42.026L93.234,42.026ZM98.987,47.662C97.034,52.247 92.911,54.802 88.478,54.802C82.353,54.802 80.324,50.668 81.756,44.844C83.151,39.169 87.657,34.134 93.746,34.134C96.789,34.134 98.693,35.412 99.639,37.366C100.919,39.959 100.425,42.891 99.657,46.009L88.836,46.009C88.548,47.174 88.275,49.052 89.816,49.052C90.642,49.052 91.428,48.451 91.773,47.662L98.987,47.662Z" style="fill:white;fill-rule:nonzero;"/><path d="M114.41,26.055L121.699,26.055L123.631,43.115L123.726,43.04C124.229,39.771 124.459,36.539 125.263,33.27L127.036,26.055L134.401,26.055L127.437,54.389L120.071,54.389L118.378,38.042L118.284,38.117C117.816,40.785 117.507,43.415 116.852,46.083L114.811,54.389L107.445,54.389L114.41,26.055Z" style="fill:white;fill-rule:nonzero;"/><path d="M138.061,44.468C137.562,46.498 137.141,49.277 138.908,49.277C140.674,49.277 141.621,46.498 142.12,44.468C142.619,42.439 143.038,39.658 141.273,39.658C139.506,39.658 138.56,42.439 138.061,44.468ZM149.334,44.468C147.967,50.029 143.901,54.803 137.55,54.803C131.2,54.803 129.479,50.029 130.845,44.468C132.213,38.906 136.28,34.134 142.63,34.134C148.981,34.134 150.701,38.906 149.334,44.468Z" style="fill:white;fill-rule:nonzero;"/><path d="M160.18,34.548L157.556,45.22C156.975,47.588 156.867,48.64 158.144,48.64C159.46,48.64 159.859,47.624 160.45,45.22L163.073,34.548L170.438,34.548L167.566,46.234C166.125,52.097 162.041,54.803 156.629,54.803C150.918,54.803 148.612,51.646 149.942,46.234L152.815,34.548L160.18,34.548Z" style="fill:white;fill-rule:nonzero;"/><path d="M171.533,54.389L170.924,34.547L178.364,34.547L177.741,42.891C177.625,44.28 177.359,45.821 177.206,47.211L177.28,47.211C177.81,45.821 178.377,44.28 178.907,42.891L182.61,34.547L189.863,34.547L179.236,54.389L171.533,54.389Z" style="fill:white;fill-rule:nonzero;"/><path d="M197.567,42.026C197.796,40.936 197.735,39.508 196.419,39.508C195.178,39.508 194.359,41.012 194.148,42.026L197.567,42.026ZM203.322,47.662C201.367,52.247 197.245,54.802 192.81,54.802C186.685,54.802 184.658,50.668 186.089,44.844C187.485,39.169 191.991,34.134 198.079,34.134C201.123,34.134 203.026,35.412 203.973,37.366C205.253,39.959 204.757,42.891 203.991,46.009L193.169,46.009C192.882,47.174 192.608,49.052 194.149,49.052C194.975,49.052 195.761,48.451 196.107,47.662L203.322,47.662Z" style="fill:white;fill-rule:nonzero;"/><path d="M203.168,54.389L210.529,24.44L217.894,24.44L210.534,54.389L203.168,54.389Z" style="fill:white;fill-rule:nonzero;"/><path d="M212.629,54.389L219.989,24.44L227.354,24.44L219.993,54.389L212.629,54.389Z" style="fill:white;fill-rule:nonzero;"/><path d="M227.897,28.309C228.468,25.98 230.866,24.026 233.196,24.026C235.564,24.026 237.102,25.866 236.51,28.273C235.928,30.639 233.562,32.631 231.156,32.631C228.789,32.631 227.306,30.714 227.897,28.309ZM222.088,54.389L226.964,34.547L234.331,34.547L229.454,54.389L222.088,54.389Z" style="fill:white;fill-rule:nonzero;"/><path d="M234.619,47.249C235.252,48.189 236.441,49.316 237.794,49.316C238.432,49.316 239.296,49.015 239.471,48.301C239.647,47.587 239.11,47.174 237.943,46.723C235.297,45.708 233.375,44.205 234.207,40.823C235.213,36.728 239.195,34.134 243.817,34.134C245.809,34.134 247.982,34.773 249.469,35.75L245.631,41.124C244.961,40.335 244.224,39.358 242.984,39.358C242.459,39.358 241.812,39.694 241.654,40.335C241.406,41.349 242.704,41.875 243.419,42.176C245.837,43.19 247.629,44.619 246.835,47.85C245.735,52.322 241.293,54.803 237.196,54.803C234.491,54.803 232.58,54.013 230.565,52.735L234.619,47.249Z" style="fill:white;fill-rule:nonzero;"/><path d="M271.779,42.026C272.01,40.936 271.947,39.508 270.631,39.508C269.392,39.508 268.571,41.012 268.36,42.026L271.779,42.026ZM277.534,47.662C275.579,52.247 271.457,54.802 267.023,54.802C260.898,54.802 258.87,50.668 260.301,44.844C261.696,39.169 266.203,34.134 272.291,34.134C275.335,34.134 277.238,35.412 278.186,37.366C279.463,39.959 278.97,42.891 278.203,46.009L267.379,46.009C267.095,47.174 266.821,49.052 268.361,49.052C269.187,49.052 269.974,48.451 270.319,47.662L277.534,47.662Z" style="fill:white;fill-rule:nonzero;"/><path d="M247.527,54.389L250.954,40.447L248.849,40.447L250.299,34.547L252.405,34.547L253.836,28.724L261.2,28.724L259.769,34.547L263.263,34.547L261.812,40.447L258.319,40.447L254.892,54.389L247.527,54.389Z" style="fill:white;fill-rule:nonzero;"/></g></g></svg>