<?xml version="1.0" encoding="UTF-8" standalone="no"?><svg xmlns="http://www.w3.org/2000/svg" xmlns:xlink="http://www.w3.org/1999/xlink" xmlns:serif="http://www.serif.com/" width="100%" height="100%" viewBox="0 0 250 100" version="1.1" xml:space="preserve" style="fill-rule:evenodd;clip-rule:evenodd;stroke-linejoin:round;stroke-miterlimit:2;"><g id="surface1" transform="matrix(1,0,0,1,2.90995,14.1607)"><g transform="matrix(1,0,0,1,6,0)"><path d="M64.081,-0.188C59.602,-0.188 55.025,-0.285 50.548,-0.384L50.548,2.147C60.282,2.248 62.326,4.972 62.326,13.927L62.326,59.476C53.192,48.596 28.656,11.309 21.302,2.878C20.312,1.782 19.223,0.992 17.244,0.397C14.869,-0.301 10.905,-0.395 1.311,-0.395L1.311,1.385C7.345,1.385 11.104,2.276 13.176,4.456C20.898,12.673 53.674,60.278 63.771,72.06L66.214,72.06L66.224,72.074L66.224,72.06L66.244,72.06L66.224,71.986L66.224,12.177C66.224,2.637 69.434,2.147 75.374,2.147L75.374,-0.384C71.575,-0.384 67.875,-0.188 64.081,-0.188" style="fill:rgb(80,120,156);fill-rule:nonzero;"/></g><g transform="matrix(1,0,0,1,6,0)"><path d="M24.145,44.217L24.145,30.266L14.834,17.444L14.834,41.405C14.834,44.708 14.834,49.226 9.205,49.281L9.205,60.328L30.349,60.257L30.349,49.281L29.042,49.281C26.297,49.281 24.145,47.058 24.145,44.217" style="fill:rgb(80,120,156);fill-rule:nonzero;"/></g><g transform="matrix(1,0,0,1,6,0)"><path d="M98.155,55.618C98.155,55.059 97.723,54.802 96.954,54.802C96.825,54.802 96.35,54.821 96.239,54.832L96.239,56.587C96.34,56.598 96.788,56.607 96.892,56.607C97.852,56.607 98.155,56.359 98.155,55.737L98.155,55.618ZM99.802,60.363L98.403,60.363C98.3,60.363 98.265,60.271 98.219,60.179L96.993,57.861L96.892,57.871C96.699,57.871 96.414,57.852 96.239,57.852L96.239,60.179C96.239,60.28 96.159,60.363 96.058,60.363L94.866,60.363C94.765,60.363 94.685,60.28 94.685,60.179L94.685,54.035C94.685,53.723 94.811,53.64 95.096,53.594C95.516,53.53 96.295,53.475 96.954,53.475C98.511,53.475 99.712,53.998 99.712,55.618L99.712,55.737C99.712,56.708 99.2,57.303 98.529,57.567L99.912,60.149C99.93,60.188 99.939,60.225 99.939,60.252C99.939,60.317 99.905,60.363 99.802,60.363" style="fill:rgb(80,120,156);fill-rule:nonzero;"/></g><g transform="matrix(1,0,0,1,6,0)"><path d="M105.599,60.324C105.279,60.369 104.813,60.443 103.823,60.443C102.64,60.443 101.598,60.142 101.598,58.475L101.598,55.436C101.598,53.769 102.652,53.475 103.832,53.475C104.822,53.475 105.279,53.548 105.599,53.594C105.727,53.612 105.78,53.658 105.78,53.776L105.78,54.63C105.78,54.731 105.7,54.811 105.599,54.811L103.741,54.811C103.311,54.811 103.153,54.958 103.153,55.436L103.153,56.268L105.527,56.268C105.626,56.268 105.711,56.35 105.711,56.449L105.711,57.322C105.711,57.423 105.626,57.505 105.527,57.505L103.153,57.505L103.153,58.475C103.153,58.952 103.311,59.097 103.741,59.097L105.599,59.097C105.7,59.097 105.78,59.18 105.78,59.281L105.78,60.133C105.78,60.252 105.727,60.305 105.599,60.324" style="fill:rgb(80,120,156);fill-rule:nonzero;"/></g><g transform="matrix(1,0,0,1,6,0)"><path d="M113.752,60.363L112.544,60.363C112.461,60.363 112.397,60.28 112.397,60.179L112.397,56.359C112.397,56.295 112.369,56.286 112.351,56.286C112.323,56.286 112.305,56.304 112.277,56.35L111.453,57.861C111.389,57.972 111.297,58.018 111.18,58.018L110.447,58.018C110.325,58.018 110.236,57.972 110.171,57.861L109.347,56.35C109.319,56.304 109.303,56.286 109.273,56.286C109.257,56.286 109.23,56.295 109.23,56.359L109.23,60.179C109.23,60.28 109.165,60.363 109.083,60.363L107.872,60.363C107.801,60.363 107.718,60.333 107.718,60.234L107.718,53.867C107.718,53.677 107.854,53.56 108.047,53.56L108.908,53.56C109.099,53.56 109.23,53.649 109.312,53.805L110.711,56.415C110.748,56.488 110.775,56.534 110.814,56.534C110.849,56.534 110.876,56.488 110.913,56.415L112.317,53.805C112.397,53.649 112.526,53.56 112.716,53.56L113.58,53.56C113.77,53.56 113.908,53.686 113.908,53.879L113.908,60.234C113.908,60.333 113.825,60.363 113.752,60.363" style="fill:rgb(80,120,156);fill-rule:nonzero;"/></g><g transform="matrix(1,0,0,1,6,0)"><path d="M119.687,56.415C119.687,55.314 119.319,54.848 118.55,54.848C117.78,54.848 117.422,55.314 117.422,56.415L117.422,57.505C117.422,58.601 117.78,59.07 118.55,59.07C119.319,59.07 119.687,58.601 119.687,57.505L119.687,56.415ZM118.55,60.443C117.039,60.443 115.84,59.628 115.84,57.505L115.84,56.415C115.84,54.29 117.039,53.475 118.55,53.475C120.061,53.475 121.26,54.29 121.26,56.415L121.26,57.505C121.26,59.628 120.061,60.443 118.55,60.443" style="fill:rgb(80,120,156);fill-rule:nonzero;"/></g><g transform="matrix(1,0,0,1,6,0)"><path d="M128.226,60.363L127.328,60.363C127.137,60.363 126.999,60.326 126.853,60.078L124.765,56.47C124.728,56.415 124.71,56.396 124.682,56.396C124.655,56.396 124.636,56.415 124.636,56.47L124.636,60.179C124.636,60.28 124.553,60.363 124.452,60.363L123.373,60.363C123.272,60.363 123.192,60.28 123.192,60.179L123.192,53.906C123.192,53.714 123.345,53.56 123.538,53.56L124.464,53.56C124.645,53.56 124.737,53.649 124.847,53.842L127.016,57.613C127.052,57.669 127.062,57.687 127.091,57.687C127.107,57.687 127.137,57.669 127.137,57.604L127.137,53.732C127.137,53.631 127.218,53.56 127.321,53.56L128.401,53.56C128.502,53.56 128.584,53.631 128.584,53.732L128.584,60.011C128.584,60.206 128.417,60.363 128.226,60.363" style="fill:rgb(80,120,156);fill-rule:nonzero;"/></g><g transform="matrix(1,0,0,1,6,0)"><path d="M135.031,54.848L133.547,54.848L133.547,60.179C133.547,60.278 133.465,60.363 133.364,60.363L132.163,60.363C132.064,60.363 131.981,60.278 131.981,60.179L131.981,54.848L130.488,54.848C130.387,54.848 130.307,54.775 130.307,54.676L130.307,53.73C130.307,53.631 130.387,53.56 130.488,53.56L135.031,53.56C135.13,53.56 135.222,53.631 135.222,53.73L135.222,54.676C135.222,54.775 135.13,54.848 135.031,54.848" style="fill:rgb(80,120,156);fill-rule:nonzero;"/></g><g transform="matrix(1,0,0,1,6,0)"><path d="M140.619,51.853L139.503,52.972C139.429,53.045 139.402,53.082 139.282,53.082L138.304,53.082C138.249,53.082 138.221,53.054 138.221,53.018C138.221,52.99 138.23,52.963 138.258,52.926L139.11,51.853C139.193,51.752 139.23,51.718 139.356,51.718L140.557,51.718C140.619,51.718 140.656,51.745 140.656,51.782C140.656,51.798 140.649,51.828 140.619,51.853M140.904,60.324C140.582,60.372 140.116,60.443 139.126,60.443C137.946,60.443 136.903,60.14 136.903,58.475L136.903,55.436C136.903,53.769 137.955,53.475 139.138,53.475C140.125,53.475 140.582,53.548 140.904,53.594C141.033,53.612 141.088,53.658 141.088,53.776L141.088,54.628C141.088,54.731 141.005,54.811 140.904,54.811L139.046,54.811C138.614,54.811 138.46,54.958 138.46,55.436L138.46,56.268L140.83,56.268C140.931,56.268 141.014,56.35 141.014,56.451L141.014,57.322C141.014,57.42 140.931,57.505 140.83,57.505L138.46,57.505L138.46,58.475C138.46,58.952 138.614,59.097 139.046,59.097L140.904,59.097C141.005,59.097 141.088,59.18 141.088,59.281L141.088,60.133C141.088,60.252 141.033,60.305 140.904,60.324" style="fill:rgb(80,120,156);fill-rule:nonzero;"/></g><g transform="matrix(1,0,0,1,6,0)"><path d="M146.93,60.324C146.609,60.369 146.143,60.443 145.153,60.443C143.972,60.443 142.93,60.142 142.93,58.475L142.93,55.436C142.93,53.769 143.981,53.475 145.162,53.475C146.15,53.475 146.609,53.548 146.93,53.594C147.059,53.612 147.114,53.658 147.114,53.776L147.114,54.63C147.114,54.731 147.032,54.811 146.93,54.811L145.07,54.811C144.641,54.811 144.487,54.958 144.487,55.436L144.487,56.268L146.857,56.268C146.958,56.268 147.038,56.35 147.038,56.449L147.038,57.322C147.038,57.423 146.958,57.505 146.857,57.505L144.487,57.505L144.487,58.475C144.487,58.952 144.641,59.097 145.07,59.097L146.93,59.097C147.032,59.097 147.114,59.18 147.114,59.281L147.114,60.133C147.114,60.252 147.059,60.305 146.93,60.324" style="fill:rgb(80,120,156);fill-rule:nonzero;"/></g><g transform="matrix(1,0,0,1,6,0)"><path d="M150.943,60.443C150.219,60.443 149.677,60.363 149.213,60.241C149.122,60.213 149.03,60.16 149.03,60.057L149.03,59.161C149.03,59.033 149.103,58.987 149.195,58.987L149.22,58.987C149.597,59.024 150.605,59.099 150.961,59.099C151.593,59.099 151.777,58.895 151.777,58.456C151.777,58.192 151.648,58.043 151.173,57.76L149.907,57.009C149.057,56.506 148.828,55.928 148.828,55.262C148.828,54.253 149.395,53.475 151.173,53.475C151.841,53.475 152.764,53.585 153.113,53.677C153.187,53.695 153.251,53.741 153.251,53.842L153.251,54.765C153.251,54.848 153.214,54.922 153.095,54.922L153.077,54.922C152.819,54.903 151.758,54.821 151.136,54.821C150.612,54.821 150.422,54.977 150.422,55.307C150.422,55.562 150.541,55.682 151.035,55.948L152.206,56.58C153.159,57.092 153.444,57.696 153.444,58.44C153.444,59.409 152.801,60.443 150.943,60.443" style="fill:rgb(80,120,156);fill-rule:nonzero;"/></g><g transform="matrix(1,0,0,1,6,0)"><path d="M163.991,60.363L162.78,60.363C162.698,60.363 162.633,60.28 162.633,60.179L162.633,56.359C162.633,56.295 162.608,56.286 162.59,56.286C162.562,56.286 162.541,56.304 162.516,56.35L161.692,57.861C161.627,57.972 161.535,58.018 161.416,58.018L160.686,58.018C160.566,58.018 160.474,57.972 160.41,57.861L159.585,56.35C159.556,56.304 159.54,56.286 159.512,56.286C159.494,56.286 159.466,56.295 159.466,56.359L159.466,60.179C159.466,60.28 159.402,60.363 159.319,60.363L158.111,60.363C158.037,60.363 157.955,60.333 157.955,60.234L157.955,53.867C157.955,53.677 158.093,53.56 158.286,53.56L159.144,53.56C159.34,53.56 159.466,53.649 159.549,53.805L160.95,56.415C160.986,56.488 161.014,56.534 161.048,56.534C161.088,56.534 161.115,56.488 161.15,56.415L162.551,53.805C162.633,53.649 162.764,53.56 162.955,53.56L163.816,53.56C164.007,53.56 164.144,53.686 164.144,53.879L164.144,60.234C164.144,60.333 164.062,60.363 163.991,60.363" style="fill:rgb(80,120,156);fill-rule:nonzero;"/></g><g transform="matrix(1,0,0,1,6,0)"><path d="M169.918,51.853L168.802,52.972C168.729,53.045 168.701,53.082 168.582,53.082L167.601,53.082C167.546,53.082 167.521,53.054 167.521,53.018C167.521,52.99 167.53,52.963 167.555,52.926L168.409,51.853C168.49,51.752 168.527,51.718 168.655,51.718L169.854,51.718C169.918,51.718 169.955,51.745 169.955,51.782C169.955,51.798 169.946,51.828 169.918,51.853M170.203,60.324C169.882,60.372 169.415,60.443 168.426,60.443C167.245,60.443 166.2,60.14 166.2,58.475L166.2,55.436C166.2,53.769 167.254,53.475 168.435,53.475C169.422,53.475 169.882,53.548 170.203,53.594C170.332,53.612 170.387,53.658 170.387,53.776L170.387,54.628C170.387,54.731 170.302,54.811 170.203,54.811L168.343,54.811C167.913,54.811 167.757,54.958 167.757,55.436L167.757,56.268L170.13,56.268C170.231,56.268 170.311,56.35 170.311,56.451L170.311,57.322C170.311,57.42 170.231,57.505 170.13,57.505L167.757,57.505L167.757,58.475C167.757,58.952 167.913,59.097 168.343,59.097L170.203,59.097C170.302,59.097 170.387,59.18 170.387,59.281L170.387,60.133C170.387,60.252 170.332,60.305 170.203,60.324" style="fill:rgb(80,120,156);fill-rule:nonzero;"/></g><g transform="matrix(1,0,0,1,6,0)"><path d="M176.216,60.287C176.023,60.351 175.49,60.443 174.852,60.443C173.458,60.443 172.139,59.713 172.139,57.533L172.139,56.378C172.139,54.198 173.458,53.475 174.852,53.475C175.49,53.475 176.023,53.567 176.216,53.631C176.342,53.668 176.416,53.704 176.416,53.833L176.416,54.72C176.416,54.832 176.361,54.903 176.241,54.903L176.216,54.903C175.865,54.878 175.362,54.832 174.859,54.832C174.227,54.832 173.724,55.16 173.724,56.378L173.724,57.533C173.724,58.75 174.227,59.079 174.859,59.079C175.362,59.079 175.865,59.033 176.216,59.005L176.241,59.005C176.361,59.005 176.416,59.079 176.416,59.189L176.416,60.078C176.416,60.206 176.342,60.252 176.216,60.287" style="fill:rgb(80,120,156);fill-rule:nonzero;"/></g><g transform="matrix(1,0,0,1,6,0)"><path d="M180.97,54.912C180.95,54.821 180.931,54.775 180.851,54.775C180.768,54.775 180.741,54.821 180.722,54.912L180.164,57.441L181.528,57.441L180.97,54.912ZM183.579,60.363L182.295,60.363C182.204,60.363 182.132,60.287 182.114,60.195L181.783,58.693L179.907,58.693L179.576,60.195C179.56,60.287 179.484,60.363 179.395,60.363L178.113,60.363C178.021,60.363 177.957,60.305 177.957,60.213C177.957,60.206 177.966,60.188 177.966,60.17L179.33,54.492C179.539,53.612 180.219,53.475 180.851,53.475C181.482,53.475 182.151,53.612 182.362,54.492L183.726,60.17C183.726,60.188 183.736,60.206 183.736,60.213C183.736,60.305 183.671,60.363 183.579,60.363" style="fill:rgb(80,120,156);fill-rule:nonzero;"/></g><g transform="matrix(1,0,0,1,6,0)"><path d="M190.463,60.363L189.565,60.363C189.372,60.363 189.236,60.326 189.087,60.078L187.001,56.47C186.965,56.415 186.946,56.396 186.919,56.396C186.891,56.396 186.873,56.415 186.873,56.47L186.873,60.179C186.873,60.28 186.79,60.363 186.689,60.363L185.61,60.363C185.509,60.363 185.426,60.28 185.426,60.179L185.426,53.906C185.426,53.714 185.582,53.56 185.773,53.56L186.698,53.56C186.882,53.56 186.974,53.649 187.084,53.842L189.255,57.613C189.289,57.669 189.301,57.687 189.328,57.687C189.346,57.687 189.372,57.669 189.372,57.604L189.372,53.732C189.372,53.631 189.454,53.56 189.555,53.56L190.635,53.56C190.736,53.56 190.819,53.631 190.819,53.732L190.819,60.011C190.819,60.206 190.656,60.363 190.463,60.363" style="fill:rgb(80,120,156);fill-rule:nonzero;"/></g><g transform="matrix(1,0,0,1,6,0)"><path d="M194.291,60.363L193.065,60.363C192.966,60.363 192.902,60.28 192.902,60.179L192.902,53.732C192.902,53.631 192.966,53.56 193.065,53.56L194.291,53.56C194.392,53.56 194.466,53.631 194.466,53.732L194.466,60.179C194.466,60.28 194.392,60.363 194.291,60.363" style="fill:rgb(80,120,156);fill-rule:nonzero;"/></g><g transform="matrix(1,0,0,1,6,0)"><path d="M200.224,56.415C200.224,55.314 199.856,54.848 199.089,54.848C198.317,54.848 197.961,55.314 197.961,56.415L197.961,57.505C197.961,58.601 198.317,59.07 199.089,59.07C199.856,59.07 200.224,58.601 200.224,57.505L200.224,56.415ZM199.829,60.372L199.829,60.553C199.829,60.746 199.921,60.783 200.058,60.783L200.883,60.783C201.012,60.783 201.103,60.838 201.103,60.93L201.103,61.681C201.103,61.773 201.03,61.844 200.892,61.881C200.635,61.945 200.233,62 199.875,62C199.032,62 198.357,61.644 198.357,60.562L198.357,60.372C197.21,60.133 196.377,59.272 196.377,57.505L196.377,56.415C196.377,54.29 197.576,53.475 199.089,53.475C200.598,53.475 201.797,54.29 201.797,56.415L201.797,57.505C201.797,59.26 200.975,60.133 199.829,60.372" style="fill:rgb(80,120,156);fill-rule:nonzero;"/></g><g transform="matrix(1,0,0,1,6,0)"><path d="M206.322,60.443C204.865,60.443 203.683,59.894 203.683,57.806L203.683,53.732C203.683,53.631 203.765,53.56 203.866,53.56L205.068,53.56C205.166,53.56 205.251,53.631 205.251,53.732L205.251,57.806C205.251,58.739 205.497,59.134 206.322,59.134C207.144,59.134 207.403,58.739 207.403,57.806L207.403,53.732C207.403,53.631 207.484,53.56 207.585,53.56L208.774,53.56C208.876,53.56 208.967,53.631 208.967,53.732L208.967,57.806C208.967,59.894 207.778,60.443 206.322,60.443" style="fill:rgb(80,120,156);fill-rule:nonzero;"/></g><g transform="matrix(1,0,0,1,6,0)"><path d="M214.985,60.324C214.663,60.369 214.197,60.443 213.207,60.443C212.024,60.443 210.982,60.142 210.982,58.475L210.982,55.436C210.982,53.769 212.036,53.475 213.216,53.475C214.206,53.475 214.663,53.548 214.985,53.594C215.111,53.612 215.166,53.658 215.166,53.776L215.166,54.63C215.166,54.731 215.084,54.811 214.985,54.811L213.124,54.811C212.695,54.811 212.539,54.958 212.539,55.436L212.539,56.268L214.911,56.268C215.01,56.268 215.095,56.35 215.095,56.449L215.095,57.322C215.095,57.423 215.01,57.505 214.911,57.505L212.539,57.505L212.539,58.475C212.539,58.952 212.695,59.097 213.124,59.097L214.985,59.097C215.084,59.097 215.166,59.18 215.166,59.281L215.166,60.133C215.166,60.252 215.111,60.305 214.985,60.324" style="fill:rgb(80,120,156);fill-rule:nonzero;"/></g><g transform="matrix(1,0,0,1,6,0)"><path d="M218.997,60.443C218.274,60.443 217.734,60.363 217.265,60.241C217.174,60.213 217.084,60.16 217.084,60.057L217.084,59.161C217.084,59.033 217.155,58.987 217.247,58.987L217.275,58.987C217.651,59.024 218.657,59.099 219.016,59.099C219.647,59.099 219.831,58.895 219.831,58.456C219.831,58.192 219.702,58.043 219.227,57.76L217.964,57.009C217.112,56.506 216.882,55.928 216.882,55.262C216.882,54.253 217.449,53.475 219.227,53.475C219.895,53.475 220.821,53.585 221.168,53.677C221.241,53.695 221.305,53.741 221.305,53.842L221.305,54.765C221.305,54.848 221.266,54.922 221.149,54.922L221.129,54.922C220.876,54.903 219.81,54.821 219.19,54.821C218.669,54.821 218.476,54.977 218.476,55.307C218.476,55.562 218.593,55.682 219.089,55.948L220.26,56.58C221.214,57.092 221.496,57.696 221.496,58.44C221.496,59.409 220.855,60.443 218.997,60.443" style="fill:rgb(80,120,156);fill-rule:nonzero;"/></g><g transform="matrix(1,0,0,1,6,0)"><path d="M106.841,17.209L104.678,17.209C104.211,17.209 103.881,17.122 103.527,16.525L98.495,7.827C98.408,7.696 98.364,7.65 98.295,7.65C98.231,7.65 98.185,7.696 98.185,7.827L98.185,16.768C98.185,17.01 97.987,17.209 97.744,17.209L95.139,17.209C94.896,17.209 94.698,17.01 94.698,16.768L94.698,1.647C94.698,1.183 95.073,0.806 95.539,0.806L97.767,0.806C98.208,0.806 98.431,1.027 98.692,1.491L103.927,10.588C104.014,10.719 104.037,10.762 104.101,10.762C104.147,10.762 104.211,10.719 104.211,10.565L104.211,1.229C104.211,0.983 104.411,0.806 104.655,0.806L107.259,0.806C107.503,0.806 107.7,0.983 107.7,1.229L107.7,16.371C107.7,16.835 107.303,17.209 106.841,17.209" style="fill:rgb(80,120,156);fill-rule:nonzero;"/></g><g transform="matrix(1,0,0,1,6,0)"><path d="M121.198,17.12C120.424,17.232 119.301,17.407 116.917,17.407C114.067,17.407 111.552,16.679 111.552,12.662L111.552,5.333C111.552,1.314 114.092,0.609 116.938,0.609C119.322,0.609 120.424,0.785 121.198,0.896C121.508,0.939 121.639,1.05 121.639,1.337L121.639,3.39C121.639,3.631 121.441,3.833 121.198,3.833L116.717,3.833C115.679,3.833 115.305,4.185 115.305,5.333L115.305,7.343L121.021,7.343C121.262,7.343 121.462,7.54 121.462,7.784L121.462,9.881C121.462,10.124 121.262,10.321 121.021,10.321L115.305,10.321L115.305,12.662C115.305,13.81 115.679,14.164 116.717,14.164L121.198,14.164C121.441,14.164 121.639,14.361 121.639,14.605L121.639,16.656C121.639,16.943 121.508,17.076 121.198,17.12" style="fill:rgb(80,120,156);fill-rule:nonzero;"/></g><g transform="matrix(1,0,0,1,6,0)"><path d="M137.351,17.209L135.187,17.209C134.726,17.209 134.395,17.122 134.041,16.525L129.007,7.827C128.92,7.696 128.876,7.65 128.809,7.65C128.743,7.65 128.699,7.696 128.699,7.827L128.699,16.768C128.699,17.01 128.499,17.209 128.258,17.209L125.651,17.209C125.41,17.209 125.21,17.01 125.21,16.768L125.21,1.647C125.21,1.183 125.587,0.806 126.049,0.806L128.279,0.806C128.72,0.806 128.94,1.027 129.207,1.491L134.439,10.588C134.526,10.719 134.549,10.762 134.615,10.762C134.659,10.762 134.726,10.719 134.726,10.565L134.726,1.229C134.726,0.983 134.926,0.806 135.167,0.806L137.771,0.806C138.015,0.806 138.212,0.983 138.212,1.229L138.212,16.371C138.212,16.835 137.817,17.209 137.351,17.209" style="fill:rgb(80,120,156);fill-rule:nonzero;"/></g><g transform="matrix(1,0,0,1,6,0)"><path d="M150.745,7.584C150.745,4.603 149.464,3.81 147.479,3.81C146.926,3.81 146.221,3.833 145.911,3.852L145.911,14.164C146.221,14.185 146.926,14.208 147.479,14.208C149.464,14.208 150.745,13.413 150.745,10.432L150.745,7.584ZM147.479,17.407C145.647,17.407 143.683,17.23 142.776,17.076C142.358,17.01 142.137,16.812 142.137,16.304L142.137,1.711C142.137,1.206 142.358,1.006 142.776,0.939C143.683,0.785 145.647,0.609 147.479,0.609C151.873,0.609 154.521,2.926 154.521,7.584L154.521,10.432C154.521,15.089 151.873,17.407 147.479,17.407" style="fill:rgb(80,120,156);fill-rule:nonzero;"/></g><g transform="matrix(1,0,0,1,6,0)"><path d="M164.014,4.074C163.97,3.852 163.926,3.744 163.726,3.744C163.529,3.744 163.46,3.852 163.419,4.074L162.071,10.168L165.362,10.168L164.014,4.074ZM170.307,17.209L167.215,17.209C166.995,17.209 166.818,17.033 166.774,16.812L165.98,13.192L161.453,13.192L160.658,16.812C160.614,17.033 160.438,17.209 160.217,17.209L157.126,17.209C156.905,17.209 156.751,17.076 156.751,16.856C156.751,16.835 156.772,16.789 156.772,16.745L160.063,3.059C160.568,0.939 162.204,0.609 163.726,0.609C165.251,0.609 166.861,0.939 167.369,3.059L170.658,16.745C170.658,16.789 170.681,16.835 170.681,16.856C170.681,17.076 170.527,17.209 170.307,17.209" style="fill:rgb(80,120,156);fill-rule:nonzero;"/></g><g transform="matrix(1,0,0,1,6,0)"><path d="M184.392,17.209L174.372,17.209C173.864,17.209 173.465,17.01 173.465,16.525L173.465,14.759C173.465,14.451 173.533,14.185 173.795,13.787L179.955,4.472C180.022,4.382 180.045,4.318 180.045,4.251C180.045,4.141 179.955,4.074 179.801,4.074L174.305,4.074C174.062,4.074 173.864,3.898 173.864,3.654L173.864,1.229C173.864,0.983 174.062,0.806 174.305,0.806L183.818,0.806C184.282,0.806 184.702,1.006 184.702,1.426C184.702,1.426 184.725,1.647 184.725,1.957C184.725,2.552 184.702,3.434 184.702,3.434C184.702,3.631 184.636,3.833 184.526,4.008L178.299,13.544C178.235,13.633 178.189,13.723 178.189,13.787C178.189,13.875 178.279,13.943 178.432,13.943L184.392,13.943C184.636,13.943 184.836,14.095 184.836,14.338L184.836,16.768C184.836,17.01 184.636,17.209 184.392,17.209" style="fill:rgb(80,120,156);fill-rule:nonzero;"/></g><g transform="matrix(1,0,0,1,6,0)"><path d="M107.762,26.66L104.473,40.347C103.966,42.464 102.353,42.797 100.831,42.797C99.308,42.797 97.675,42.464 97.165,40.347L93.876,26.66C93.876,26.614 93.855,26.594 93.855,26.55C93.855,26.35 94.03,26.196 94.253,26.196L97.321,26.196C97.542,26.196 97.719,26.373 97.762,26.594L100.521,39.329C100.566,39.573 100.631,39.662 100.831,39.662C101.028,39.662 101.095,39.573 101.141,39.329L103.899,26.594C103.943,26.373 104.099,26.196 104.319,26.196L107.408,26.196C107.629,26.196 107.785,26.33 107.785,26.55C107.785,26.571 107.762,26.614 107.762,26.66" style="fill:rgb(80,120,156);fill-rule:nonzero;"/></g><g transform="matrix(1,0,0,1,6,0)"><path d="M120.167,42.51C119.395,42.62 118.27,42.797 115.886,42.797C113.035,42.797 110.52,42.069 110.52,38.05L110.52,30.721C110.52,26.704 113.058,25.997 115.909,25.997C118.29,25.997 119.395,26.173 120.167,26.286C120.474,26.327 120.608,26.44 120.608,26.727L120.608,28.778C120.608,29.021 120.41,29.219 120.167,29.219L115.688,29.219C114.648,29.219 114.273,29.575 114.273,30.721L114.273,32.731L119.99,32.731C120.233,32.731 120.433,32.928 120.433,33.172L120.433,35.269C120.433,35.512 120.233,35.71 119.99,35.71L114.273,35.71L114.273,38.05C114.273,39.198 114.648,39.552 115.688,39.552L120.167,39.552C120.41,39.552 120.608,39.749 120.608,39.993L120.608,42.046C120.608,42.333 120.474,42.464 120.167,42.51" style="fill:rgb(80,120,156);fill-rule:nonzero;"/></g><g transform="matrix(1,0,0,1,6,0)"><path d="M136.816,26.681L133.483,34.32C133.042,35.335 132.578,35.799 132.048,36.02L132.048,42.156C132.048,42.4 131.85,42.597 131.607,42.597L128.715,42.597C128.472,42.597 128.274,42.4 128.274,42.156L128.274,36.02C127.744,35.799 127.257,35.335 126.816,34.32L123.481,26.681C123.46,26.637 123.46,26.573 123.46,26.527C123.46,26.353 123.593,26.196 123.814,26.196L126.993,26.196C127.213,26.196 127.367,26.373 127.434,26.573L129.818,32.797C129.928,33.084 129.994,33.128 130.148,33.128C130.302,33.128 130.371,33.084 130.479,32.797L132.863,26.573C132.93,26.373 133.084,26.196 133.306,26.196L136.485,26.196C136.705,26.196 136.839,26.353 136.839,26.527C136.839,26.573 136.839,26.637 136.816,26.681" style="fill:rgb(80,120,156);fill-rule:nonzero;"/></g><g transform="matrix(1,0,0,1,6,0)"><path d="M144.179,42.797C142.436,42.797 141.134,42.597 140.006,42.31C139.785,42.244 139.565,42.113 139.565,41.869L139.565,39.706C139.565,39.396 139.742,39.288 139.962,39.288L140.029,39.288C140.934,39.375 143.361,39.552 144.225,39.552C145.748,39.552 146.189,39.067 146.189,38.006C146.189,37.365 145.879,37.012 144.73,36.327L141.685,34.518C139.631,33.305 139.08,31.913 139.08,30.301C139.08,27.873 140.447,25.997 144.73,25.997C146.343,25.997 148.573,26.263 149.411,26.484C149.586,26.527 149.742,26.637 149.742,26.881L149.742,29.111C149.742,29.309 149.654,29.485 149.365,29.485L149.324,29.485C148.704,29.442 146.143,29.242 144.643,29.242C143.384,29.242 142.92,29.619 142.92,30.411C142.92,31.031 143.208,31.318 144.4,31.957L147.224,33.482C149.521,34.717 150.206,36.176 150.206,37.963C150.206,40.301 148.66,42.797 144.179,42.797" style="fill:rgb(80,120,156);fill-rule:nonzero;"/></g><g transform="matrix(1,0,0,1,6,0)"><path d="M162.505,33.082C162.505,30.434 161.623,29.309 159.767,29.309C157.913,29.309 157.052,30.434 157.052,33.082L157.052,35.71C157.052,38.358 157.913,39.485 159.767,39.485C161.623,39.485 162.505,38.358 162.505,35.71L162.505,33.082ZM159.767,42.797C156.124,42.797 153.233,40.831 153.233,35.71L153.233,33.082C153.233,27.963 156.124,25.997 159.767,25.997C163.41,25.997 166.301,27.963 166.301,33.082L166.301,35.71C166.301,40.831 163.41,42.797 159.767,42.797" style="fill:rgb(80,120,156);fill-rule:nonzero;"/></g><g transform="matrix(1,0,0,1,6,0)"><path d="M181.992,42.597L179.829,42.597C179.365,42.597 179.034,42.51 178.68,41.913L173.648,33.215C173.559,33.082 173.515,33.041 173.451,33.041C173.382,33.041 173.338,33.082 173.338,33.215L173.338,42.156C173.338,42.4 173.141,42.597 172.897,42.597L170.293,42.597C170.049,42.597 169.85,42.4 169.85,42.156L169.85,27.035C169.85,26.573 170.226,26.196 170.69,26.196L172.92,26.196C173.361,26.196 173.582,26.417 173.846,26.881L179.078,35.974C179.167,36.107 179.188,36.153 179.255,36.153C179.298,36.153 179.365,36.107 179.365,35.953L179.365,26.614C179.365,26.373 179.562,26.196 179.806,26.196L182.413,26.196C182.654,26.196 182.854,26.373 182.854,26.614L182.854,41.759C182.854,42.221 182.454,42.597 181.992,42.597" style="fill:rgb(80,120,156);fill-rule:nonzero;"/></g><g transform="matrix(1,0,0,1,6,0)"><path d="M198.922,42.597L196.758,42.597C196.296,42.597 195.963,42.51 195.61,41.913L190.577,33.215C190.49,33.082 190.444,33.041 190.38,33.041C190.311,33.041 190.27,33.082 190.27,33.215L190.27,42.156C190.27,42.4 190.07,42.597 189.826,42.597L187.222,42.597C186.979,42.597 186.779,42.4 186.779,42.156L186.779,27.035C186.779,26.573 187.155,26.196 187.619,26.196L189.849,26.196C190.29,26.196 190.511,26.417 190.775,26.881L196.007,35.974C196.097,36.107 196.117,36.153 196.184,36.153C196.227,36.153 196.296,36.107 196.296,35.953L196.296,26.614C196.296,26.373 196.494,26.196 196.737,26.196L199.342,26.196C199.583,26.196 199.783,26.373 199.783,26.614L199.783,41.759C199.783,42.221 199.385,42.597 198.922,42.597" style="fill:rgb(80,120,156);fill-rule:nonzero;"/></g><g transform="matrix(1,0,0,1,6,0)"><path d="M210.047,29.465C210.003,29.244 209.96,29.132 209.76,29.132C209.56,29.132 209.496,29.244 209.45,29.465L208.104,35.556L211.393,35.556L210.047,29.465ZM216.338,42.597L213.246,42.597C213.026,42.597 212.851,42.421 212.805,42.2L212.013,38.58L207.486,38.58L206.691,42.2C206.648,42.421 206.471,42.597 206.25,42.597L203.161,42.597C202.941,42.597 202.785,42.464 202.785,42.244C202.785,42.221 202.805,42.179 202.805,42.133L206.096,28.447C206.604,26.33 208.237,25.997 209.76,25.997C211.282,25.997 212.895,26.33 213.402,28.447L216.691,42.133C216.691,42.179 216.714,42.221 216.714,42.244C216.714,42.464 216.558,42.597 216.338,42.597" style="fill:rgb(80,120,156);fill-rule:nonzero;"/></g><g transform="matrix(1,0,0,1,6,0)"><path d="M230.426,42.597L220.405,42.597C219.898,42.597 219.498,42.4 219.498,41.913L219.498,40.147C219.498,39.837 219.567,39.575 219.829,39.175L225.991,29.86C226.055,29.772 226.078,29.706 226.078,29.639C226.078,29.529 225.991,29.462 225.835,29.462L220.338,29.462C220.095,29.462 219.898,29.286 219.898,29.044L219.898,26.614C219.898,26.373 220.095,26.196 220.338,26.196L229.854,26.196C230.315,26.196 230.736,26.394 230.736,26.814C230.736,26.814 230.756,27.035 230.756,27.345C230.756,27.94 230.736,28.824 230.736,28.824C230.736,29.021 230.669,29.219 230.559,29.398L224.332,38.934C224.268,39.021 224.222,39.109 224.222,39.175C224.222,39.265 224.312,39.331 224.466,39.331L230.426,39.331C230.669,39.331 230.869,39.485 230.869,39.729L230.869,42.156C230.869,42.4 230.669,42.597 230.426,42.597" style="fill:rgb(80,120,156);fill-rule:nonzero;"/></g></g></svg>