<?xml version="1.0" encoding="UTF-8" standalone="no"?><svg xmlns="http://www.w3.org/2000/svg" xmlns:xlink="http://www.w3.org/1999/xlink" xmlns:serif="http://www.serif.com/" width="100%" height="100%" viewBox="0 0 1413 342" version="1.1" xml:space="preserve" style="fill-rule:evenodd;clip-rule:evenodd;stroke-linejoin:round;stroke-miterlimit:2;"><g transform="matrix(4.16667,0,0,4.16667,0,0)"><path d="M115.209,28.628C118.587,32.615 120.279,38.103 120.279,45.089L120.279,79.502C120.279,80.441 119.517,81.203 118.578,81.203L104.891,81.203C103.951,81.203 103.19,80.441 103.19,79.502L103.19,46.571C103.19,43.836 102.487,41.785 101.083,40.418C99.676,39.052 97.836,38.368 95.557,38.368C90.013,38.368 87.241,41.559 87.241,47.937L87.241,79.502C87.241,80.441 86.48,81.203 85.541,81.203L71.853,81.203C70.914,81.203 70.153,80.441 70.153,79.502L70.153,3.158C70.153,2.219 70.914,1.457 71.853,1.457L85.541,1.457C86.48,1.457 87.241,2.219 87.241,3.158L87.241,29.484C88.609,27.358 90.545,25.687 93.052,24.47C95.557,23.256 98.557,22.648 102.052,22.648C107.442,22.648 111.83,24.64 115.209,28.628Z" style="fill:rgb(7,80,163);fill-rule:nonzero;"/><path d="M240.479,28.628C243.857,32.615 245.548,38.103 245.548,45.089L245.548,79.502C245.548,80.441 244.787,81.203 243.847,81.203L230.16,81.203C229.221,81.203 228.459,80.441 228.459,79.502L228.459,46.571C228.459,43.836 227.757,41.785 226.352,40.418C224.946,39.052 223.106,38.368 220.827,38.368C215.283,38.368 212.511,41.559 212.511,47.937L212.511,79.502C212.511,80.441 211.75,81.203 210.811,81.203L197.123,81.203C196.184,81.203 195.422,80.441 195.422,79.502L195.422,25.943C195.422,25.003 196.184,24.242 197.123,24.242L210.811,24.242C211.75,24.242 212.511,25.003 212.511,25.943L212.511,29.484C213.879,27.358 215.815,25.687 218.322,24.47C220.827,23.256 223.827,22.648 227.321,22.648C232.712,22.648 237.099,24.64 240.479,28.628Z" style="fill:rgb(7,80,163);fill-rule:nonzero;"/><path d="M295.164,45.773C294.328,42.736 292.828,40.516 290.665,39.11C288.499,37.704 286.05,37.002 283.315,37.002C280.126,37.002 277.449,37.761 275.285,39.281C273.12,40.8 271.582,42.964 270.671,45.773L295.164,45.773ZM275.798,65.88C278.151,67.439 280.923,68.217 284.113,68.217C286.163,68.217 288.101,67.818 289.922,67.02C291.47,66.344 292.661,65.49 293.497,64.457C293.802,64.081 294.275,63.884 294.759,63.881L308.122,63.79C309.317,63.782 310.169,64.986 309.726,66.096C307.813,70.892 304.818,74.638 300.747,77.331C296.037,80.442 290.415,82 283.886,82C277.734,82 272.303,80.691 267.595,78.07C262.885,75.451 259.259,71.844 256.715,67.248C254.169,62.654 252.898,57.548 252.898,51.925C252.898,46.306 254.19,41.198 256.772,36.603C259.354,32.008 262.961,28.401 267.595,25.781C272.226,23.159 277.506,21.851 283.43,21.851C288.898,21.851 293.814,23.159 298.182,25.781C302.55,28.401 305.966,31.988 308.434,36.546C310.903,41.104 312.138,46.229 312.138,51.925C312.138,53.763 311.999,55.554 311.722,57.299C311.589,58.136 310.882,58.76 310.035,58.76L270.784,58.76C271.77,61.951 273.441,64.326 275.798,65.88Z" style="fill:rgb(7,80,163);fill-rule:nonzero;"/><path d="M1.558,81.203C0.697,81.203 0,80.505 0,79.644L0,2.332C0,1.471 0.697,0.774 1.558,0.774C2.419,0.774 3.117,1.471 3.117,2.332L3.117,79.644C3.117,80.505 2.419,81.203 1.558,81.203Z" style="fill:rgb(7,80,163);fill-rule:nonzero;"/><path d="M6.523,81.203C5.663,81.203 4.965,80.505 4.965,79.644L4.965,5.189C4.965,4.328 5.663,3.63 6.523,3.63C7.384,3.63 8.082,4.328 8.082,5.189L8.082,79.644C8.082,80.505 7.384,81.203 6.523,81.203Z" style="fill:rgb(7,80,163);fill-rule:nonzero;"/><path d="M11.489,81.203C10.628,81.203 9.931,80.505 9.931,79.644L9.931,7.331C9.931,6.47 10.628,5.773 11.489,5.773C12.35,5.773 13.048,6.47 13.048,7.331L13.048,79.644C13.048,80.505 12.35,81.203 11.489,81.203Z" style="fill:rgb(7,80,163);fill-rule:nonzero;"/><path d="M16.455,81.203C15.594,81.203 14.896,80.505 14.896,79.644L14.896,5.189C14.896,4.328 15.594,3.63 16.455,3.63C17.315,3.63 18.013,4.328 18.013,5.189L18.013,79.644C18.013,80.505 17.315,81.203 16.455,81.203Z" style="fill:rgb(7,80,163);fill-rule:nonzero;"/><path d="M41.282,74.63C40.421,74.63 39.724,73.932 39.724,73.071L39.724,5.126C39.724,4.265 40.421,3.568 41.282,3.568C42.143,3.568 42.841,4.265 42.841,5.126L42.841,73.071C42.841,73.932 42.143,74.63 41.282,74.63Z" style="fill:rgb(7,80,163);fill-rule:nonzero;"/><path d="M46.248,49.983C45.387,49.983 44.689,49.285 44.689,48.424L44.689,8.073C44.689,7.212 45.387,6.514 46.248,6.514C47.109,6.514 47.807,7.212 47.807,8.073L47.807,48.424C47.807,49.285 47.109,49.983 46.248,49.983Z" style="fill:rgb(7,80,163);fill-rule:nonzero;"/><path d="M46.248,81.203C45.387,81.203 44.689,80.505 44.689,79.644L44.689,57.469C44.689,56.608 45.387,55.91 46.248,55.91C47.109,55.91 47.807,56.608 47.807,57.469L47.807,79.644C47.807,80.505 47.109,81.203 46.248,81.203Z" style="fill:rgb(7,80,163);fill-rule:nonzero;"/><path d="M51.213,45.113C50.353,45.113 49.655,44.415 49.655,43.554L49.655,13.116C49.655,12.256 50.353,11.558 51.213,11.558C52.074,11.558 52.772,12.256 52.772,13.116L52.772,43.554C52.772,44.415 52.074,45.113 51.213,45.113Z" style="fill:rgb(7,80,163);fill-rule:nonzero;"/><path d="M51.213,81.203C50.353,81.203 49.655,80.505 49.655,79.644L49.655,63.513C49.655,62.652 50.353,61.954 51.213,61.954C52.074,61.954 52.772,62.652 52.772,63.513L52.772,79.644C52.772,80.505 52.074,81.203 51.213,81.203Z" style="fill:rgb(7,80,163);fill-rule:nonzero;"/><path d="M56.179,37.894C55.318,37.894 54.621,37.197 54.621,36.336L54.621,22.563C54.621,21.702 55.318,21.004 56.179,21.004C57.04,21.004 57.738,21.702 57.738,22.563L57.738,36.336C57.738,37.197 57.04,37.894 56.179,37.894Z" style="fill:rgb(7,80,163);fill-rule:nonzero;"/><path d="M56.179,81.203C55.318,81.203 54.621,80.505 54.621,79.644L54.621,69.904C54.621,69.043 55.318,68.345 56.179,68.345C57.04,68.345 57.738,69.043 57.738,69.904L57.738,79.644C57.738,80.505 57.04,81.203 56.179,81.203Z" style="fill:rgb(7,80,163);fill-rule:nonzero;"/><path d="M61.145,81.203C60.284,81.203 59.586,80.505 59.586,79.644L59.586,75.992C59.586,75.131 60.284,74.433 61.145,74.433C62.005,74.433 62.703,75.131 62.703,75.992L62.703,79.644C62.703,80.505 62.005,81.203 61.145,81.203Z" style="fill:rgb(7,80,163);fill-rule:nonzero;"/><path d="M21.42,18.502C20.559,18.502 19.861,17.804 19.861,16.943L19.861,2.332C19.861,1.471 20.559,0.774 21.42,0.774C22.281,0.774 22.979,1.471 22.979,2.332L22.979,16.943C22.979,17.804 22.281,18.502 21.42,18.502Z" style="fill:rgb(7,80,163);fill-rule:nonzero;"/><path d="M21.42,54.946C20.56,54.946 19.862,54.248 19.862,53.387L19.862,40.423C19.862,39.562 20.56,38.865 21.42,38.865C22.281,38.865 22.979,39.562 22.979,40.423L22.979,53.387C22.979,54.248 22.281,54.946 21.42,54.946Z" style="fill:rgb(7,80,163);fill-rule:nonzero;"/><path d="M26.386,18.502C25.525,18.502 24.827,17.804 24.827,16.943L24.827,5.189C24.827,4.328 25.525,3.63 26.386,3.63C27.247,3.63 27.944,4.328 27.944,5.189L27.944,16.943C27.944,17.804 27.247,18.502 26.386,18.502Z" style="fill:rgb(7,80,163);fill-rule:nonzero;"/><path d="M26.386,55.809C25.525,55.809 24.827,55.112 24.827,54.251L24.827,40.423C24.827,39.562 25.525,38.865 26.386,38.865C27.247,38.865 27.944,39.562 27.944,40.423L27.944,54.251C27.944,55.112 27.247,55.809 26.386,55.809Z" style="fill:rgb(7,80,163);fill-rule:nonzero;"/><path d="M31.351,18.502C30.49,18.502 29.793,17.804 29.793,16.943L29.793,7.331C29.793,6.47 30.49,5.773 31.351,5.773C32.212,5.773 32.91,6.47 32.91,7.331L32.91,16.943C32.91,17.804 32.212,18.502 31.351,18.502Z" style="fill:rgb(7,80,163);fill-rule:nonzero;"/><path d="M31.352,61.639C30.491,61.639 29.793,60.941 29.793,60.08L29.793,40.423C29.793,39.562 30.491,38.865 31.352,38.865C32.212,38.865 32.91,39.562 32.91,40.423L32.91,60.08C32.91,60.941 32.212,61.639 31.352,61.639Z" style="fill:rgb(7,80,163);fill-rule:nonzero;"/><path d="M36.317,20.348C35.456,20.348 34.758,19.65 34.758,18.789L34.758,4.005C34.758,3.144 35.456,2.446 36.317,2.446C37.178,2.446 37.876,3.144 37.876,4.005L37.876,18.789C37.876,19.65 37.178,20.348 36.317,20.348Z" style="fill:rgb(7,80,163);fill-rule:nonzero;"/><path d="M36.317,67.966C35.456,67.966 34.758,67.268 34.758,66.407L34.758,38.984C34.758,38.123 35.456,37.426 36.317,37.426C37.178,37.426 37.876,38.123 37.876,38.984L37.876,66.407C37.876,67.268 37.178,67.966 36.317,67.966Z" style="fill:rgb(7,80,163);fill-rule:nonzero;"/><path d="M157.87,1.108C150.933,1.108 144.335,2.378 138.228,4.885C137.347,5.247 136.959,6.281 137.352,7.149L141.775,16.925C142.136,17.722 143.107,18.14 143.92,17.816C148.229,16.099 152.913,15.23 157.87,15.23C162.753,15.23 167.377,16.076 171.64,17.749C172.455,18.069 173.425,17.647 173.781,16.847L178.152,7.047C178.54,6.177 178.146,5.145 177.263,4.788C171.222,2.345 164.707,1.108 157.87,1.108Z" style="fill:rgb(7,80,163);fill-rule:nonzero;"/><path d="M144.124,51.942C144.124,44.88 149.385,39.049 156.232,38.061C157.072,37.94 157.701,37.233 157.701,36.384L157.701,23.59C157.701,22.572 156.869,21.809 155.854,21.889C140.199,23.119 127.882,36.104 127.882,51.942C127.882,67.78 140.199,80.765 155.854,81.995C156.869,82.074 157.701,81.312 157.701,80.293L157.701,67.5C157.701,66.651 157.072,65.944 156.232,65.822C149.385,64.834 144.124,59.004 144.124,51.942Z" style="fill:rgb(7,80,163);fill-rule:nonzero;"/><path d="M171.162,47.654C170.301,47.654 169.603,46.956 169.603,46.095L169.603,26.764C169.603,25.903 170.301,25.205 171.162,25.205C172.023,25.205 172.721,25.903 172.721,26.764L172.721,46.095C172.721,46.956 172.023,47.654 171.162,47.654Z" style="fill:rgb(7,80,163);fill-rule:nonzero;"/><path d="M176.128,75.325C175.267,75.325 174.569,74.628 174.569,73.767L174.569,29.98C174.569,29.119 175.267,28.421 176.128,28.421C176.989,28.421 177.686,29.119 177.686,29.98L177.686,73.767C177.686,74.628 176.989,75.325 176.128,75.325Z" style="fill:rgb(7,80,163);fill-rule:nonzero;"/><path d="M181.093,70.109C180.232,70.109 179.535,69.411 179.535,68.55L179.535,35.373C179.535,34.512 180.232,33.814 181.093,33.814C181.954,33.814 182.652,34.512 182.652,35.373L182.652,68.55C182.652,69.411 181.954,70.109 181.093,70.109Z" style="fill:rgb(7,80,163);fill-rule:nonzero;"/><path d="M186.059,60.586C185.198,60.586 184.5,59.888 184.5,59.027L184.5,45.2C184.5,44.339 185.198,43.641 186.059,43.641C186.92,43.641 187.618,44.339 187.618,45.2L187.618,59.027C187.618,59.888 186.92,60.586 186.059,60.586Z" style="fill:rgb(7,80,163);fill-rule:nonzero;"/><path d="M161.231,38.366C160.37,38.366 159.673,37.669 159.673,36.808L159.673,23.807C159.673,22.946 160.37,22.248 161.231,22.248C162.092,22.248 162.79,22.946 162.79,23.807L162.79,36.808C162.79,37.669 162.092,38.366 161.231,38.366Z" style="fill:rgb(7,80,163);fill-rule:nonzero;"/><path d="M166.197,40.846C165.336,40.846 164.638,40.149 164.638,39.288L164.638,24.711C164.638,23.85 165.336,23.152 166.197,23.152C167.057,23.152 167.755,23.85 167.755,24.711L167.755,39.288C167.755,40.149 167.057,40.846 166.197,40.846Z" style="fill:rgb(7,80,163);fill-rule:nonzero;"/><path d="M171.162,78.874C170.301,78.874 169.603,78.176 169.603,77.316L169.603,57.984C169.603,57.123 170.301,56.425 171.162,56.425C172.023,56.425 172.721,57.123 172.721,57.984L172.721,77.316C172.721,78.176 172.023,78.874 171.162,78.874Z" style="fill:rgb(7,80,163);fill-rule:nonzero;"/><path d="M161.231,81.849C160.37,81.849 159.673,81.151 159.673,80.29L159.673,67.289C159.673,66.428 160.37,65.73 161.231,65.73C162.092,65.73 162.79,66.428 162.79,67.289L162.79,80.29C162.79,81.151 162.092,81.849 161.231,81.849Z" style="fill:rgb(7,80,163);fill-rule:nonzero;"/><path d="M166.197,80.85C165.336,80.85 164.638,80.152 164.638,79.291L164.638,64.714C164.638,63.853 165.336,63.155 166.197,63.155C167.057,63.155 167.755,63.853 167.755,64.714L167.755,79.291C167.755,80.152 167.057,80.85 166.197,80.85Z" style="fill:rgb(7,80,163);fill-rule:nonzero;"/><path d="M337.169,10.717C336.351,9.802 335.228,9.339 333.801,9.334C332.116,9.325 330.745,9.972 329.686,11.275C329.313,10.639 328.815,10.15 328.192,9.81C327.569,9.471 326.882,9.297 326.127,9.294C325.373,9.29 324.689,9.445 324.073,9.759C323.458,10.073 322.954,10.534 322.555,11.142L322.56,10.241C322.561,9.918 322.3,9.656 321.977,9.655L312.355,9.641L312.357,9.492C312.361,8.601 312.589,7.952 313.037,7.548C313.477,7.153 314.115,6.944 314.944,6.94L315.492,6.94C315.793,6.918 316.037,6.681 316.038,6.375L316.051,3.853C316.052,3.53 315.791,3.267 315.468,3.267L315.016,3.265L314.663,3.264C313.206,3.267 312.006,3.554 311.062,4.122C310.709,4.335 310.386,4.579 310.105,4.87C309.059,5.957 308.53,7.491 308.521,9.474L308.52,9.646L306.968,9.641C306.646,9.641 306.385,9.901 306.383,10.222L306.371,12.744C306.369,13.067 306.631,13.33 306.953,13.33L308.501,13.335L308.448,23.909C308.446,24.231 308.706,24.493 309.028,24.495L311.697,24.509C312.019,24.511 312.282,24.251 312.284,23.929L312.355,13.331L318.713,13.339L318.648,23.96C318.646,24.282 318.906,24.545 319.229,24.546L321.899,24.559C322.221,24.561 322.484,24.301 322.486,23.978L322.53,15.342C322.533,14.451 322.749,13.813 323.177,13.427C323.605,13.044 324.126,12.853 324.74,12.855C325.296,12.858 325.752,13.021 326.107,13.34C326.463,13.657 326.638,14.163 326.634,14.857L326.588,24C326.586,24.322 326.846,24.585 327.169,24.586L329.839,24.599C330.161,24.601 330.424,24.341 330.426,24.018L330.47,15.382C330.474,14.491 330.691,13.852 331.117,13.467C331.547,13.084 332.068,12.893 332.682,12.895C333.237,12.898 333.687,13.061 334.033,13.38C334.377,13.697 334.549,14.203 334.545,14.898L334.499,24.038C334.497,24.361 334.757,24.623 335.079,24.625L337.75,24.639C338.072,24.641 338.335,24.381 338.337,24.058L338.385,14.621C338.392,12.935 337.987,11.634 337.169,10.717Z" style="fill:rgb(7,80,163);fill-rule:nonzero;"/></g></svg>