<?xml version="1.0" encoding="UTF-8" standalone="no"?><svg xmlns="http://www.w3.org/2000/svg" xmlns:xlink="http://www.w3.org/1999/xlink" xmlns:serif="http://www.serif.com/" width="100%" height="100%" viewBox="0 0 697 486" version="1.1" xml:space="preserve" style="fill-rule:evenodd;clip-rule:evenodd;stroke-linejoin:round;stroke-miterlimit:2;"><g transform="matrix(1,0,0,1,0,-2.4429)"><g transform="matrix(4.16667,0,0,4.16667,0,0)"><path d="M113.707,34.635C96.817,34.844 75.599,39.14 66.266,48.265C61.543,52.885 59.906,58.442 61.401,64.783C63.059,71.816 68.814,75.726 73.649,77.038C75.384,77.522 76.67,77.496 77.007,77.48C76.756,77.245 75.906,76.444 75.906,76.444C75.905,76.444 74.871,75.108 74.871,75.108C74.103,73.917 73.492,72.526 73.054,70.972C72.784,70.015 72.65,69.058 72.65,68.11C72.65,65.33 73.802,62.645 76.025,60.341C81.317,54.855 92.633,52.085 109.659,52.107C109.664,52.107 119.721,52.292 119.721,52.292C119.733,52.293 119.959,52.265 119.959,52.265C119.983,52.24 120.073,51.998 120.073,51.998C120.394,51.093 121.473,47.801 121.925,43.442C122.181,40.973 122.162,38.198 121.869,35.194L121.771,34.92L121.616,34.868C119.25,34.674 116.662,34.598 113.707,34.635Z" style="fill:white;fill-rule:nonzero;"/><path d="M79.917,1.034L79.915,1.034C77.536,1.249 74.887,1.727 73.167,2.252L73.029,2.29L72.869,2.344C72.869,2.346 72.78,2.528 72.78,2.528C71.513,6.955 65.386,11.776 62.441,14.093L61.21,15.079L60.164,15.962C57.792,17.964 55.551,19.854 53.475,22.098C51.818,23.89 49.503,26.617 47.891,29.429C46.55,31.765 45.663,34.327 45.177,37.261C44.94,38.695 44.817,40.157 44.817,41.507C44.817,42.052 44.837,42.578 44.877,43.078L44.924,43.564C45.069,44.937 45.297,46.129 45.569,46.922C45.569,46.923 45.571,46.926 45.571,46.926C45.605,46.801 45.65,46.633 45.65,46.633L46.075,45.105L46.199,44.692L46.749,42.907C47.935,39.507 49.733,36.514 52.249,33.751C57.597,27.877 63.203,24.666 68.624,21.561C72.836,19.147 76.814,16.868 80.534,13.469C85.528,8.905 87.355,4.602 88.446,2.03C88.446,2.03 88.781,1.25 88.786,1.239C88.77,1.287 88.541,1.229 88.541,1.229C86.354,0.842 82.728,0.761 79.917,1.034Z" style="fill:white;fill-rule:nonzero;"/><path d="M121.403,31.938C121.438,31.941 121.479,31.944 121.479,31.944C121.435,31.941 121.414,31.938 121.403,31.938ZM90,19.747C79.505,21.782 70.413,25.259 62.975,30.081C53.739,36.069 48.949,42.122 46.958,50.318C46.911,50.507 46.889,50.726 46.889,50.972C46.889,52.223 47.476,54.159 48.539,56.352C49.11,57.529 49.713,58.443 50.297,59.326C50.297,59.326 50.354,59.412 50.405,59.491C50.424,59.35 50.448,59.208 50.448,59.208C50.588,58.441 50.8,57.282 51.368,55.755C52.518,52.659 55.212,45.407 67.598,39.438C74.527,36.098 82.63,33.915 92.369,32.765C103.845,31.409 113.819,31.117 121.215,31.92C121.247,31.924 121.301,31.929 121.35,31.933C121.345,31.905 121.341,31.872 121.341,31.872C120.659,28.265 119.077,23.964 117.311,20.913C117.3,20.893 116.12,18.878 116.12,18.878L115.802,18.367C115.801,18.366 115.694,18.204 115.693,18.203C115.692,18.203 115.587,18.111 115.587,18.111C115.588,18.112 115.213,18.033 115.213,18.033C114.231,17.914 111.861,17.796 108.706,17.796C103.385,17.73 96.92,18.405 90,19.747Z" style="fill:white;fill-rule:nonzero;"/><path d="M1.538,95.506C1.538,97.326 2.137,98.794 3.372,99.993C4.652,101.273 5.832,101.836 9.367,103.422C13.979,105.482 16.195,106.62 16.195,109.94C16.195,113.135 13.631,115.455 10.099,115.455C7.697,115.455 5.419,114.764 3.848,113.563C2.499,112.485 1.623,110.94 1.238,108.966C1.231,108.932 1.104,108.486 1.104,108.486C0.342,108.483 0.286,108.949 0.286,109.091C0.286,110.302 0.691,114.049 0.953,115.888C0.975,116.047 1.019,116.378 1.068,116.427C1.067,116.425 1.251,116.446 1.251,116.446L1.594,116.305L2.324,116.044L3.624,116.199C4.949,116.391 7.167,116.714 9.652,116.714C14.06,116.714 16.032,115.669 17.258,114.76C19.004,113.475 20.047,111.357 20.047,109.091C20.047,104.253 16.011,102.488 12.449,100.93C12.397,100.907 12.258,100.845 12.258,100.845C7.083,98.571 4.942,97.629 4.942,94.165C4.942,91.08 7.176,89.008 10.502,89.008C12.275,89.008 13.874,89.455 15.003,90.268C16.571,91.313 17.076,92.827 17.521,94.164L17.76,94.778C18.075,94.772 18.482,94.682 18.482,94.479L18.298,92.467L18.261,92.094C18.147,91.149 18.19,89.421 18.209,88.684L18.214,88.4L18.196,88.218C18.188,88.239 17.831,88.271 17.831,88.271C17.9,88.236 17.294,88.463 17.294,88.463L16.415,88.367L14.939,88.193C13.662,88.057 12.167,87.972 11.038,87.972C5.178,87.972 1.538,90.858 1.538,95.506Z" style="fill:white;fill-rule:nonzero;"/><path d="M45.446,97.892C45.358,97.892 45.331,98.188 45.331,98.188C45.331,98.188 45.347,98.435 45.348,98.445C45.353,98.416 45.67,98.438 45.67,98.438C46.394,98.469 48.057,98.541 48.057,100.109C48.057,100.981 47.434,102.51 46.932,103.738L46.874,103.881C46.873,103.883 43.07,112.338 43.07,112.338C43.022,112.446 42.915,112.511 42.798,112.506C42.681,112.502 42.579,112.424 42.541,112.314C41.919,110.549 38.726,100.982 38.726,100.064C38.726,98.728 39.731,98.663 41.123,98.573C41.123,98.571 41.436,98.497 41.437,98.497C41.436,98.497 41.436,98.49 41.436,98.479C41.436,98.411 41.452,98.188 41.452,98.188L41.425,97.911C41.425,97.916 41.247,97.892 41.247,97.892L37.225,97.937L32.935,97.892C32.694,97.892 32.684,97.892 32.684,98.232L32.707,98.428C33.615,98.576 33.97,98.633 34.443,99.158C34.885,99.746 35.45,101.134 36.329,103.355C36.358,103.429 36.356,103.509 36.322,103.582L32.075,112.432C32.025,112.536 31.92,112.599 31.807,112.596C31.693,112.59 31.593,112.52 31.551,112.414L29.345,106.76L28.646,104.95C28.643,104.941 28.484,104.498 28.484,104.498C27.822,102.649 27.196,100.903 27.196,100.153C27.196,99.151 27.822,98.665 29.288,98.527C29.292,98.527 29.602,98.48 29.606,98.48C29.601,98.48 29.599,98.454 29.599,98.418C29.599,98.332 29.609,98.188 29.609,98.188C29.609,98.188 29.584,97.968 29.575,97.893C29.397,97.896 25.293,97.937 25.293,97.937L21.762,97.892L21.572,97.917C21.572,97.917 21.573,97.919 21.573,97.924C21.573,97.959 21.557,98.098 21.557,98.098C21.557,98.435 21.557,98.435 21.917,98.615C22.436,98.849 22.843,99.436 23.584,100.966C25.233,104.532 27.792,111.262 29.362,115.79C29.383,115.845 29.639,116.461 29.644,116.473C29.654,116.433 31.106,116.225 31.106,116.225C31.106,116.225 31.249,116.2 31.252,116.2C31.252,116.2 31.251,116.2 31.251,116.198C31.251,116.167 31.369,115.875 31.369,115.875C32.814,112.614 33.502,111.161 36.479,105.385C36.531,105.284 36.638,105.223 36.752,105.231C36.866,105.237 36.964,105.312 37.002,105.419C38.692,110.147 39.843,113.85 40.316,115.585C40.405,115.912 40.527,116.358 40.594,116.429C40.631,116.404 41.749,116.27 41.749,116.27C42.123,116.228 42.295,116.111 42.41,115.821C42.42,115.799 43.529,113.271 43.529,113.271C43.534,113.261 43.913,112.443 43.913,112.443C45.291,109.469 46.852,106.099 47.876,104.174C49.203,101.678 50.703,99.059 51.759,98.555C52.014,98.407 52.043,98.392 52.043,98.098L52.014,97.904C51.927,97.892 50.881,97.909 50.88,97.909L48.978,97.937L46.379,97.906L45.447,97.892L45.446,97.892Z" style="fill:white;fill-rule:nonzero;"/><path d="M59.115,97.55C59.112,97.551 56.452,98.765 56.452,98.765L54.405,99.702C54.408,99.701 54.409,99.7 54.409,99.7C54.409,99.702 54.281,99.771 54.281,99.771C53.986,99.926 53.955,99.942 53.955,100.198C53.955,100.198 53.97,100.435 53.97,100.437C53.974,100.423 54.446,100.536 54.446,100.536C56.86,100.838 56.86,101.682 56.86,106.365C56.86,109.024 56.86,112.667 56.489,113.826C56.146,114.903 55.527,115.341 53.943,115.628C53.463,115.731 53.463,115.731 53.463,116.062L53.485,116.282C53.58,116.267 55.291,116.235 55.291,116.235L58.674,116.178L62.401,116.242L63.5,116.267L63.669,116.25L63.669,116.247C63.669,116.217 63.706,115.928 63.706,115.928L63.678,115.661C63.679,115.661 63.256,115.587 63.256,115.587C61.524,115.5 60.446,115.37 60.18,113.878C60.027,113.208 59.952,110.804 59.952,106.544L60.084,100.1C60.086,100.046 60.265,97.362 60.265,97.362C60.251,97.292 60.104,97.267 60.104,97.267C59.818,97.267 59.496,97.359 59.115,97.55ZM56.815,88.758C56.815,89.632 57.889,90.706 58.763,90.706C59.777,90.706 60.89,89.616 60.89,88.624C60.89,87.73 59.792,86.631 58.897,86.631C58.038,86.631 56.815,87.731 56.815,88.758Z" style="fill:white;fill-rule:nonzero;"/><path d="M66.691,102.566C66.691,105.608 69.357,106.845 71.709,107.938C74.536,109.265 76.388,110.295 76.388,112.443C76.388,113.956 75.389,115.723 72.572,115.723C71.792,115.723 67.84,115.516 66.753,111.444L66.571,110.884C66.166,110.897 65.976,110.95 65.976,111.057L66.045,112.033L66.155,113.739L66.127,115.183L66.11,115.928L66.158,116.223C66.181,116.223 66.482,116.178 66.482,116.178L66.807,116.133L67.268,116.193C67.268,116.193 67.902,116.29 67.903,116.291C68.753,116.432 70.176,116.67 71.946,116.67C73.227,116.67 79.614,116.421 79.614,111.503C79.614,108.312 76.683,106.954 74.329,105.864C70.908,104.266 69.515,103.422 69.515,101.494C69.515,100.991 69.677,98.481 72.885,98.481C75.052,98.481 76.733,99.652 77.748,101.867C77.756,101.887 77.939,102.279 77.939,102.279L77.943,102.279C78.471,102.279 78.557,102.221 78.569,102.211L78.569,102.21C78.569,102.201 78.586,102.03 78.586,102.03L78.375,99.356L78.275,98.301C78.267,98.242 78.184,97.767 78.184,97.767C78.158,97.803 77.856,97.848 77.856,97.848L77.532,97.892L76.81,97.81C76.053,97.707 74.786,97.534 73.689,97.534C67.028,97.534 66.691,101.726 66.691,102.566Z" style="fill:white;fill-rule:nonzero;"/><path d="M83.314,102.566C83.314,105.608 85.981,106.845 88.333,107.938C91.16,109.265 93.012,110.295 93.012,112.443C93.012,113.956 92.012,115.723 89.196,115.723C88.415,115.723 84.463,115.516 83.377,111.444L83.194,110.884C82.789,110.897 82.599,110.95 82.599,111.057L82.668,112.033L82.778,113.739L82.751,115.183L82.733,115.928L82.782,116.223C82.805,116.223 83.106,116.178 83.106,116.178L83.43,116.133L83.892,116.193L84.529,116.291C85.378,116.432 86.8,116.67 88.57,116.67C89.85,116.67 96.238,116.421 96.238,111.503C96.238,108.312 93.307,106.954 90.953,105.864C87.531,104.266 86.138,103.423 86.138,101.494C86.138,100.991 86.3,98.481 89.508,98.481C91.674,98.481 93.356,99.652 94.372,101.867C94.38,101.887 94.563,102.279 94.563,102.279L94.567,102.279C95.095,102.279 95.18,102.221 95.193,102.211L95.193,102.21C95.193,102.201 95.21,102.03 95.21,102.03L94.999,99.356L94.899,98.301C94.89,98.242 94.807,97.767 94.807,97.767C94.782,97.803 94.481,97.848 94.481,97.848L94.156,97.892L93.433,97.81C92.676,97.707 91.41,97.534 90.313,97.534C83.652,97.534 83.314,101.726 83.314,102.566Z" style="fill:white;fill-rule:nonzero;"/><path d="M109.29,88.45L105.953,88.553L100.68,88.374C100.68,88.374 100.489,88.387 100.485,88.388C100.49,88.388 100.493,88.412 100.493,88.448C100.493,88.555 100.475,88.758 100.475,88.758L100.485,88.896C100.555,88.952 101.048,89.017 101.343,89.055C103.87,89.451 104.095,90.549 104.095,93.584L104.095,100.064C104.095,103.753 104.095,109.329 103.825,112.112C103.658,113.573 103.451,115.384 100.57,115.631C100.563,115.633 100.088,115.719 100.087,115.719C100.088,115.719 100.089,115.729 100.089,115.746C100.089,115.827 100.072,116.062 100.072,116.062L100.104,116.333C100.104,116.329 100.322,116.357 100.322,116.357L100.847,116.333C101.865,116.273 104.249,116.133 110.377,116.133C116.646,116.133 118.678,116.261 119.654,116.322L120.433,116.357C120.624,116.357 120.686,116.234 120.939,115.344C121.907,111.846 122.157,109.819 122.157,109.224C122.157,109.128 122.157,109.02 121.46,109.02C121.406,109.069 121.309,109.412 121.223,109.712C120.788,111.137 120.001,112.913 118.567,113.761C116.937,114.74 113.784,114.74 111.003,114.74C109.248,114.74 108.188,114.74 107.907,113.395C107.586,112.016 107.544,107.194 107.544,103.147C107.544,100.831 107.573,93.134 107.952,91.336C108.271,89.586 109.357,89.183 111.252,89.054C111.237,89.055 111.762,88.952 111.762,88.952C111.759,88.954 111.789,88.579 111.789,88.579C111.789,88.402 111.761,88.374 111.584,88.374L109.29,88.45Z" style="fill:white;fill-rule:nonzero;"/><path d="M130.033,97.55C130.03,97.551 127.363,98.769 127.363,98.769L125.325,99.702C125.327,99.701 125.328,99.7 125.328,99.7C125.328,99.702 125.2,99.771 125.2,99.771C124.905,99.926 124.874,99.942 124.874,100.198C124.874,100.198 124.889,100.435 124.889,100.437C124.893,100.423 125.364,100.536 125.364,100.536C127.778,100.838 127.778,101.682 127.778,106.365C127.778,109.024 127.778,112.667 127.407,113.826C127.064,114.903 126.446,115.341 124.862,115.628C124.382,115.731 124.382,115.731 124.382,116.062L124.403,116.282C124.498,116.267 126.209,116.235 126.209,116.235L129.591,116.178L133.321,116.242L134.418,116.267L134.588,116.25L134.588,116.247C134.588,116.217 134.625,115.928 134.625,115.928L134.596,115.661C134.597,115.661 134.175,115.587 134.175,115.587C132.444,115.5 131.364,115.37 131.099,113.878C130.946,113.209 130.871,110.804 130.871,106.544L131.004,100.071C131.005,100.046 131.184,97.362 131.184,97.362C131.168,97.292 131.022,97.267 131.022,97.267C130.737,97.267 130.412,97.359 130.033,97.55ZM127.734,88.758C127.734,89.632 128.809,90.706 129.683,90.706C130.696,90.706 131.809,89.616 131.809,88.624C131.809,87.73 130.71,86.631 129.815,86.631C128.955,86.631 127.734,87.731 127.734,88.758Z" style="fill:white;fill-rule:nonzero;"/><path d="M142.154,89.692L142.153,89.692C140.195,92.217 140.154,93.95 140.067,97.747C140.063,97.857 139.999,97.957 139.896,98.002L137.483,99.074C137.449,99.097 137.431,99.528 137.431,99.528L137.438,99.752L139.737,99.689C139.813,99.689 139.887,99.718 139.94,99.772C139.993,99.826 140.024,99.898 140.022,99.975L139.934,112.138C139.845,114.653 139.538,115.327 137.408,115.63C137.415,115.628 137.088,115.708 137.088,115.708C137.088,115.708 137.089,115.715 137.089,115.727C137.089,115.794 137.072,116.018 137.072,116.018C137.072,116.018 137.112,116.337 137.112,116.34C137.117,116.311 138.394,116.281 138.394,116.281L141.167,116.223L145.642,116.287L147.2,116.312C147.808,116.312 147.808,116.312 147.808,115.883L147.784,115.593C147.783,115.601 147.446,115.544 147.446,115.544C144.337,115.544 143.346,115.112 143.249,112.409C143.249,112.403 143.159,99.93 143.159,99.93C143.158,99.855 143.188,99.782 143.242,99.728C143.296,99.674 143.37,99.645 143.446,99.645L149.522,99.645C149.817,99.645 149.817,99.645 149.817,98.813L149.819,98.565L149.792,97.954L143.446,97.981C143.288,97.981 143.159,97.854 143.159,97.695C143.159,90.772 143.387,87.444 148.496,87.444C150.847,87.444 151.999,88.197 152.659,88.765C152.657,88.762 153.014,89.07 153.014,89.07C153.238,89.268 153.45,89.455 153.546,89.455C153.846,89.44 155.672,88.62 155.672,87.819C155.672,86.768 153.896,85.245 150.685,85.245C146.913,85.245 143.805,87.542 142.154,89.692Z" style="fill:white;fill-rule:nonzero;"/><path d="M154.699,105.778C154.634,105.723 154.599,105.641 154.6,105.557C154.646,102.079 155.955,98.571 158.772,98.571C161.205,98.571 163.037,101.266 163.037,103.012C163.037,103.719 162.542,104.11 161.213,104.452C157.975,105.262 156.829,105.527 154.933,105.843C154.85,105.858 154.763,105.834 154.699,105.778ZM151.329,108.062C151.329,110.083 151.868,116.67 158.817,116.67C162.014,116.67 164.88,115.168 166.362,113.879C166.759,113.571 166.798,113.463 166.798,113.293C166.796,113.29 166.737,112.927 166.737,112.927C166.737,112.927 166.675,112.772 166.677,112.778C164.33,114.482 161.911,114.694 160.963,114.694C155.559,114.694 154.743,109.285 154.644,106.959L154.644,106.946C154.644,106.81 154.739,106.691 154.874,106.666C158.085,106.015 162.325,105.184 166.709,104.499C166.709,104.478 166.713,104.469 166.713,104.442C166.713,104.118 166.608,103.36 166.36,102.368C165.388,98.803 162.339,97.534 160.025,97.534C155.75,97.534 151.329,101.473 151.329,108.062Z" style="fill:white;fill-rule:nonzero;"/><path d="M122.209,43.472C122.477,40.891 122.438,38.077 122.154,35.166C122.137,34.981 122.09,34.835 121.973,34.718C121.879,34.624 121.778,34.595 121.64,34.583C119.26,34.388 116.655,34.312 113.703,34.349C96.939,34.557 75.54,38.798 66.066,48.061C61.623,52.406 59.494,57.939 61.123,64.849C62.974,72.707 69.509,76.211 73.574,77.314C75.645,77.892 77.2,77.761 77.2,77.761C77.2,77.761 77.496,77.788 77.526,77.64C77.544,77.547 77.287,77.352 77.287,77.352C77.287,77.352 76.541,76.713 76.117,76.251C75.683,75.776 75.46,75.477 75.109,74.949C74.494,73.995 73.836,72.692 73.33,70.894C72.244,67.049 73.443,63.429 76.231,60.539C80.976,55.621 91.411,52.37 109.658,52.394L119.715,52.578C119.715,52.578 120.027,52.6 120.149,52.478C120.238,52.389 120.234,52.401 120.344,52.094C120.941,50.402 121.818,47.24 122.209,43.472Z" style="fill:rgb(237,25,58);fill-rule:nonzero;"/><path d="M88.589,0.946C86.41,0.562 82.782,0.468 79.888,0.749C77.55,0.96 74.847,1.44 73.084,1.978C72.899,2.033 72.762,2.047 72.668,2.141C72.585,2.224 72.539,2.334 72.505,2.447C71.046,7.544 62.999,13.188 61.025,14.86C58.21,17.246 55.652,19.323 53.265,21.903C51.223,24.111 49.095,26.753 47.642,29.286C46.119,31.941 45.326,34.609 44.895,37.214C44.529,39.425 44.462,41.489 44.592,43.101L44.591,43.101C44.593,43.113 44.623,43.449 44.64,43.598C44.882,45.904 45.272,46.931 45.31,47.05C45.375,47.249 45.437,47.466 45.597,47.466C45.75,47.466 45.793,47.192 45.843,47.015C45.894,46.838 46.132,45.912 46.349,45.187C46.607,44.328 46.75,43.839 47.021,42.995C47.831,40.674 49.31,37.403 52.46,33.943C61.875,23.605 72.125,21.542 80.727,13.68C86.177,8.699 87.875,4.061 88.968,1.536C89.041,1.371 89.126,1.246 89.04,1.125C88.962,1.017 88.795,0.982 88.589,0.946Z" style="fill:rgb(237,25,58);fill-rule:nonzero;"/><path d="M121.621,31.814C120.969,28.363 119.421,23.987 117.558,20.77C117.207,20.032 116.469,18.906 116.045,18.217C115.865,17.923 115.9,18.025 115.795,17.914C115.645,17.753 115.217,17.747 115.217,17.747C114.146,17.615 111.66,17.51 108.706,17.51L108.697,17.51C103.511,17.445 97.07,18.084 89.945,19.466C79.393,21.512 70.24,25.029 62.819,29.841C54.828,35.022 48.957,40.879 46.679,50.25C46.321,51.724 47.261,54.372 48.281,56.477C48.919,57.792 49.597,58.783 50.234,59.751C50.32,59.881 50.433,60.021 50.531,59.964C50.599,59.924 50.616,59.852 50.648,59.69C50.793,58.981 50.957,57.682 51.636,55.855C52.871,52.532 55.694,45.493 67.722,39.695C75.736,35.833 84.441,33.989 92.402,33.049C105.012,31.56 114.575,31.487 121.184,32.205C121.359,32.225 121.566,32.267 121.619,32.173C121.672,32.079 121.65,31.97 121.621,31.814Z" style="fill:rgb(237,25,58);fill-rule:nonzero;"/><path d="M114.803,37.569L111.297,37.569L111.297,41.577L107.291,41.577L107.291,45.082L111.297,45.082L111.297,49.09L114.803,49.09L114.803,45.082L118.813,45.082L118.813,41.577L114.803,41.577L114.803,37.569Z" style="fill:white;fill-rule:nonzero;"/><path d="M17.428,114.99C16.043,116.018 13.942,117 9.652,117C6.033,117 3.039,116.33 2.324,116.33C1.788,116.33 1.743,116.733 1.251,116.733C0.804,116.733 0.759,116.598 0.67,115.928C0.402,114.05 0,110.297 0,109.091C0,108.688 0.268,108.198 1.072,108.198C1.385,108.198 1.43,108.465 1.519,108.912C1.876,110.745 2.681,112.264 4.021,113.336C5.541,114.499 7.731,115.169 10.099,115.169C13.406,115.169 15.909,113.067 15.909,109.94C15.909,106.812 13.853,105.74 9.25,103.684C5.765,102.12 4.513,101.539 3.172,100.198C1.608,98.679 1.251,96.937 1.251,95.506C1.251,90.948 4.647,87.686 11.038,87.686C12.2,87.686 13.719,87.775 14.97,87.908C16.177,88.043 17.16,88.177 17.294,88.177C17.473,88.177 17.607,88.087 17.741,87.998C17.875,87.954 17.92,87.954 18.188,87.954C18.456,87.954 18.501,88.133 18.501,88.4C18.501,88.669 18.411,90.948 18.545,92.065C18.635,92.958 18.769,94.254 18.769,94.479C18.769,94.925 18.188,95.06 17.786,95.06C17.518,95.06 17.473,94.925 17.25,94.254C16.803,92.914 16.311,91.484 14.836,90.501C13.719,89.696 12.155,89.294 10.502,89.294C7.507,89.294 5.228,91.127 5.228,94.165C5.228,97.473 7.329,98.366 12.512,100.645C16.087,102.209 20.333,104.042 20.333,109.091C20.333,111.817 18.948,113.873 17.428,114.99Z" style="fill:rgb(35,31,32);fill-rule:nonzero;"/><path d="M51.882,98.813C50.855,99.305 49.246,102.209 48.128,104.308C47.011,106.409 45.224,110.297 43.793,113.381C43.481,114.141 42.811,115.661 42.676,115.928C42.498,116.376 42.185,116.509 41.783,116.554L40.666,116.687C40.353,116.733 40.308,116.642 40.04,115.661C39.503,113.694 38.297,109.895 36.733,105.516C33.694,111.415 33.024,112.845 31.638,115.973C31.46,116.463 31.46,116.463 31.147,116.509L29.583,116.733C29.404,116.733 29.359,116.598 29.091,115.883C27.572,111.503 24.98,104.667 23.326,101.091C22.656,99.706 22.254,99.081 21.852,98.902C21.315,98.634 21.271,98.634 21.271,98.098C21.271,97.74 21.36,97.606 21.762,97.606C22.701,97.606 24.578,97.65 25.293,97.65C26.857,97.65 28.287,97.606 29.672,97.606C29.851,97.606 29.896,97.875 29.896,98.188C29.896,98.724 29.851,98.769 29.314,98.813C27.885,98.946 27.482,99.394 27.482,100.153C27.482,100.913 28.242,102.968 28.913,104.844C29.627,106.678 30.342,108.599 31.817,112.308C32.622,110.654 35.124,105.471 36.063,103.461C35.213,101.315 34.632,99.886 34.231,99.349C33.828,98.902 33.56,98.857 32.711,98.724C32.443,98.679 32.398,98.5 32.398,98.232C32.398,97.784 32.487,97.606 32.935,97.606C34.141,97.606 36.42,97.65 37.225,97.65C38.208,97.65 40.755,97.606 41.247,97.606C41.693,97.606 41.738,97.784 41.738,98.188C41.738,98.724 41.693,98.769 41.157,98.857C39.772,98.946 39.012,98.991 39.012,100.064C39.012,100.868 41.961,109.806 42.811,112.219C44.151,109.315 45.715,105.919 46.609,103.772C47.101,102.566 47.771,100.958 47.771,100.109C47.771,98.946 46.698,98.769 45.67,98.724C45.089,98.724 45.045,98.679 45.045,98.188C45.045,97.784 45.089,97.606 45.447,97.606C45.939,97.606 47.547,97.65 48.978,97.65C50.05,97.65 51.346,97.606 51.927,97.606C52.24,97.606 52.329,97.784 52.329,98.098C52.329,98.545 52.195,98.634 51.882,98.813Z" style="fill:rgb(35,31,32);fill-rule:nonzero;"/><path d="M58.763,90.992C57.735,90.992 56.529,89.786 56.529,88.758C56.529,87.551 57.914,86.345 58.897,86.345C59.925,86.345 61.176,87.551 61.176,88.624C61.176,89.741 59.97,90.992 58.763,90.992ZM63.5,116.554C62.875,116.554 60.864,116.463 58.674,116.463C56.931,116.463 54.429,116.554 53.58,116.554C53.267,116.554 53.177,116.463 53.177,116.062C53.177,115.526 53.267,115.481 53.892,115.346C55.367,115.08 55.903,114.722 56.216,113.739C56.574,112.621 56.574,108.957 56.574,106.365C56.574,101.716 56.574,101.091 54.429,100.824C53.713,100.689 53.669,100.689 53.669,100.198C53.669,99.706 53.892,99.662 54.294,99.439C55.144,99.081 57.914,97.74 58.987,97.294C59.434,97.069 59.792,96.98 60.104,96.98C60.417,96.98 60.551,97.115 60.551,97.383C60.506,98.009 60.417,99.349 60.372,100.064C60.328,101.091 60.238,103.103 60.238,106.544C60.238,107.929 60.238,112.845 60.461,113.827C60.685,115.08 61.534,115.212 63.277,115.302C63.902,115.346 63.992,115.437 63.992,115.928C63.992,116.463 63.858,116.554 63.5,116.554Z" style="fill:rgb(35,31,32);fill-rule:nonzero;"/><path d="M71.946,116.956C70.069,116.956 68.55,116.687 67.746,116.554C67.343,116.509 66.986,116.419 66.807,116.419C66.673,116.419 66.36,116.509 66.181,116.509C65.913,116.509 65.824,116.286 65.824,115.928C65.824,115.437 65.869,114.676 65.869,113.739C65.869,113.024 65.69,111.46 65.69,111.057C65.69,110.7 66.047,110.61 66.539,110.61C66.807,110.61 66.852,110.7 67.03,111.37C67.924,114.722 70.963,115.437 72.572,115.437C75.432,115.437 76.102,113.56 76.102,112.443C76.102,110.521 74.538,109.583 71.588,108.198C69.086,107.036 66.405,105.74 66.405,102.566C66.405,100.511 67.835,97.249 73.689,97.249C75.298,97.249 77.219,97.606 77.532,97.606C77.667,97.606 77.979,97.517 78.158,97.517C78.471,97.517 78.471,97.606 78.56,98.276C78.65,99.305 78.873,101.315 78.873,102.03C78.873,102.432 78.783,102.566 77.979,102.566C77.755,102.566 77.667,102.477 77.487,101.985C76.996,100.913 75.745,98.769 72.885,98.769C70.203,98.769 69.801,100.645 69.801,101.494C69.801,103.237 71.008,103.996 74.449,105.605C76.862,106.721 79.9,108.153 79.9,111.503C79.9,116.152 74.538,116.956 71.946,116.956Z" style="fill:rgb(35,31,32);fill-rule:nonzero;"/><path d="M88.57,116.956C86.693,116.956 85.173,116.687 84.369,116.554C83.967,116.509 83.609,116.419 83.43,116.419C83.296,116.419 82.983,116.509 82.805,116.509C82.537,116.509 82.447,116.286 82.447,115.928C82.447,115.437 82.492,114.676 82.492,113.739C82.492,113.024 82.313,111.46 82.313,111.057C82.313,110.7 82.671,110.61 83.163,110.61C83.43,110.61 83.475,110.7 83.654,111.37C84.547,114.722 87.586,115.437 89.196,115.437C92.055,115.437 92.726,113.56 92.726,112.443C92.726,110.521 91.162,109.583 88.212,108.198C85.71,107.036 83.028,105.74 83.028,102.566C83.028,100.511 84.459,97.249 90.313,97.249C91.921,97.249 93.843,97.606 94.156,97.606C94.29,97.606 94.603,97.517 94.782,97.517C95.094,97.517 95.094,97.606 95.184,98.276C95.273,99.305 95.497,101.315 95.497,102.03C95.497,102.432 95.407,102.566 94.603,102.566C94.379,102.566 94.29,102.477 94.111,101.985C93.62,100.913 92.369,98.769 89.508,98.769C86.827,98.769 86.424,100.645 86.424,101.494C86.424,103.237 87.631,103.996 91.073,105.605C93.486,106.721 96.524,108.153 96.524,111.503C96.524,116.152 91.162,116.956 88.57,116.956Z" style="fill:rgb(35,31,32);fill-rule:nonzero;"/><path d="M121.236,115.346C120.969,116.286 120.879,116.642 120.433,116.642C119.493,116.642 118.734,116.419 110.377,116.419C102.646,116.419 100.858,116.642 100.322,116.642C99.876,116.642 99.786,116.509 99.786,116.062C99.786,115.437 99.831,115.437 100.546,115.346C103.138,115.124 103.361,113.649 103.54,112.086C103.809,109.315 103.809,103.728 103.809,100.064L103.809,93.584C103.809,90.591 103.585,89.696 101.306,89.339C100.278,89.205 100.188,89.16 100.188,88.758C100.188,88.133 100.278,88.087 100.68,88.087C102.065,88.087 104.657,88.267 105.953,88.267C107.606,88.267 110.467,88.087 111.584,88.087C111.896,88.087 112.075,88.222 112.075,88.579C112.075,89.205 112.031,89.25 111.271,89.339C109.305,89.474 108.501,89.92 108.231,91.395C107.874,93.093 107.83,100.242 107.83,103.147C107.83,107.214 107.874,111.996 108.188,113.336C108.411,114.408 109.126,114.454 111.003,114.454C113.773,114.454 116.856,114.454 118.421,113.515C119.628,112.8 120.433,111.325 120.924,109.716C121.103,109.091 121.192,108.734 121.46,108.734C122.31,108.734 122.443,108.912 122.443,109.224C122.443,109.895 122.175,111.951 121.236,115.346Z" style="fill:rgb(35,31,32);fill-rule:nonzero;"/><path d="M129.683,90.992C128.654,90.992 127.448,89.786 127.448,88.758C127.448,87.551 128.832,86.345 129.815,86.345C130.845,86.345 132.096,87.551 132.096,88.624C132.096,89.741 130.888,90.992 129.683,90.992ZM134.418,116.554C133.793,116.554 131.783,116.463 129.591,116.463C127.85,116.463 125.347,116.554 124.498,116.554C124.186,116.554 124.096,116.463 124.096,116.062C124.096,115.526 124.186,115.481 124.812,115.346C126.286,115.08 126.822,114.722 127.135,113.739C127.492,112.621 127.492,108.957 127.492,106.365C127.492,101.716 127.492,101.091 125.347,100.824C124.632,100.689 124.588,100.689 124.588,100.198C124.588,99.706 124.812,99.662 125.214,99.439C126.062,99.081 128.832,97.74 129.905,97.294C130.353,97.069 130.709,96.98 131.022,96.98C131.335,96.98 131.47,97.115 131.47,97.383C131.425,98.009 131.335,99.349 131.291,100.064C131.246,101.091 131.157,103.103 131.157,106.544C131.157,107.929 131.157,112.845 131.38,113.827C131.604,115.08 132.452,115.212 134.196,115.302C134.821,115.346 134.911,115.437 134.911,115.928C134.911,116.463 134.776,116.554 134.418,116.554Z" style="fill:rgb(35,31,32);fill-rule:nonzero;"/><path d="M153.546,89.741C153.276,89.741 153.009,89.429 152.474,88.981C151.847,88.444 150.775,87.73 148.496,87.73C143.67,87.73 143.446,90.68 143.446,97.695L149.701,97.695C150.149,97.695 150.104,97.83 150.104,98.813C150.104,99.706 150.104,99.93 149.522,99.93L143.446,99.93C143.446,104.086 143.491,109.716 143.534,112.397C143.625,114.9 144.474,115.258 147.467,115.258C148.048,115.302 148.093,115.391 148.093,115.883C148.093,116.463 148.004,116.598 147.2,116.598C146.529,116.598 143.267,116.509 141.167,116.509C139.646,116.509 137.771,116.598 137.055,116.598C136.831,116.598 136.787,116.33 136.787,116.018C136.787,115.481 136.831,115.437 137.367,115.346C139.245,115.08 139.559,114.632 139.646,112.128C139.737,109.18 139.737,103.192 139.737,99.975L137.413,99.975C137.146,99.93 137.146,99.886 137.146,99.528C137.146,98.991 137.146,98.946 137.367,98.813L139.78,97.74C139.871,93.853 139.916,92.109 141.926,89.518C143.849,87.015 147.109,84.959 150.685,84.959C154.037,84.959 155.959,86.568 155.959,87.819C155.959,88.848 153.903,89.741 153.546,89.741Z" style="fill:rgb(35,31,32);fill-rule:nonzero;"/><path d="M158.772,98.857C156.138,98.857 154.93,102.253 154.885,105.561C156.763,105.248 157.925,104.979 161.142,104.175C162.526,103.818 162.75,103.461 162.75,103.012C162.75,101.405 161.009,98.857 158.772,98.857ZM166.55,114.096C164.851,115.571 161.901,116.956 158.817,116.956C152.384,116.956 151.042,111.46 151.042,108.062C151.042,101.091 155.779,97.249 160.025,97.249C162.17,97.249 165.566,98.366 166.638,102.298C166.907,103.371 167.13,104.711 166.907,104.756C162.884,105.382 158.908,106.141 154.93,106.946C155.063,110.074 156.271,114.408 160.963,114.408C162.393,114.408 164.628,114.006 166.684,112.443C166.817,112.308 166.907,112.264 166.951,112.443C166.996,112.754 167.041,112.979 167.085,113.292C167.085,113.604 166.951,113.783 166.55,114.096Z" style="fill:rgb(35,31,32);fill-rule:nonzero;"/></g></g></svg>