<?xml version="1.0" encoding="UTF-8" standalone="no"?><svg xmlns="http://www.w3.org/2000/svg" xmlns:xlink="http://www.w3.org/1999/xlink" xmlns:serif="http://www.serif.com/" width="100%" height="100%" viewBox="0 0 1800 1955" version="1.1" xml:space="preserve" style="fill-rule:evenodd;clip-rule:evenodd;stroke-linejoin:round;stroke-miterlimit:2;"><g id="Calque-1" serif:id="Calque 1" transform="matrix(4.66722,0,0,4.66722,-1050.99,-413.257)"><g transform="matrix(0.944444,0,0,0.944444,600.297,229.461)"><path d="M0,145.114C0,151.306 -5.008,156.291 -11.181,156.291L-31.943,156.291C-35.062,162.858 -39.34,168.859 -44.069,172.763L-167.134,274.303C-181.417,286.09 -204.576,286.09 -218.859,274.303L-341.928,172.763C-346.657,168.859 -350.935,162.858 -354.049,156.291L-374.824,156.291C-380.997,156.291 -386.005,151.306 -386.005,145.114L-386.005,50.484C-386.005,44.315 -380.997,39.307 -374.824,39.307L-357.976,39.307L-357.976,28.13C-357.976,26.626 -357.953,25.128 -357.913,23.634L-357.891,22.001L-357.843,21.783C-354.506,-66.391 -281.985,-136.852 -192.995,-136.852C-102.417,-136.852 -28.901,-63.856 -28.033,26.517L-28.013,26.636L-28.013,39.307L-11.181,39.307C-5.008,39.307 0,44.315 0,50.484L0,145.114ZM-11.181,28.13L-15.561,28.13C-15.591,-69.815 -94.999,-149.206 -192.951,-149.206C-290.903,-149.206 -370.312,-69.815 -370.342,28.13L-374.824,28.13C-387.153,28.13 -397.178,38.158 -397.178,50.484L-397.178,145.114C-397.178,157.439 -387.153,167.468 -374.824,167.468L-360.709,167.468C-357.319,173.058 -353.296,177.875 -349.037,181.384L-225.973,282.924C-217.069,290.273 -205.358,294.32 -192.997,294.32C-180.635,294.32 -168.924,290.273 -160.016,282.924L-36.955,181.384C-32.701,177.875 -28.678,173.058 -25.284,167.468L-11.181,167.468C1.144,167.468 11.177,157.439 11.177,145.114L11.177,50.484C11.177,38.158 1.144,28.13 -11.181,28.13" style="fill:rgb(228,245,253);fill-rule:nonzero;"/></g><g transform="matrix(0.944444,0,0,0.944444,265.909,118.105)"><path d="M0,125.478C0.511,125.031 0.351,124.297 0.351,124.297C0.351,124.297 1.341,122.382 1.277,122.286C1.213,122.19 2.011,119.796 1.851,119.318C1.692,118.839 2.841,116.764 2.841,116.764L3.511,117.243L3.766,117.211C3.766,117.211 5.043,116.445 5.426,115.934C5.809,115.423 6.958,116.732 6.958,116.732C6.958,116.732 7.182,117.371 6.863,117.977C6.543,118.583 7.405,118.392 7.693,118.52C7.98,118.647 8.746,118.232 8.746,118.232C8.746,118.232 9.416,117.179 10.47,117.626C11.523,118.073 11.299,117.945 11.299,117.945C11.299,117.945 12.289,117.339 12.768,116.636C13.246,115.934 13.183,116.445 13.757,116.956C14.332,117.466 14.779,117.02 14.874,116.764C14.97,116.509 15.353,115.743 15.449,114.945C15.545,114.147 15.002,114.051 14.906,113.189C14.81,112.327 15.896,112.806 15.928,112.455C15.96,112.104 15.864,112.168 15.608,111.402C15.353,110.636 16.215,111.274 16.151,110.348C16.087,109.423 16.726,109.008 17.172,108.561C17.619,108.114 17.556,108.912 17.524,107.795C17.492,106.678 18.353,107.795 18.385,107.508C18.417,107.22 18.768,105.975 18.768,105.975C18.768,105.975 18.864,106.518 19.726,105.88C20.588,105.241 20.364,105.944 20.62,105.465C20.875,104.986 20.684,104.858 21.45,103.965C22.216,103.071 21.992,104.284 22.184,103.805C22.375,103.326 22.854,102.337 22.854,102.337C22.854,102.337 24.163,102.145 24.354,101.826C24.546,101.507 24.195,101.251 24.195,101.251C24.195,101.251 25.025,99.847 25.439,99.592C25.854,99.336 27.897,99.911 27.45,99.272C27.004,98.634 27.961,97.772 27.961,97.772C27.961,97.772 29.493,96.751 29.876,96.24C30.259,95.729 31.281,96.112 31.919,95.346C32.557,94.58 32.174,94.772 33.196,92.123C34.217,89.473 34.505,92.569 35.558,91.899C36.611,91.229 36.994,91.165 36.643,90.048C36.292,88.931 38.462,88.26 39.197,87.399C39.931,86.537 40.058,86.984 40.154,86.345C40.25,85.707 41.622,85.388 43.218,83.919C44.814,82.451 43.442,83.568 43.825,83.217C44.208,82.866 43.761,82.196 43.633,81.877C43.506,81.557 43.442,81.111 43.633,80.504C43.825,79.898 43.697,80.345 44.336,79.578C44.974,78.812 44.527,78.461 44.527,78.461C44.527,78.461 44.719,76.833 45.07,76.291C45.421,75.748 45.772,75.652 46.059,75.397C46.346,75.142 46.634,74.886 46.602,74.344C46.57,73.801 46.857,73.865 47.113,73.801C47.368,73.737 48.357,73.258 48.166,73.29C47.974,73.322 48.389,72.524 48.198,72.365C48.006,72.205 48.453,70.545 48.453,70.545L49.634,70.386L51.326,70.45L51.932,69.3L53.273,69.524L54.518,69.3L55.954,68.343L55.724,64.128L55.772,63.911L55.905,63.275C55.905,63.275 55.905,63.022 55.88,62.806C55.857,62.59 56.481,62.65 56.626,62.397C56.77,62.145 57.238,62.157 57.262,62.097C57.286,62.037 57.803,62.181 57.803,62.181L57.815,62.025L57.959,61.736L58.164,61.436L58.452,61.472L58.74,61.736L59.113,61.712L59.113,57.567L60.158,57.543L60.134,58.191L60.867,58.155L61.06,57.939L61.228,57.639L61.228,55.019L62.105,54.959L62.081,55.824L62.862,55.812L62.814,55.019L63.715,55.007L63.691,55.896L64.46,55.896L64.4,55.127L65.302,55.091L65.29,55.92L66.119,55.896L66.034,55.175L66.876,55.163L66.936,55.92L67.777,55.944L67.741,55.259L68.75,55.247L68.75,56.041L68.967,56.041L68.979,55.44L69.531,55.452L69.507,56.185L69.712,56.185L69.736,55.56L70.24,55.716L70.216,56.389L70.697,56.449L70.685,55.692L71.382,55.824L71.394,55.596L71.827,55.668L71.971,55.223L72.499,55.271L72.512,54.707L73.088,54.671L73.076,54.082L74.026,54.022L74.002,54.731L74.662,54.719L74.602,55.175L75.203,55.139L75.143,55.968L75.732,55.872L76.405,55.067L76.345,54.058L77.667,54.058L77.643,55.007L78.604,55.019L78.532,53.986L78.856,53.998L78.832,53.433L79.89,53.445L81.788,53.962L81.788,58.023L83.147,58.393L83.147,59.247L83.843,59.345L83.831,60.018L83.987,60.03L83.987,59.429L84.925,59.525L84.937,58.888L85.441,58.9L85.429,58.336L85.874,58.336L85.874,57.771L86.319,57.759L86.306,57.026C86.306,57.026 87.292,57.014 87.328,57.014C87.364,57.014 87.316,57.47 87.316,57.47L87.532,57.482L87.52,57.11L88.782,57.266L88.794,60.823L90.44,60.811L90.38,60.21L91.498,60.186L91.498,60.763L92.387,60.787L92.387,60.138L93.553,60.138L93.589,60.763L94.141,60.619L94.117,57.398L96.16,57.362L96.138,61.818L97.518,61.793L97.487,68.091C98.636,68.535 100.162,69.535 100.162,69.535C100.162,69.535 100.871,71.542 102.048,72.143C103.226,72.744 105.978,74.426 105.978,74.426C105.978,74.426 107.263,76.337 107.408,76.313C107.552,76.289 109.967,77.562 109.967,77.562C109.967,77.562 111.061,78.247 111.734,78.319C112.407,78.391 117.622,81.948 117.622,81.948C117.622,81.948 118.475,83.871 118.499,84.352C118.523,84.832 119.28,84.796 120.578,84.64C121.876,84.484 123.125,85.433 123.966,85.373C124.808,85.313 124.796,85.746 124.796,85.746C124.796,85.746 124.519,86.322 125.072,86.406C125.625,86.491 126.742,88.63 127.127,89.363C127.511,90.096 129.049,93.004 129.049,93.004C129.049,93.004 131.14,94.962 131.249,95.503C131.357,96.044 133.255,97.978 133.448,98.002C133.64,98.026 135.382,101.295 135.466,101.559C135.55,101.824 136.956,102.004 137.389,102.389C137.822,102.773 138.735,103.458 139.059,102.965C139.384,102.473 140.129,102.028 142.268,102.953C144.407,103.879 143.085,104.744 142.364,105.345C141.643,105.945 141.739,105.597 141.667,105.969C141.595,106.342 142.544,106.222 142.796,106.546C143.049,106.871 143.481,106.859 143.662,106.678C143.842,106.498 144.587,106.775 145.428,106.883C146.269,106.991 146.341,107.363 146.341,107.363L148,107.411L147.807,107.187L148.088,106.987L148.088,106.41L148.913,106.378L148.897,105.905L149.674,105.913L149.626,105.441L150.363,105.401L150.363,105.04L151.188,105.032L151.22,104.519L151.933,104.527L151.965,104.151L152.926,104.111L152.886,104.471L154.393,104.375L154.376,103.887L155.145,103.863L155.129,103.542L155.554,103.526L155.627,103.209L157.329,103.081L157.308,104.592L157.882,104.763L157.818,105.082L158.499,105.401L159.308,105.209L160.968,105.443L164.096,106.827L165.373,101.486L165.543,100.932L165.777,101.528L166.85,105.53L166.901,105.363L167.135,105.959L167.63,107.803L168.405,108.21C168.405,108.21 169.841,107.555 170.927,107.587C172.012,107.619 172.235,106.933 172.347,106.47C172.459,106.007 174.007,105.337 174.007,105.337C174.007,105.337 175.826,104.443 176.72,104.587C177.614,104.731 179.577,104.539 179.577,104.539L179.8,102.193L179.8,98.49L180.758,96.432L181.763,98.506L181.779,101.363L181.944,101.232L182.116,100.863L182.197,101.031L182.944,100.438L182.992,100.102L183.407,100.134C183.949,100.773 185.928,102.241 185.928,102.241L185.897,102.911L187.141,102.305L188.61,101.443L189.312,100.677C190.014,99.911 189.312,100.677 190.397,100.134C191.482,99.592 191.706,100.581 191.706,100.581L192.568,100.422L193.398,99.113L194.515,99.879L194.866,100.581L195.728,100.262L196.845,99.751L197.228,100.07L197.962,99.687L198.377,98.219L199.909,97.804L200.452,98.538L201.282,98.698C201.282,98.698 201.952,97.485 202.494,97.357C203.037,97.23 203.516,96.751 203.516,96.751L204.154,95.793L204.793,95.793L205.112,96.144L205.08,96.879L205.559,96.623L207.027,96.942L208.687,95.697L209.676,96.272L210.219,95.33L210.139,88.739L209.74,88.58L209.581,88.324L209.852,87.925L210.379,87.718L210.379,87.478L211.384,86.984L211.416,87.159L214.289,85.848L214.253,85.037L214.337,84.586L214.325,84.099L214.325,82.675L214.387,82.072L215.725,81.848L215.685,82.145L215.901,82.185L215.917,81.856L217.207,81.792L217.223,82.145L218.112,82.121L218.12,82.481L218.897,82.465L218.897,82.793L219.827,82.785L219.835,83.082L220.699,83.079L220.635,83.398L222.572,83.334L222.657,84.228L223.295,84.249L223.593,84.334L223.593,83.419L225.231,83.398L225.274,79.291L225.04,78.993L230.232,75.823L235.02,75.269L235.467,75.099L235.807,75.184L236.105,74.652L236.063,73.12L236.19,72.929L236.225,59.381L235.805,59.177L239.746,55.464L243.892,58.744L243.447,58.888L243.507,61.664L245.935,61.676L245.947,61.46L246.92,61.424L246.92,61.7L247.088,61.796L247.449,61.893L247.99,61.845L251.619,60.979L253.337,59.766L256.449,62.025L256.377,63.347L259.81,65.8L261.513,65.843L261.513,69.843L262.024,70.252L262.871,70.273L262.871,74.274L264.148,75.295L264.148,80.678L264.279,80.738L265.939,81.547L267.301,82.143L268.194,82.441L268.79,82.994L269.386,83.845L270.918,83.632L271.557,84.568L271.94,83.93L272.621,84.866L272.706,81.547L279.728,81.547L279.771,84.356L279.812,85.978L281.086,85.978L281.129,88.787L281.172,90.472L281.686,91.25L282.324,91.633L283.516,93.08L283.899,94.825L283.814,95.378L285.133,95.123L285.431,95.591L287.091,95.676L288.538,95.761L290.112,95.166L290.793,94.995L292.027,95.166L291.942,96.953L292.24,99.166L292.498,99.474L293.386,99.596L293.343,100.486L294.411,101.762L297.858,102.443C297.858,102.443 300.411,107.933 308.03,109.338C315.647,110.742 315.009,112.742 315.009,112.742L321.929,124.061L322.269,126.826L323.287,128.492L326.025,144.423C325.157,54.051 251.641,-18.945 161.063,-18.945C72.073,-18.945 -0.448,51.516 -3.785,139.689L-0.958,126.691C-0.958,126.691 -0.511,125.925 0,125.478" style="fill:rgb(172,214,242);fill-rule:nonzero;"/></g><g transform="matrix(0.944444,0,0,0.944444,262.209,251.783)"><path d="M0,4.496L0.063,0C0.023,1.494 0,2.992 0,4.496" style="fill:rgb(172,214,242);fill-rule:nonzero;"/></g><g transform="matrix(0.944444,0,0,0.944444,392.723,407.209)"><path d="M0,0.021C0,-0.973 -0.575,-1.569 -1.548,-1.569L-2.874,-1.569L-2.874,1.59L-1.548,1.59C-0.575,1.59 0,0.993 0,0.021" style="fill:rgb(172,214,242);fill-rule:nonzero;"/></g><g transform="matrix(0.944444,0,0,0.944444,370.075,409.382)"><path d="M0,-0.003C0,-2.808 -0.906,-3.672 -2.342,-3.672L-3.448,-3.672L-3.448,3.669L-2.342,3.669C-0.906,3.669 0,2.805 0,-0.003" style="fill:rgb(172,214,242);fill-rule:nonzero;"/></g><g transform="matrix(0.944444,0,0,0.944444,362.79,461.303)"><path d="M0,-62.714L5.371,-62.714C10.234,-62.714 11.98,-59.288 11.98,-54.979C11.98,-50.667 10.234,-47.241 5.371,-47.241L0,-47.241L0,-62.714ZM13.437,-62.714L22.831,-62.714L22.831,-58.913L17.703,-58.913L17.703,-56.858L22.345,-56.858L22.345,-53.165L17.703,-53.165L17.703,-51.089L22.963,-51.089L22.963,-47.241L13.437,-47.241L13.437,-62.714ZM24.552,-62.714L30.588,-62.714C33.549,-62.714 35.959,-61.035 35.959,-57.255C35.959,-53.475 33.549,-51.796 30.588,-51.796L28.819,-51.796L28.819,-47.241L24.552,-47.241L24.552,-62.714ZM37.15,-62.714L41.415,-62.714L41.415,-52.614C41.415,-51.485 41.99,-50.978 43.073,-50.978C44.178,-50.978 44.754,-51.485 44.754,-52.614L44.754,-62.714L49.019,-62.714L49.019,-52.236C49.019,-48.634 46.787,-46.909 43.073,-46.909C39.382,-46.909 37.15,-48.634 37.15,-52.236L37.15,-62.714ZM50.851,-62.714L55.118,-62.714L55.118,-47.241L50.851,-47.241L50.851,-62.714ZM62.146,-63.046C64.002,-63.046 65.24,-62.625 66.588,-61.918L66.588,-57.741C65.284,-58.516 63.914,-59.067 62.455,-59.067C61.416,-59.067 60.93,-58.78 60.93,-58.227C60.93,-56.504 67.583,-57.187 67.583,-51.796C67.583,-48.213 64.754,-46.909 61.858,-46.909C60.068,-46.909 58.586,-47.198 56.995,-47.905L56.995,-52.26C58.166,-51.529 59.935,-50.978 61.394,-50.978C62.499,-50.978 63.118,-51.264 63.118,-51.882C63.118,-53.586 56.553,-52.811 56.553,-58.138C56.553,-61.588 59.073,-63.046 62.146,-63.046M71.889,-51.307L74.167,-51.307L74.167,-57.498L71.889,-56.526L71.889,-60.881L75.096,-62.274L78.433,-62.274L78.433,-51.307L80.488,-51.307L80.488,-47.241L71.889,-47.241L71.889,-51.307ZM86.278,-62.603C90.633,-62.603 92.401,-59.377 92.401,-55.133C92.401,-49.209 89.108,-46.909 85.704,-46.909C84.29,-46.909 83.582,-47.041 82.255,-47.662L82.255,-51.529C83.14,-51.153 84.024,-50.978 84.82,-50.978C86.346,-50.978 87.318,-51.553 87.737,-53.011C87.119,-52.7 86.367,-52.546 85.505,-52.546C83.118,-52.503 81.194,-54.093 81.194,-57.344C81.194,-60.792 83.516,-62.603 86.278,-62.603M100.269,-62.603C101.683,-62.603 102.391,-62.471 103.716,-61.853L103.716,-57.984C102.832,-58.359 101.971,-58.537 101.153,-58.537C99.604,-58.537 98.633,-57.962 98.19,-56.504C98.831,-56.812 99.583,-56.966 100.446,-56.966C102.811,-57.012 104.756,-55.419 104.756,-52.171C104.756,-48.723 102.434,-46.909 99.672,-46.909C95.294,-46.909 93.549,-50.138 93.549,-54.382C93.549,-60.306 96.843,-62.603 100.269,-62.603M106.143,-58.359C106.143,-60.549 107.803,-62.603 111.405,-62.603C114.985,-62.603 116.688,-60.57 116.688,-58.338C116.688,-56.923 116.003,-55.951 115.119,-55.09C116.246,-54.358 117.13,-53.254 117.13,-51.396C117.13,-49.142 115.473,-46.909 111.405,-46.909C107.383,-46.909 105.68,-49.142 105.68,-51.396C105.68,-53.011 106.608,-54.336 107.647,-55.133C106.763,-55.883 106.143,-56.88 106.143,-58.359M-83.328,-81.341L39.732,20.191C44.649,24.262 51.312,26.475 58.485,26.475C65.663,26.475 72.326,24.262 77.222,20.191L200.283,-81.341C202.588,-83.244 204.844,-86.015 206.786,-89.189L-89.86,-89.189C-87.89,-86.015 -85.657,-83.244 -83.328,-81.341" style="fill:rgb(172,214,242);fill-rule:nonzero;"/></g><g transform="matrix(0.944411,-0.00798876,-0.00798876,-0.944411,444.475,408.503)"><path d="M-0.011,0.001C0.519,-0.003 1.028,0.146 1.495,0.429C1.356,2.134 0.872,2.713 -0.011,2.72C-0.806,2.727 -1.21,2.109 -1.216,1.38C-1.224,0.431 -0.784,0.008 -0.011,0.001" style="fill:rgb(172,214,242);fill-rule:nonzero;"/></g><g transform="matrix(0.907532,-0.261461,-0.261461,-0.907532,468.97,407.841)"><path d="M-0.366,-0.142C0.068,0.171 0.388,0.562 0.517,1.009C0.688,1.603 0.44,2.18 -0.366,2.412C-1.11,2.626 -1.618,2.382 -1.764,1.874C-1.973,1.149 -1.254,0.53 -0.366,-0.142" style="fill:rgb(172,214,242);fill-rule:nonzero;"/></g><g transform="matrix(0.917483,-0.224056,-0.224056,-0.917483,468.312,413.396)"><path d="M-0.322,0.041C0.558,-0.174 1.104,0.105 1.26,0.747C1.433,1.455 0.631,2.085 -0.322,2.84C-0.867,2.473 -1.223,2.037 -1.344,1.545C-1.507,0.878 -1.161,0.246 -0.322,0.041" style="fill:rgb(172,214,242);fill-rule:nonzero;"/></g><g transform="matrix(0.944315,-0.0156286,-0.0156286,-0.944315,456.779,413.239)"><path d="M-0.023,-0.003C0.772,-0.016 1.158,0.596 1.17,1.325C1.185,2.276 0.772,2.703 -0.023,2.717C-0.531,2.725 -1.041,2.579 -1.51,2.298C-1.406,0.595 -0.906,0.012 -0.023,-0.003" style="fill:rgb(172,214,242);fill-rule:nonzero;"/></g><g transform="matrix(-0.0133007,0.944351,0.944351,0.0133007,266.812,254.91)"><path d="M-4.876,-4.858L-3.243,-4.858L1.253,-4.858L4.79,-4.808L-4.876,-4.858Z" style="fill:rgb(65,93,147);fill-rule:nonzero;"/></g><g transform="matrix(0.944444,0,0,0.944444,266.288,176.867)"><path d="M0,68.903C0,68.903 0.447,68.137 0.958,67.69C1.468,67.243 1.309,66.509 1.309,66.509C1.309,66.509 2.298,64.594 2.234,64.498C2.17,64.402 2.968,62.009 2.809,61.53C2.649,61.051 3.798,58.976 3.798,58.976L4.469,59.455L4.724,59.423C4.724,59.423 6.001,58.657 6.384,58.146C6.767,57.636 7.916,58.944 7.916,58.944C7.916,58.944 8.139,59.583 7.82,60.189C7.501,60.796 8.363,60.604 8.65,60.732C8.937,60.859 9.703,60.445 9.703,60.445C9.703,60.445 10.374,59.391 11.427,59.838C12.48,60.285 12.257,60.157 12.257,60.157C12.257,60.157 13.246,59.551 13.725,58.849C14.204,58.146 14.14,58.657 14.715,59.168C15.289,59.678 15.736,59.232 15.832,58.976C15.928,58.721 16.311,57.955 16.406,57.157C16.502,56.359 15.96,56.263 15.864,55.401C15.768,54.539 16.853,55.018 16.885,54.667C16.917,54.316 16.821,54.38 16.566,53.614C16.311,52.848 17.172,53.486 17.109,52.56C17.045,51.635 17.683,51.22 18.13,50.773C18.577,50.326 18.513,51.124 18.481,50.007C18.449,48.89 19.311,50.007 19.343,49.72C19.375,49.432 19.726,48.188 19.726,48.188C19.726,48.188 19.822,48.73 20.684,48.092C21.545,47.453 21.322,48.156 21.577,47.677C21.833,47.198 21.641,47.07 22.407,46.177C23.173,45.283 22.95,46.496 23.141,46.017C23.333,45.538 23.812,44.549 23.812,44.549C23.812,44.549 25.12,44.357 25.312,44.038C25.503,43.719 25.152,43.464 25.152,43.464C25.152,43.464 25.982,42.059 26.397,41.804C26.812,41.548 28.855,42.123 28.408,41.485C27.961,40.846 28.919,39.984 28.919,39.984C28.919,39.984 30.451,38.963 30.834,38.452C31.217,37.942 32.238,38.325 32.877,37.559C33.515,36.792 33.132,36.984 34.153,34.335C35.175,31.685 35.462,34.782 36.515,34.111C37.569,33.441 37.952,33.377 37.601,32.26C37.25,31.143 39.42,30.472 40.154,29.611C40.888,28.749 41.016,29.196 41.112,28.557C41.207,27.919 42.58,27.6 44.176,26.132C45.772,24.663 44.399,25.78 44.782,25.429C45.165,25.078 44.719,24.408 44.591,24.089C44.463,23.77 44.399,23.323 44.591,22.716C44.782,22.11 44.655,22.557 45.293,21.791C45.931,21.025 45.485,20.673 45.485,20.673C45.485,20.673 45.676,19.046 46.027,18.503C46.378,17.96 46.729,17.864 47.017,17.609C47.304,17.354 47.591,17.098 47.559,16.556C47.527,16.013 47.815,16.077 48.07,16.013C48.325,15.949 49.315,15.471 49.123,15.502C48.932,15.534 49.347,14.736 49.155,14.577C48.964,14.417 49.411,12.757 49.411,12.757L50.592,12.598L52.283,12.662L52.89,11.513L54.23,11.736L55.475,11.513L56.912,10.555L56.682,6.34L56.73,6.124L56.862,5.487C56.862,5.487 56.862,5.234 56.838,5.018C56.814,4.802 57.439,4.862 57.583,4.609C57.727,4.357 58.196,4.369 58.22,4.309C58.244,4.249 58.761,4.393 58.761,4.393L58.773,4.237L58.917,3.949L59.121,3.648L59.41,3.684L59.698,3.949L60.071,3.925L60.071,-0.221L61.116,-0.245L61.092,0.404L61.825,0.368L62.017,0.151L62.185,-0.149L62.185,-2.769L63.063,-2.829L63.039,-1.964L63.82,-1.976L63.772,-2.769L64.673,-2.781L64.649,-1.891L65.418,-1.891L65.358,-2.661L66.259,-2.697L66.247,-1.867L67.076,-1.891L66.992,-2.613L67.833,-2.625L67.893,-1.867L68.734,-1.843L68.698,-2.528L69.708,-2.54L69.708,-1.747L69.924,-1.747L69.936,-2.348L70.489,-2.336L70.465,-1.603L70.669,-1.603L70.693,-2.228L71.198,-2.072L71.174,-1.399L71.654,-1.339L71.642,-2.096L72.339,-1.964L72.351,-2.192L72.784,-2.12L72.928,-2.564L73.457,-2.516L73.469,-3.081L74.046,-3.117L74.034,-3.706L74.983,-3.766L74.959,-3.057L75.62,-3.069L75.56,-2.613L76.161,-2.649L76.101,-1.819L76.689,-1.916L77.362,-2.721L77.302,-3.73L78.624,-3.73L78.6,-2.781L79.561,-2.769L79.489,-3.802L79.814,-3.79L79.79,-4.355L80.847,-4.343L81.387,-4.196L81.387,-8.257L79.489,-8.774L78.431,-8.786L78.455,-8.221L78.131,-8.233L78.203,-7.2L77.242,-7.212L77.266,-8.161L75.944,-8.161L76.004,-7.152L75.331,-6.346L74.742,-6.25L74.802,-7.079L74.202,-7.043L74.262,-7.5L73.601,-7.488L73.625,-8.197L72.675,-8.137L72.687,-7.548L72.111,-7.512L72.099,-6.947L71.57,-6.995L71.426,-6.551L70.993,-6.623L70.981,-6.395L70.284,-6.527L70.296,-5.77L69.816,-5.83L69.84,-6.503L69.335,-6.659L69.311,-6.034L69.107,-6.034L69.131,-6.767L68.578,-6.779L68.566,-6.178L68.349,-6.178L68.349,-6.971L67.34,-6.959L67.376,-6.274L66.535,-6.298L66.475,-7.055L65.634,-7.043L65.718,-6.322L64.889,-6.298L64.901,-7.128L63.999,-7.091L64.06,-6.322L63.29,-6.322L63.315,-7.212L62.413,-7.2L62.461,-6.407L61.68,-6.395L61.704,-7.26L60.827,-7.2L60.827,-4.58L60.659,-4.28L60.467,-4.063L59.734,-4.027L59.758,-4.676L58.712,-4.652L58.712,-0.506L58.34,-0.482L58.051,-0.747L57.763,-0.783L57.559,-0.482L57.414,-0.194L57.402,-0.038C57.402,-0.038 56.886,-0.182 56.862,-0.122C56.838,-0.062 56.369,-0.074 56.225,0.179C56.081,0.431 55.456,0.371 55.48,0.587C55.504,0.803 55.504,1.056 55.504,1.056L55.372,1.693L55.323,1.909L55.553,6.124L54.117,7.082L52.872,7.305L51.531,7.082L50.925,8.231L49.233,8.167L48.052,8.327C48.052,8.327 47.605,9.986 47.797,10.146C47.988,10.305 47.574,11.104 47.765,11.072C47.957,11.04 46.967,11.518 46.712,11.582C46.456,11.646 46.169,11.582 46.201,12.125C46.233,12.667 45.946,12.923 45.658,13.178C45.371,13.434 45.02,13.529 44.669,14.072C44.318,14.615 44.126,16.243 44.126,16.243C44.126,16.243 44.573,16.594 43.935,17.36C43.296,18.126 43.424,17.679 43.233,18.285C43.041,18.892 43.105,19.339 43.233,19.658C43.36,19.977 43.807,20.647 43.424,20.998C43.041,21.35 44.414,20.232 42.818,21.701C41.222,23.169 39.849,23.488 39.753,24.126C39.658,24.765 39.53,24.318 38.796,25.18C38.062,26.042 35.891,26.712 36.242,27.829C36.593,28.946 36.21,29.01 35.157,29.68C34.104,30.351 33.816,27.255 32.795,29.904C31.774,32.553 32.157,32.362 31.518,33.128C30.88,33.894 29.858,33.511 29.475,34.021C29.092,34.532 27.56,35.554 27.56,35.554C27.56,35.554 26.603,36.415 27.05,37.054C27.496,37.692 25.454,37.118 25.039,37.373C24.624,37.628 23.794,39.033 23.794,39.033C23.794,39.033 24.145,39.288 23.953,39.607C23.762,39.926 22.453,40.118 22.453,40.118C22.453,40.118 21.974,41.107 21.783,41.586C21.591,42.065 21.815,40.852 21.049,41.746C20.283,42.64 20.474,42.767 20.219,43.246C19.964,43.725 20.187,43.023 19.325,43.661C18.463,44.299 18.368,43.757 18.368,43.757C18.368,43.757 18.017,45.002 17.985,45.289C17.953,45.576 17.091,44.459 17.123,45.576C17.155,46.693 17.219,45.895 16.772,46.342C16.325,46.789 15.686,47.204 15.75,48.13C15.814,49.055 14.952,48.417 15.208,49.183C15.463,49.949 15.559,49.885 15.527,50.236C15.495,50.587 14.41,50.109 14.505,50.97C14.601,51.832 15.144,51.928 15.048,52.726C14.952,53.524 14.569,54.29 14.473,54.545C14.378,54.801 13.931,55.248 13.356,54.737C12.782,54.226 12.846,53.715 12.367,54.418C11.888,55.12 10.899,55.726 10.899,55.726C10.899,55.726 11.122,55.854 10.069,55.407C9.015,54.96 8.345,56.014 8.345,56.014C8.345,56.014 7.579,56.429 7.292,56.301C7.004,56.173 6.143,56.365 6.462,55.758C6.781,55.152 6.558,54.513 6.558,54.513C6.558,54.513 5.408,53.205 5.025,53.715C4.642,54.226 3.366,54.992 3.366,54.992L3.11,55.024L2.44,54.545C2.44,54.545 1.291,56.62 1.451,57.099C1.61,57.578 0.812,59.972 0.876,60.067C0.94,60.163 -0.05,62.078 -0.05,62.078C-0.05,62.078 0.11,62.812 -0.401,63.259C-0.911,63.706 -1.358,64.472 -1.358,64.472L-4.186,77.471L-4.233,77.689L0,68.903Z" style="fill:rgb(65,93,147);fill-rule:nonzero;"/></g><g transform="matrix(0.944444,0,0,0.944444,354.798,179.371)"><path d="M0,-7.471L0.024,-4.251L-0.529,-4.106L-0.565,-4.731L-1.73,-4.731L-1.73,-4.082L-2.62,-4.106L-2.62,-4.683L-3.737,-4.659L-3.677,-4.058L-5.323,-4.046L-5.335,-7.603L-6.597,-7.759L-6.585,-7.387L-6.801,-7.399C-6.801,-7.399 -6.753,-7.856 -6.789,-7.856C-6.825,-7.856 -7.811,-7.844 -7.811,-7.844L-7.799,-7.11L-8.243,-7.098L-8.243,-6.534L-8.688,-6.534L-8.676,-5.969L-9.181,-5.981L-9.193,-5.344L-10.13,-5.44L-10.13,-4.839L-10.286,-4.851L-10.274,-5.524L-10.971,-5.623L-10.971,-1.334L-10.286,-1.322L-10.322,-0.565L-10.009,-0.589L-10.021,-1.25L-8.916,-1.093L-8.928,-0.42L-8.772,-0.409L-8.772,-1.009L-7.834,-0.913L-7.822,-1.55L-7.318,-1.538L-7.33,-2.103L-6.885,-2.103L-6.885,-2.668L-6.44,-2.68L-6.452,-3.413C-6.452,-3.413 -5.467,-3.425 -5.431,-3.425C-5.395,-3.425 -5.443,-2.968 -5.443,-2.968L-5.227,-2.956L-5.239,-3.328L-3.977,-3.172L-3.965,0.385L-2.319,0.373L-2.379,-0.228L-1.261,-0.252L-1.261,0.324L-0.372,0.349L-0.372,-0.3L0.794,-0.3L0.83,0.324L1.382,0.18L1.358,-3.04L2.021,-3.052L2.043,-7.507L0,-7.471Z" style="fill:rgb(65,93,147);fill-rule:nonzero;"/></g><g transform="matrix(0.944444,0,0,0.944444,422.255,192.718)"><path d="M0,21.931L-0.17,22.484L-1.447,27.825L-4.575,26.442L-6.235,26.208L-7.043,26.4L-7.724,26.08L-7.661,25.761L-8.235,25.591L-8.214,24.08L-9.916,24.208L-9.989,24.525L-10.413,24.541L-10.397,24.861L-11.166,24.885L-11.15,25.374L-12.657,25.47L-12.616,25.11L-13.578,25.15L-13.61,25.526L-14.323,25.518L-14.355,26.031L-15.18,26.039L-15.18,26.399L-15.917,26.439L-15.869,26.912L-16.646,26.904L-16.63,27.377L-17.455,27.409L-17.455,27.986L-17.736,28.186L-17.543,28.41L-19.202,28.362C-19.202,28.362 -19.274,27.99 -20.115,27.881C-20.956,27.773 -21.701,27.497 -21.881,27.677C-22.062,27.857 -22.494,27.869 -22.746,27.545C-22.999,27.221 -23.948,27.341 -23.876,26.968C-23.804,26.596 -23.9,26.944 -23.179,26.343C-22.458,25.742 -21.136,24.877 -23.275,23.952C-25.414,23.027 -26.159,23.471 -26.484,23.964C-26.808,24.457 -27.721,23.772 -28.154,23.387C-28.587,23.003 -29.992,22.822 -30.077,22.558C-30.161,22.294 -31.903,19.025 -32.095,19.001C-32.288,18.977 -34.186,17.042 -34.294,16.502C-34.403,15.961 -36.493,14.002 -36.493,14.002C-36.493,14.002 -38.032,11.094 -38.416,10.361C-38.801,9.628 -39.918,7.489 -40.471,7.405C-41.024,7.321 -40.747,6.744 -40.747,6.744C-40.747,6.744 -40.735,6.312 -41.576,6.372C-42.418,6.432 -43.667,5.483 -44.965,5.639C-46.263,5.795 -47.02,5.831 -47.044,5.35C-47.068,4.87 -47.921,2.947 -47.921,2.947C-47.921,2.947 -53.136,-0.61 -53.809,-0.682C-54.482,-0.754 -55.576,-1.439 -55.576,-1.439C-55.576,-1.439 -57.991,-2.713 -58.135,-2.689C-58.279,-2.665 -59.565,-4.575 -59.565,-4.575C-59.565,-4.575 -62.317,-6.258 -63.495,-6.859C-64.672,-7.459 -65.381,-9.466 -65.381,-9.466C-65.381,-9.466 -66.907,-10.466 -68.056,-10.91L-68.061,-9.914L-68.121,-9.794L-68.061,-7.174C-68.061,-7.174 -67.904,-6.934 -66.751,-6.501C-65.597,-6.069 -64.023,-5.035 -64.023,-5.035C-64.023,-5.035 -63.314,-3.028 -62.136,-2.428C-60.959,-1.827 -58.207,-0.144 -58.207,-0.144C-58.207,-0.144 -56.921,1.766 -56.777,1.742C-56.633,1.718 -54.217,2.992 -54.217,2.992C-54.217,2.992 -53.124,3.677 -52.451,3.749C-51.778,3.821 -46.563,7.378 -46.563,7.378C-46.563,7.378 -45.71,9.301 -45.686,9.781C-45.662,10.262 -44.905,10.226 -43.607,10.07C-42.309,9.913 -41.059,10.863 -40.218,10.803C-39.377,10.743 -39.389,11.175 -39.389,11.175C-39.389,11.175 -39.665,11.752 -39.113,11.836C-38.56,11.92 -37.442,14.059 -37.058,14.792C-36.673,15.525 -35.135,18.433 -35.135,18.433C-35.135,18.433 -33.044,20.392 -32.936,20.933C-32.828,21.473 -30.929,23.408 -30.737,23.432C-30.545,23.456 -28.802,26.725 -28.718,26.989C-28.634,27.253 -27.228,27.434 -26.796,27.818C-26.363,28.203 -25.45,28.888 -25.125,28.395C-24.801,27.902 -24.056,27.458 -21.917,28.383C-19.778,29.308 -21.1,30.173 -21.821,30.774C-22.542,31.375 -22.446,31.027 -22.518,31.399C-22.59,31.772 -21.64,31.651 -21.388,31.976C-21.136,32.3 -20.703,32.288 -20.523,32.108C-20.343,31.928 -19.598,32.204 -18.756,32.312C-17.915,32.421 -17.843,32.793 -17.843,32.793L-16.185,32.841L-16.377,32.617L-16.097,32.417L-16.097,31.84L-15.272,31.808L-15.288,31.335L-14.511,31.343L-14.559,30.87L-13.822,30.83L-13.822,30.47L-12.996,30.462L-12.965,29.949L-12.252,29.957L-12.219,29.581L-11.258,29.54L-11.298,29.901L-9.792,29.805L-9.808,29.316L-9.039,29.292L-9.055,28.972L-8.631,28.956L-8.558,28.639L-6.856,28.511L-6.877,30.022L-6.302,30.192L-6.366,30.511L-5.685,30.83L-4.877,30.639L-3.217,30.873L-0.089,32.256L1.188,26.915L1.307,26.529L0.234,22.527L0,21.931Z" style="fill:rgb(65,93,147);fill-rule:nonzero;"/></g><g transform="matrix(0.944444,0,0,0.944444,437.574,222.528)"><path d="M0,-12.059L-1.005,-14.134L-1.963,-12.075L-1.963,-8.372L-2.186,-6.026C-2.186,-6.026 -4.149,-5.835 -5.043,-5.978C-5.937,-6.122 -7.756,-5.228 -7.756,-5.228C-7.756,-5.228 -9.304,-4.558 -9.416,-4.095C-9.528,-3.632 -9.751,-2.946 -10.836,-2.978C-11.922,-3.01 -13.358,-2.356 -13.358,-2.356L-14.133,-2.762L-12.973,1.565L-12,2.075C-12,2.075 -10.563,1.421 -9.478,1.453C-8.393,1.485 -8.169,0.799 -8.058,0.336C-7.946,-0.127 -6.398,-0.797 -6.398,-0.797C-6.398,-0.797 -4.579,-1.691 -3.685,-1.547C-2.791,-1.404 -0.828,-1.595 -0.828,-1.595L-0.605,-3.941L-0.605,-7.644L0.181,-9.333L0.016,-9.202L0,-12.059Z" style="fill:rgb(65,93,147);fill-rule:nonzero;"/></g><g transform="matrix(0.944444,0,0,0.944444,530.097,201.62)"><path d="M0,-6.881L-7.022,-6.881L-7.107,-3.561L-7.788,-4.498L-8.171,-3.859L-8.81,-4.796L-10.342,-4.583L-10.938,-5.434L-11.534,-5.987L-12.427,-6.285L-13.789,-6.881L-15.449,-7.69L-15.58,-7.75L-15.58,-3.94L-14.091,-3.259L-12.431,-2.45L-11.069,-1.854L-10.175,-1.556L-9.579,-1.003L-8.983,-0.152L-7.451,-0.365L-6.813,0.572L-6.43,-0.067L-5.749,0.869L-5.664,-2.45L0.084,-2.45L0.043,-4.072L0,-6.881Z" style="fill:rgb(65,93,147);fill-rule:nonzero;"/></g><g transform="matrix(0.944444,0,0,0.944444,512.894,209.682)"><path d="M0,-31.121L-1.702,-31.164L-5.136,-33.617L-5.063,-34.939L-8.176,-37.198L-9.894,-35.984L-13.523,-35.119L-14.064,-35.071L-14.424,-35.167L-14.593,-35.263L-14.593,-35.54L-15.566,-35.504L-15.578,-35.287L-18.005,-35.299L-18.065,-38.075L-17.621,-38.219L-21.767,-41.5L-25.708,-37.787L-25.287,-37.582L-25.322,-24.035L-25.45,-23.843L-25.408,-22.311L-25.705,-21.779L-26.046,-21.864L-26.493,-21.694L-31.281,-21.141L-36.473,-17.97L-36.239,-17.672L-36.281,-13.565L-37.92,-13.544L-37.92,-12.629L-38.218,-12.714L-38.856,-12.736L-38.941,-13.629L-40.878,-13.565L-40.814,-13.885L-41.678,-13.882L-41.686,-14.178L-42.615,-14.17L-42.615,-14.499L-43.392,-14.482L-43.4,-14.843L-44.29,-14.819L-44.306,-15.171L-45.595,-15.107L-45.611,-14.779L-45.828,-14.819L-45.788,-15.115L-47.126,-14.891L-47.188,-14.288L-47.188,-12.864L-47.176,-12.378L-47.26,-11.927L-47.224,-11.116L-50.097,-9.804L-50.129,-9.98L-51.134,-9.485L-51.134,-9.246L-51.661,-9.038L-51.932,-8.639L-51.773,-8.384L-51.374,-8.224L-51.294,-1.633L-51.837,-0.692L-52.826,-1.266L-54.486,-0.021L-55.954,-0.34L-56.433,-0.085L-56.401,-0.819L-56.72,-1.17L-57.359,-1.17L-57.997,-0.213C-57.997,-0.213 -58.476,0.266 -59.018,0.394C-59.561,0.521 -60.231,1.734 -60.231,1.734L-61.061,1.575L-61.604,0.841L-63.136,1.256L-63.551,2.724L-64.285,3.107L-64.668,2.788L-65.785,3.298L-66.647,3.618L-66.998,2.915L-68.115,2.149L-68.945,3.458L-69.807,3.618C-69.807,3.618 -70.03,2.628 -71.116,3.171C-72.201,3.713 -71.499,2.947 -72.201,3.713L-72.903,4.479L-74.371,5.341L-75.616,5.948L-75.584,5.277C-75.584,5.277 -77.563,3.809 -78.106,3.171L-78.521,3.139L-78.569,3.474L-79.315,4.067L-78.391,5.974L-78.375,8.831L-77.21,7.905L-77.163,7.57L-76.748,7.602C-76.205,8.24 -74.226,9.708 -74.226,9.708L-74.258,10.379L-73.013,9.772L-71.545,8.91L-70.843,8.144C-70.14,7.378 -70.843,8.144 -69.757,7.602C-68.672,7.059 -68.449,8.048 -68.449,8.048L-67.587,7.889L-66.757,6.58L-65.64,7.346L-65.289,8.048L-64.427,7.729L-63.31,7.219L-62.927,7.538L-62.192,7.155L-61.778,5.686L-60.245,5.271L-59.703,6.006L-58.873,6.165C-58.873,6.165 -58.203,4.952 -57.66,4.825C-57.117,4.697 -56.639,4.218 -56.639,4.218L-56,3.261L-55.362,3.261L-55.043,3.612L-55.074,4.346L-54.596,4.09L-53.127,4.41L-51.468,3.165L-50.478,3.739L-49.936,2.798L-50.015,-3.793L-50.414,-3.953L-50.574,-4.208L-50.303,-4.607L-49.776,-4.815L-49.776,-5.054L-48.77,-5.549L-48.739,-5.373L-45.865,-6.685L-45.901,-7.496L-45.817,-7.947L-45.829,-8.433L-45.829,-9.857L-45.767,-10.46L-44.429,-10.685L-44.469,-10.388L-44.253,-10.348L-44.237,-10.677L-42.947,-10.741L-42.931,-10.388L-42.042,-10.412L-42.034,-10.052L-41.257,-10.068L-41.257,-9.739L-40.328,-9.747L-40.32,-9.451L-39.456,-9.454L-39.519,-9.135L-37.583,-9.198L-37.498,-8.305L-36.859,-8.283L-36.561,-8.198L-36.561,-9.113L-34.923,-9.135L-34.88,-13.242L-35.115,-13.539L-29.922,-16.71L-25.134,-17.263L-24.688,-17.434L-24.347,-17.348L-24.049,-17.88L-24.092,-19.413L-23.964,-19.604L-23.929,-33.152L-24.35,-33.356L-20.408,-37.069L-16.262,-33.788L-16.707,-33.644L-16.647,-30.868L-14.22,-30.856L-14.208,-31.073L-13.234,-31.109L-13.234,-30.832L-13.066,-30.736L-12.706,-30.64L-12.165,-30.688L-8.536,-31.553L-6.817,-32.767L-3.705,-30.508L-3.777,-29.186L-0.344,-26.733L0.511,-26.711L0,-27.12L0,-31.121Z" style="fill:rgb(65,93,147);fill-rule:nonzero;"/></g><g transform="matrix(0.944444,0,0,0.944444,563.418,226.309)"><path d="M0,-1.826C0,-1.826 0.638,-3.826 -6.98,-5.231C-14.598,-6.635 -17.151,-12.125 -17.151,-12.125L-20.598,-12.806L-21.666,-14.083L-21.709,-13.184L-21.411,-10.971L-19.24,-8.375L-15.793,-7.694C-15.793,-7.694 -13.239,-2.204 -5.621,-0.8C1.997,0.605 1.358,2.605 1.358,2.605L7.259,12.257L6.92,9.493L0,-1.826Z" style="fill:rgb(65,93,147);fill-rule:nonzero;"/></g><g transform="matrix(0.944444,0,0,0.944444,541.633,206.61)"><path d="M0,3.242L0.085,1.455L-1.149,1.284L-1.83,1.455L-3.405,2.05L-4.852,1.965L-6.511,1.88L-6.809,1.412L-8.129,1.667L-8.044,1.114L-8.427,-0.631L-9.618,-2.078L-10.257,-2.461L-10.77,-3.239L-10.728,-1.605L-10.303,-0.158L-8.898,1.97L-8.26,2.353L-7.068,3.8L-6.685,5.545L-6.77,6.098L-5.451,5.843L-5.153,6.311L-3.493,6.396L-2.046,6.481L-0.472,5.885L0.209,5.715L0.555,5.763L0.298,5.455L0,3.242Z" style="fill:rgb(65,93,147);fill-rule:nonzero;"/></g><g transform="matrix(0.944444,0,0,0.944444,279.671,326.326)"><path d="M0,-10.095L0,-18.717C0,-21.344 -0.529,-23.523 -1.588,-25.253C-2.647,-26.982 -4.098,-28.283 -5.941,-29.153C-7.784,-30.021 -9.888,-30.456 -12.25,-30.456C-16.58,-30.456 -19.704,-29.171 -21.623,-26.6C-23.542,-24.028 -24.501,-20.322 -24.501,-15.483L-24.501,7.543C-24.501,11.589 -23.4,14.737 -21.197,16.986C-18.995,19.237 -16.089,20.361 -12.477,20.361C-8.507,20.361 -5.416,19.373 -3.204,17.397C-0.992,15.423 0.113,12.241 0.113,7.855L0.113,-1.588L-9.925,-1.588L-9.925,7.401C-9.925,8.518 -10.1,9.424 -10.45,10.123C-10.8,10.824 -11.399,11.173 -12.25,11.173C-13.006,11.173 -13.588,10.889 -13.994,10.323C-14.401,9.755 -14.604,8.781 -14.604,7.401L-14.604,-17.582C-14.604,-18.697 -14.444,-19.591 -14.122,-20.261C-13.801,-20.933 -13.177,-21.268 -12.25,-21.268C-11.456,-21.268 -10.871,-21.008 -10.492,-20.488C-10.114,-19.969 -9.925,-18.962 -9.925,-17.469L-9.925,-10.095L0,-10.095Z" style="fill:rgb(228,245,253);fill-rule:nonzero;"/></g><g transform="matrix(0.944444,0,0,0.944444,296.383,333.396)"><path d="M0,-25.068L0,-0.708C0,2.221 -0.756,3.687 -2.268,3.687C-3.138,3.687 -3.762,3.352 -4.14,2.68C-4.518,2.01 -4.707,0.899 -4.707,-0.652L-4.707,-24.983C-4.707,-27.498 -3.875,-28.754 -2.212,-28.754C-0.737,-28.754 0,-27.525 0,-25.068M-11.527,-34.625C-13.616,-32.413 -14.661,-29.17 -14.661,-24.897L-14.661,-1.191C-14.661,3.365 -13.607,6.849 -11.499,9.259C-9.391,11.67 -6.343,12.875 -2.353,12.875C1.635,12.875 4.684,11.67 6.792,9.259C8.9,6.849 9.954,3.365 9.954,-1.191L9.954,-24.897C9.954,-29.17 8.909,-32.413 6.82,-34.625C4.731,-36.837 1.673,-37.943 -2.353,-37.943C-6.38,-37.943 -9.438,-36.837 -11.527,-34.625" style="fill:rgb(228,245,253);fill-rule:nonzero;"/></g><g transform="matrix(0.944444,0,0,0.944444,309.025,345.556)"><path d="M0,-50.364L0,-13.81C0,-9.274 0.983,-5.837 2.95,-3.502C4.916,-1.167 7.978,0 12.137,0C16.297,0 19.359,-1.167 21.326,-3.502C23.292,-5.837 24.275,-9.274 24.275,-13.81L24.275,-50.364L14.576,-50.364L14.576,-14.208C14.576,-13.376 14.533,-12.572 14.449,-11.798C14.364,-11.023 14.151,-10.394 13.811,-9.912C13.47,-9.429 12.913,-9.189 12.137,-9.189C11.381,-9.189 10.833,-9.434 10.493,-9.926C10.153,-10.418 9.935,-11.045 9.84,-11.812C9.746,-12.578 9.699,-13.376 9.699,-14.208L9.699,-50.364L0,-50.364Z" style="fill:rgb(228,245,253);fill-rule:nonzero;"/></g><g transform="matrix(0.944444,0,0,0.944444,347.431,327.665)"><path d="M0,-12.931L-2.41,-12.931L-2.41,-22.176L-0.085,-22.176C0.747,-22.176 1.314,-21.873 1.617,-21.268C1.919,-20.663 2.07,-19.387 2.07,-17.44C2.07,-14.434 1.38,-12.931 0,-12.931M10.791,-10.917C11.48,-12.544 11.826,-14.718 11.826,-17.44C11.826,-20.256 11.603,-22.71 11.159,-24.799C10.715,-26.887 9.84,-28.514 8.536,-29.676C7.232,-30.839 5.303,-31.42 2.751,-31.42L-12.562,-31.42L-12.562,18.489L-2.467,18.489L-2.467,-4.282C-1.144,-4.282 -0.184,-4.107 0.411,-3.758C1.007,-3.408 1.305,-2.504 1.305,-1.05L1.305,18.489L11.145,18.489L11.145,-0.398C11.145,-2.363 10.828,-3.965 10.195,-5.203C9.562,-6.442 8.46,-7.222 6.891,-7.543C8.801,-8.168 10.1,-9.292 10.791,-10.917" style="fill:rgb(228,245,253);fill-rule:nonzero;"/></g><g transform="matrix(0.944444,0,0,0.944444,360.742,315.613)"><path d="M0,12.59L0,17.468C0,22.421 1.007,26.033 3.02,28.301C5.034,30.569 8.318,31.704 12.875,31.704C17.166,31.704 20.176,30.376 21.906,27.719C23.637,25.064 24.501,21.391 24.501,16.703C24.501,14.377 24.208,12.406 23.622,10.79C23.036,9.173 22.261,7.755 21.297,6.537C20.333,5.316 19.274,4.159 18.121,3.062L12.364,-2.467C11.249,-3.526 10.501,-4.461 10.124,-5.275C9.745,-6.088 9.556,-6.844 9.556,-7.543C9.556,-8.242 9.741,-8.815 10.109,-9.26C10.478,-9.703 11.06,-9.925 11.853,-9.925C12.515,-9.925 13.04,-9.736 13.428,-9.359C13.814,-8.979 14.009,-8.451 14.009,-7.77L14.009,-4.34L24.161,-4.34C24.161,-9.311 23.201,-13.016 21.282,-15.455C19.364,-17.894 16.116,-19.114 11.542,-19.114C7.798,-19.114 4.938,-17.999 2.964,-15.767C0.988,-13.537 0,-10.294 0,-6.041C0,-1.975 1.673,1.635 5.019,4.792L9.5,9.045C10.823,10.293 11.858,11.385 12.605,12.32C13.351,13.257 13.876,14.24 14.179,15.271C14.481,16.301 14.632,17.582 14.632,19.113C14.632,20.324 14.457,21.193 14.108,21.722C13.758,22.251 13.13,22.516 12.222,22.516C11.352,22.516 10.743,22.19 10.393,21.538C10.043,20.886 9.868,19.982 9.868,18.829L9.868,12.59L0,12.59Z" style="fill:rgb(228,245,253);fill-rule:nonzero;"/></g><g transform="matrix(0.944444,0,0,0.944444,406.487,307.175)"><path d="M0,30.458L-10.464,30.458L-10.464,19.029L-1.05,19.029L-1.05,9.643L-10.464,9.643L-10.464,-0.085L-0.653,-0.085L-0.653,-9.726L-20.617,-9.726L-20.617,40.184L0,40.184L0,30.458Z" style="fill:rgb(228,245,253);fill-rule:nonzero;"/></g><g transform="matrix(0.944444,0,0,0.944444,436.162,308.837)"><path d="M0,26.939C0,28.717 -0.918,29.605 -2.751,29.605L-4.481,29.605L-4.481,-2.751L-3.375,-2.751C-2.014,-2.751 -1.111,-2.51 -0.666,-2.029C-0.223,-1.546 0,-0.474 0,1.19L0,26.939ZM-0.794,-11.485L-14.52,-11.485L-14.52,38.424L-1.135,38.424C3.005,38.424 5.903,37.139 7.557,34.568C9.211,31.996 10.038,28.348 10.038,23.621L10.038,0.254C10.038,-3.583 9.131,-6.5 7.316,-8.494C5.501,-10.488 2.797,-11.485 -0.794,-11.485" style="fill:rgb(228,245,253);fill-rule:nonzero;"/></g><g transform="matrix(0.944444,0,0,0.944444,468.354,336.022)"><path d="M0,-30.628L0,-40.269L-19.964,-40.269L-19.964,9.641L0.653,9.641L0.653,-0.085L-9.811,-0.085L-9.811,-11.514L-0.397,-11.514L-0.397,-20.9L-9.811,-20.9L-9.811,-30.628L0,-30.628Z" style="fill:rgb(228,245,253);fill-rule:nonzero;"/></g><g transform="matrix(0.944444,0,0,0.944444,498.86,297.99)"><path d="M0,49.91L9.756,49.91L9.756,0L0.113,0L0.113,23.906L-4.48,0L-14.746,0L-14.746,49.91L-4.991,49.91L-4.991,24.954L0,49.91Z" style="fill:rgb(228,245,253);fill-rule:nonzero;"/></g><g transform="matrix(0.944444,0,0,0.944444,521.277,333.316)"><path d="M0,-24.898C0,-27.413 0.832,-28.67 2.495,-28.67C3.97,-28.67 4.707,-27.44 4.707,-24.983L4.707,-0.623C4.707,2.306 3.951,3.771 2.439,3.771C1.569,3.771 0.945,3.436 0.567,2.765C0.189,2.094 0,0.984 0,-0.567L0,-24.898ZM2.353,12.96C6.342,12.96 9.391,11.755 11.499,9.343C13.607,6.934 14.661,3.45 14.661,-1.106L14.661,-24.813C14.661,-29.085 13.616,-32.328 11.527,-34.54C9.438,-36.752 6.38,-37.858 2.353,-37.858C-1.673,-37.858 -4.731,-36.752 -6.82,-34.54C-8.91,-32.328 -9.954,-29.085 -9.954,-24.813L-9.954,-1.106C-9.954,3.45 -8.9,6.934 -6.792,9.343C-4.684,11.755 -1.636,12.96 2.353,12.96" style="fill:rgb(228,245,253);fill-rule:nonzero;"/></g><g transform="matrix(0.944444,0,0,0.944444,23.2233,3.93614)"><rect x="544.28" y="300.093" width="10.152" height="8.451" style="fill:rgb(228,245,253);"/></g><g transform="matrix(-0.944444,0,0,0.944444,1086.82,3.93614)"><rect x="558.005" y="300.093" width="10.152" height="8.451" style="fill:rgb(228,245,253);"/></g><g transform="matrix(0.944444,0,0,0.944444,538.926,297.99)"><path d="M0,49.91L20.617,49.91L20.617,40.184L10.153,40.184L10.153,28.755L19.567,28.755L19.567,19.369L10.153,19.369L10.153,9.641L19.964,9.641L19.964,0L0,0L0,49.91Z" style="fill:rgb(228,245,253);fill-rule:nonzero;"/></g><g transform="matrix(0.944444,0,0,0.944444,561.504,345.127)"><path d="M0,-49.91L0,0L20.248,0L20.248,-8.508L9.982,-8.508L9.982,-49.91L0,-49.91Z" style="fill:rgb(228,245,253);fill-rule:nonzero;"/></g><g transform="matrix(0.944444,0,0,0.944444,23.2233,144.413)"><rect x="451.462" y="228.272" width="139.353" height="3.353" style="fill:rgb(172,214,242);"/></g><g transform="matrix(0.944444,0,0,0.944444,23.2233,144.413)"><rect x="245.219" y="228.272" width="139.357" height="3.353" style="fill:rgb(172,214,242);"/></g><g transform="matrix(0.944444,0,0,0.944444,23.2233,-13.4095)"><rect x="444.755" y="311.825" width="146.06" height="3.353" style="fill:rgb(172,214,242);"/></g><g transform="matrix(-0.944444,0,0,0.944444,624.36,-13.4114)"><rect x="245.219" y="311.826" width="146.06" height="3.353" style="fill:rgb(172,214,242);"/></g><g transform="matrix(0.944444,0,0,0.944444,406.958,275.333)"><path d="M0,6.879C0.767,2.062 -5.564,2.475 -5.229,0.175C-5.091,-0.708 -4.207,-1.121 -3.027,-1.121C-1.887,-1.121 -0.786,-0.768 0.236,-0.119L0.649,-2.734C-0.452,-3.383 -1.651,-3.697 -2.988,-3.697C-5.366,-3.697 -7.608,-2.655 -8.021,-0.079C-8.728,4.579 -2.457,4.166 -2.85,6.565C-2.988,7.488 -4.05,7.941 -5.249,7.941C-6.526,7.941 -7.726,7.587 -8.768,6.938L-9.201,9.651C-8.021,10.3 -6.763,10.576 -5.17,10.576C-2.555,10.576 -0.413,9.534 0,6.879" style="fill:rgb(228,245,253);fill-rule:nonzero;"/></g><g transform="matrix(-0.941435,-0.0753403,-0.0753403,0.941435,413.293,274.762)"><path d="M-0.098,-2.953C0.647,-2.893 1.343,-2.463 1.423,-1.509C1.492,-0.399 0.764,0.075 -0.098,0.006C-0.863,-0.056 -1.558,-0.485 -1.638,-1.459C-1.708,-2.548 -0.98,-3.024 -0.098,-2.953" style="fill:rgb(228,245,253);fill-rule:nonzero;"/></g><g transform="matrix(0.944444,0,0,0.944444,410.414,276.167)"><path d="M0,9.437L2.634,9.437L4.129,0L1.494,0L0,9.437Z" style="fill:rgb(228,245,253);fill-rule:nonzero;"/></g><g transform="matrix(0.944444,0,0,0.944444,423.245,280.716)"><path d="M0,-0.196C-0.295,1.632 -1.002,2.576 -2.084,2.576C-3.086,2.576 -3.46,1.691 -3.204,0.001C-2.909,-1.827 -2.202,-2.792 -1.12,-2.792C-0.157,-2.792 0.256,-1.907 0,-0.196M2.615,0.06C3.126,-3.185 1.573,-5.072 -0.963,-5.072C-3.577,-5.072 -5.347,-3.282 -5.819,-0.255C-6.35,2.989 -4.895,4.876 -2.241,4.876C0.551,4.876 2.123,3.087 2.615,0.06" style="fill:rgb(228,245,253);fill-rule:nonzero;"/></g><g transform="matrix(0.944444,0,0,0.944444,432.549,281.756)"><path d="M0,-2.655C0.315,-3.146 0.924,-3.735 1.632,-3.735C2.202,-3.735 2.634,-3.461 2.497,-2.615L1.514,3.519L4.149,3.519L5.171,-2.929C5.505,-4.955 4.306,-6.174 2.713,-6.174C1.612,-6.174 0.787,-5.741 0.118,-5.112L0.256,-5.918L-2.123,-5.918L-3.617,3.519L-0.983,3.519L0,-2.655Z" style="fill:rgb(228,245,253);fill-rule:nonzero;"/></g><g transform="matrix(0.944444,0,0,0.944444,407.606,362.434)"><path d="M0,-3.879L-2.061,-10.432L-4.122,-3.879L-10.99,-3.944L-5.395,0.041L-7.58,6.553L-2.061,2.464L3.458,6.553L1.274,0.041L6.869,-3.944L0,-3.879Z" style="fill:rgb(239,63,91);fill-rule:nonzero;"/></g><g transform="matrix(0.944444,0,0,0.944444,432.325,362.434)"><path d="M0,-3.879L-2.061,-10.432L-4.122,-3.879L-10.99,-3.944L-5.395,0.041L-7.58,6.553L-2.061,2.464L3.458,6.553L1.274,0.041L6.869,-3.944L0,-3.879Z" style="fill:rgb(239,63,91);fill-rule:nonzero;"/></g><g transform="matrix(0.944444,0,0,0.944444,291.938,333.315)"><path d="M0,-24.897L0,-0.566C0,0.985 0.189,2.095 0.567,2.766C0.945,3.437 1.569,3.772 2.439,3.772C3.951,3.772 4.707,2.307 4.707,-0.622L4.707,-24.982C4.707,-27.439 3.97,-28.669 2.495,-28.669C0.832,-28.669 0,-27.412 0,-24.897" style="fill:rgb(32,51,101);fill-rule:nonzero;"/></g><g transform="matrix(0.944444,0,0,0.944444,347.352,315.452)"><path d="M0,-9.245L-2.325,-9.245L-2.325,0L0.085,0C1.465,0 2.155,-1.504 2.155,-4.509C2.155,-6.456 2.003,-7.732 1.702,-8.337C1.398,-8.942 0.832,-9.245 0,-9.245" style="fill:rgb(32,51,101);fill-rule:nonzero;"/></g><g transform="matrix(-0.929604,-0.166768,-0.166768,0.929604,420.836,283.029)"><path d="M-0.482,-5.411C0.583,-5.22 1.108,-4.146 1.076,-2.295C1.029,-0.585 0.505,0.22 -0.482,0.043C-1.547,-0.148 -2.077,-1.202 -2.043,-3.053C-1.993,-4.783 -1.43,-5.581 -0.482,-5.411" style="fill:rgb(32,51,101);fill-rule:nonzero;"/></g><g transform="matrix(0.944444,0,0,0.944444,432.975,336.798)"><path d="M0,-32.356L-1.106,-32.356L-1.106,0L0.624,0C2.457,0 3.375,-0.888 3.375,-2.666L3.375,-28.415C3.375,-30.079 3.152,-31.151 2.708,-31.634C2.264,-32.115 1.361,-32.356 0,-32.356" style="fill:rgb(32,51,101);fill-rule:nonzero;"/></g><g transform="matrix(0.944444,0,0,0.944444,23.2233,93.6527)"><path d="M590.815,201.818L444.755,201.818L444.755,198.465L590.815,198.465L590.815,201.818ZM590.192,257.759L590.192,266.267L569.944,266.267L569.944,216.357L579.926,216.357L579.926,257.759L590.192,257.759ZM554.432,213.55L544.28,213.55L544.28,205.099L554.432,205.099L554.432,213.55ZM558.005,205.099L568.157,205.099L568.157,213.55L558.005,213.55L558.005,205.099ZM566.002,216.357L566.002,225.998L556.19,225.998L556.19,235.725L565.605,235.725L565.605,245.112L556.19,245.112L556.19,256.541L566.655,256.541L566.655,266.267L546.038,266.267L546.038,216.357L566.002,216.357ZM517.397,252.655L517.397,228.948C517.397,224.676 518.441,221.433 520.53,219.221C522.619,217.009 525.677,215.903 529.704,215.903C533.731,215.903 536.789,217.009 538.878,219.221C540.966,221.433 542.011,224.676 542.011,228.948L542.011,252.655C542.011,257.211 540.957,260.695 538.85,263.105C536.741,265.516 533.693,266.721 529.704,266.721C525.715,266.721 522.667,265.516 520.558,263.105C518.45,260.695 517.397,257.211 517.397,252.655M488.869,266.267L488.869,216.357L499.135,216.357L503.728,240.263L503.728,216.357L513.371,216.357L513.371,266.267L503.615,266.267L498.624,241.311L498.624,266.267L488.869,266.267ZM590.815,285.371L451.462,285.371L451.462,282.018L590.815,282.018L590.815,285.371ZM470.918,235.725L470.918,245.112L461.504,245.112L461.504,256.541L471.968,256.541L471.968,266.267L451.351,266.267L451.351,216.357L471.315,216.357L471.315,225.998L461.504,225.998L461.504,235.725L470.918,235.725ZM559.825,307.936L436.764,409.468C431.868,413.539 425.204,415.752 418.027,415.752C410.854,415.752 404.19,413.539 399.274,409.468L276.213,307.936C273.885,306.033 271.652,303.262 269.682,300.088L566.328,300.088C564.386,303.262 562.13,306.033 559.825,307.936M245.219,282.017L384.576,282.017L384.576,285.37L245.219,285.37L245.219,282.017ZM261.041,225.871C260.663,225.352 260.077,225.092 259.283,225.092C258.356,225.092 257.733,225.427 257.411,226.098C257.09,226.769 256.929,227.663 256.929,228.778L256.929,253.761C256.929,255.141 257.132,256.114 257.539,256.682C257.945,257.249 258.527,257.532 259.283,257.532C260.134,257.532 260.733,257.184 261.084,256.483C261.433,255.784 261.609,254.877 261.609,253.761L261.609,244.772L271.647,244.772L271.647,254.215C271.647,258.6 270.541,261.782 268.329,263.757C266.117,265.732 263.026,266.721 259.056,266.721C255.445,266.721 252.538,265.597 250.336,263.345C248.134,261.097 247.032,257.948 247.032,253.903L247.032,230.877C247.032,226.037 247.991,222.331 249.911,219.76C251.829,217.189 254.953,215.903 259.283,215.903C261.646,215.903 263.75,216.339 265.593,217.207C267.436,218.077 268.887,219.378 269.945,221.107C271.004,222.837 271.533,225.015 271.533,227.643L271.533,236.265L261.609,236.265L261.609,228.891C261.609,227.398 261.419,226.391 261.041,225.871M299.182,228.948L299.182,252.655C299.182,257.211 298.128,260.695 296.021,263.105C293.912,265.516 290.864,266.721 286.875,266.721C282.886,266.721 279.837,265.516 277.729,263.105C275.621,260.695 274.568,257.211 274.568,252.655L274.568,228.948C274.568,224.676 275.612,221.433 277.701,219.221C279.79,217.009 282.848,215.903 286.875,215.903C290.902,215.903 293.96,217.009 296.049,219.221C298.137,221.433 299.182,224.676 299.182,228.948M312.454,254.909C312.549,255.676 312.767,256.303 313.107,256.795C313.447,257.287 313.995,257.532 314.751,257.532C315.527,257.532 316.084,257.292 316.425,256.809C316.765,256.328 316.978,255.698 317.063,254.923C317.148,254.149 317.19,253.345 317.19,252.513L317.19,216.357L326.889,216.357L326.889,252.911C326.889,257.447 325.906,260.884 323.94,263.219C321.973,265.554 318.911,266.721 314.751,266.721C310.592,266.721 307.53,265.554 305.564,263.219C303.597,260.884 302.614,257.447 302.614,252.911L302.614,216.357L312.313,216.357L312.313,252.513C312.313,253.345 312.36,254.143 312.454,254.909M353.474,242.574C354.107,243.812 354.424,245.415 354.424,247.38L354.424,266.267L344.584,266.267L344.584,246.728C344.584,245.273 344.286,244.37 343.69,244.02C343.095,243.671 342.135,243.496 340.812,243.496L340.812,266.267L330.717,266.267L330.717,216.357L346.03,216.357C348.582,216.357 350.511,216.939 351.816,218.101C353.119,219.263 353.994,220.89 354.439,222.979C354.883,225.067 355.105,227.521 355.105,230.338C355.105,233.06 354.759,235.233 354.07,236.86C353.379,238.486 352.08,239.61 350.17,240.234C351.739,240.556 352.841,241.336 353.474,242.574M367.766,256.555C368.116,257.207 368.725,257.532 369.595,257.532C370.503,257.532 371.131,257.267 371.481,256.739C371.831,256.21 372.006,255.341 372.006,254.13C372.006,252.599 371.854,251.318 371.552,250.288C371.249,249.257 370.725,248.274 369.978,247.337C369.231,246.402 368.196,245.31 366.873,244.062L362.392,239.809C359.047,236.652 357.373,233.041 357.373,228.976C357.373,224.723 358.361,221.48 360.337,219.25C362.312,217.018 365.172,215.903 368.915,215.903C373.489,215.903 376.737,217.123 378.655,219.562C380.574,222.001 381.534,225.705 381.534,230.677L371.382,230.677L371.382,227.247C371.382,226.566 371.188,226.037 370.801,225.658C370.413,225.28 369.888,225.092 369.227,225.092C368.433,225.092 367.851,225.314 367.482,225.757C367.114,226.202 366.929,226.775 366.929,227.474C366.929,228.173 367.118,228.929 367.497,229.742C367.875,230.555 368.622,231.491 369.737,232.549L375.494,238.079C376.647,239.176 377.706,240.333 378.67,241.553C379.634,242.772 380.409,244.19 380.995,245.806C381.581,247.423 381.874,249.394 381.874,251.72C381.874,256.408 381.01,260.081 379.279,262.736C377.55,265.393 374.539,266.721 370.248,266.721C365.691,266.721 362.407,265.586 360.393,263.318C358.38,261.05 357.373,257.438 357.373,252.484L357.373,247.607L367.242,247.607L367.242,253.846C367.242,254.999 367.416,255.903 367.766,256.555M245.219,198.464L391.279,198.464L391.279,201.817L245.219,201.817L245.219,198.464ZM413.112,191.776C412.247,191.776 411.559,191.246 411.716,190.145C411.873,189.2 412.601,188.827 413.348,188.827C414.233,188.827 414.921,189.359 414.764,190.439C414.606,191.403 413.879,191.776 413.112,191.776M412.601,202.687L409.966,202.687L411.461,193.251L414.095,193.251L412.601,202.687ZM405.156,216.357L405.156,225.998L395.344,225.998L395.344,235.725L404.759,235.725L404.759,245.112L395.344,245.112L395.344,256.541L405.808,256.541L405.808,266.267L385.192,266.267L385.192,216.357L405.156,216.357ZM398.287,192.288C398.699,189.712 400.941,188.67 403.319,188.67C404.656,188.67 405.856,188.984 406.956,189.633L406.543,192.248C405.521,191.599 404.42,191.246 403.28,191.246C402.1,191.246 401.216,191.659 401.078,192.542C400.744,194.843 407.074,194.43 406.307,199.246C405.895,201.901 403.752,202.943 401.137,202.943C399.545,202.943 398.287,202.668 397.107,202.019L397.539,199.306C398.581,199.955 399.781,200.308 401.058,200.308C402.258,200.308 403.319,199.856 403.457,198.932C403.85,196.533 397.579,196.946 398.287,192.288M410.451,291.145L404.932,287.056L399.414,291.145L401.598,284.633L396.003,280.648L402.872,280.713L404.932,274.16L406.993,280.713L413.862,280.648L408.267,284.633L410.451,291.145ZM436.116,192.995C437.709,192.995 438.908,194.213 438.574,196.239L437.552,202.687L434.917,202.687L435.9,196.553C436.038,195.708 435.605,195.434 435.035,195.434C434.327,195.434 433.718,196.023 433.403,196.514L432.421,202.687L429.786,202.687L431.28,193.251L433.659,193.251L433.521,194.057C434.19,193.427 435.016,192.995 436.116,192.995M421.311,202.943C418.657,202.943 417.202,201.056 417.733,197.811C418.205,194.785 419.975,192.995 422.59,192.995C425.125,192.995 426.679,194.882 426.168,198.127C425.676,201.153 424.103,202.943 421.311,202.943M436.095,266.267L422.71,266.267L422.71,216.357L436.435,216.357C440.027,216.357 442.731,217.355 444.546,219.349C446.361,221.343 447.268,224.26 447.268,228.097L447.268,251.464C447.268,256.19 446.441,259.839 444.787,262.41C443.132,264.981 440.235,266.267 436.095,266.267M436.624,291.145L431.106,287.056L425.587,291.145L427.771,284.633L422.176,280.648L429.045,280.713L431.106,274.16L433.167,280.713L440.035,280.648L434.44,284.633L436.624,291.145ZM599.839,183.104L583.007,183.104L583.007,170.433L582.986,170.314L580.249,154.383L579.23,152.717L573.329,143.064C573.329,143.064 573.967,141.064 566.349,139.659C558.731,138.255 556.178,132.765 556.178,132.765L552.731,132.084L550.56,129.488L550.262,127.275L550.305,126.377L550.347,125.487L549.459,125.365L549.113,125.317L548.432,125.487L546.858,126.083L545.411,125.998L543.751,125.913L543.453,125.445L542.134,125.7L542.219,125.147L541.836,123.402L540.644,121.955L540.005,121.572L538.601,119.444L538.175,117.997L538.134,116.363L538.09,114.677L538.048,111.869L531.026,111.869L530.941,115.188L530.26,114.252L529.877,114.89L529.238,113.954L527.706,114.167L527.11,113.316L526.514,112.762L525.621,112.464L524.259,111.869L522.599,111.06L521.109,110.379L521.109,101.186L519.833,100.165L519.833,96.164L518.986,96.143L518.13,96.122L514.697,93.668L514.769,92.347L511.657,90.087L509.939,91.301L506.31,92.166L505.769,92.214L505.408,92.118L505.24,92.022L505.24,91.746L504.267,91.782L504.255,91.998L501.827,91.986L501.767,89.21L502.212,89.066L498.066,85.786L494.125,89.499L494.545,89.703L494.51,103.25L494.383,103.442L494.425,104.974L494.127,105.506L493.787,105.421L493.34,105.591L488.552,106.144L483.36,109.315L483.594,109.613L483.551,113.72L481.913,113.741L481.913,114.656L481.615,114.571L480.977,114.55L480.892,113.656L478.955,113.72L479.019,113.401L478.155,113.404L478.147,113.107L477.217,113.115L477.217,112.787L476.44,112.803L476.432,112.442L475.543,112.466L475.527,112.114L474.237,112.178L474.221,112.506L474.005,112.466L474.045,112.17L472.707,112.394L472.645,112.997L472.645,114.421L472.657,114.908L472.573,115.358L472.609,116.169L469.736,117.481L469.704,117.305L468.698,117.8L468.698,118.04L468.172,118.247L467.9,118.646L468.06,118.901L468.459,119.061L468.539,125.652L467.996,126.594L467.007,126.019L465.347,127.264L463.879,126.945L463.4,127.2L463.432,126.466L463.113,126.115L462.474,126.115L461.836,127.073C461.836,127.073 461.357,127.551 460.814,127.679C460.272,127.807 459.602,129.02 459.602,129.02L458.772,128.86L458.229,128.126L456.697,128.541L456.282,130.009L455.548,130.392L455.165,130.073L454.048,130.584L453.186,130.903L452.835,130.201L451.717,129.435L450.888,130.743L450.026,130.903C450.026,130.903 449.802,129.913 448.717,130.456C447.632,130.999 448.334,130.233 447.632,130.999L446.93,131.765L445.461,132.627L444.217,133.233L444.248,132.563C444.248,132.563 442.269,131.094 441.727,130.456L441.312,130.424L441.264,130.759L440.099,131.685L440.083,128.828L439.159,126.922L439.078,126.754L438.906,127.123L438.12,128.812L438.12,132.515L437.897,134.861C437.897,134.861 435.934,135.052 435.04,134.909C434.146,134.765 432.327,135.659 432.327,135.659C432.327,135.659 430.779,136.329 430.667,136.792C430.555,137.255 430.332,137.941 429.246,137.909C428.161,137.877 426.725,138.532 426.725,138.532L425.751,138.021L424.591,133.694L424.097,131.85L423.863,131.254L423.811,131.421L423.693,131.807L422.416,137.148L419.288,135.765L417.628,135.531L416.819,135.723L416.138,135.404L416.202,135.084L415.628,134.914L415.649,133.403L413.947,133.531L413.874,133.848L413.449,133.864L413.465,134.184L412.696,134.208L412.712,134.697L411.206,134.793L411.246,134.433L410.285,134.473L410.253,134.849L409.54,134.841L409.508,135.354L408.683,135.362L408.683,135.722L407.946,135.763L407.994,136.235L407.217,136.227L407.233,136.7L406.408,136.732L406.408,137.309L406.127,137.509L406.32,137.733L404.661,137.685C404.661,137.685 404.589,137.313 403.748,137.205C402.907,137.096 402.162,136.82 401.982,137C401.801,137.18 401.369,137.193 401.116,136.868C400.864,136.544 399.915,136.664 399.987,136.291C400.059,135.919 399.963,136.267 400.684,135.666C401.405,135.066 402.727,134.2 400.588,133.275C398.449,132.35 397.704,132.794 397.379,133.287C397.055,133.78 396.142,133.095 395.709,132.71C395.276,132.326 393.87,132.146 393.786,131.881C393.702,131.617 391.96,128.348 391.767,128.324C391.575,128.3 389.677,126.366 389.568,125.825C389.46,125.284 387.369,123.325 387.369,123.325C387.369,123.325 385.831,120.417 385.447,119.684C385.062,118.951 383.945,116.812 383.392,116.728C382.839,116.644 383.116,116.067 383.116,116.067C383.116,116.067 383.128,115.635 382.286,115.695C381.445,115.755 380.196,114.806 378.898,114.962C377.6,115.118 376.843,115.154 376.819,114.673C376.795,114.193 375.942,112.27 375.942,112.27C375.942,112.27 370.726,108.713 370.054,108.641C369.381,108.569 368.287,107.884 368.287,107.884C368.287,107.884 365.872,106.61 365.728,106.634C365.583,106.658 364.298,104.748 364.298,104.748C364.298,104.748 361.546,103.065 360.368,102.465C359.191,101.864 358.482,99.857 358.482,99.857C358.482,99.857 356.907,98.824 355.754,98.391C354.6,97.958 354.444,97.718 354.444,97.718L354.384,95.098L354.444,94.978L354.449,93.982L354.48,87.684L353.1,87.709L352.437,87.72L352.461,90.941L351.908,91.085L351.872,90.46L350.707,90.46L350.707,91.109L349.818,91.085L349.818,90.508L348.7,90.532L348.76,91.133L347.114,91.145L347.102,87.588L345.84,87.432L345.852,87.804L345.636,87.792C345.636,87.792 345.684,87.336 345.648,87.336C345.612,87.336 344.626,87.348 344.626,87.348L344.638,88.081L344.194,88.093L344.194,88.658L343.749,88.658L343.761,89.222L343.257,89.21L343.245,89.847L342.307,89.751L342.307,90.352L342.151,90.34L342.163,89.667L341.058,89.511L341.07,90.172L340.757,90.196L340.793,89.439L340.108,89.427L340.108,84.283L338.75,83.914L338.21,83.767L337.152,83.755L337.176,84.32L336.852,84.308L336.924,85.341L335.962,85.329L335.986,84.38L334.665,84.38L334.725,85.389L334.052,86.194L333.463,86.29L333.523,85.461L332.922,85.497L332.982,85.041L332.321,85.053L332.345,84.344L331.396,84.404L331.408,84.992L330.831,85.029L330.819,85.593L330.291,85.545L330.146,85.99L329.714,85.918L329.702,86.146L329.005,86.014L329.017,86.771L328.536,86.711L328.56,86.038L328.056,85.882L328.031,86.507L327.827,86.507L327.851,85.774L327.299,85.761L327.287,86.362L327.07,86.362L327.07,85.569L326.061,85.581L326.097,86.266L325.256,86.242L325.196,85.485L324.354,85.497L324.439,86.218L323.609,86.242L323.621,85.413L322.72,85.449L322.78,86.218L322.011,86.218L322.035,85.329L321.134,85.341L321.182,86.134L320.401,86.146L320.425,85.281L319.548,85.341L319.548,87.961L319.38,88.261L319.187,88.477L318.454,88.513L318.478,87.864L317.433,87.888L317.433,92.034L317.06,92.058L316.772,91.794L316.484,91.758L316.279,92.058L316.135,92.347L316.123,92.503C316.123,92.503 315.606,92.359 315.582,92.419C315.558,92.479 315.09,92.467 314.945,92.719C314.801,92.972 314.176,92.911 314.2,93.128C314.224,93.344 314.224,93.596 314.224,93.596L314.092,94.233L314.044,94.45L314.274,98.665L312.838,99.622L311.593,99.846L310.252,99.622L309.646,100.771L307.954,100.708L306.773,100.867C306.773,100.867 306.326,102.527 306.518,102.687C306.709,102.846 306.294,103.644 306.486,103.612C306.677,103.58 305.688,104.059 305.432,104.123C305.177,104.187 304.89,104.123 304.922,104.666C304.954,105.208 304.666,105.464 304.379,105.719C304.092,105.974 303.741,106.07 303.39,106.613C303.039,107.155 302.847,108.783 302.847,108.783C302.847,108.783 303.294,109.134 302.656,109.9C302.017,110.666 302.145,110.219 301.953,110.826C301.762,111.432 301.826,111.879 301.953,112.198C302.081,112.518 302.528,113.188 302.145,113.539C301.762,113.89 303.134,112.773 301.538,114.241C299.942,115.709 298.57,116.029 298.474,116.667C298.378,117.305 298.251,116.859 297.517,117.72C296.782,118.582 294.612,119.252 294.963,120.37C295.314,121.487 294.931,121.551 293.878,122.221C292.824,122.891 292.537,119.795 291.516,122.444C290.494,125.094 290.877,124.902 290.239,125.668C289.601,126.434 288.579,126.051 288.196,126.562C287.813,127.073 286.281,128.094 286.281,128.094C286.281,128.094 285.323,128.956 285.77,129.594C286.217,130.233 284.174,129.658 283.759,129.913C283.344,130.169 282.515,131.573 282.515,131.573C282.515,131.573 282.866,131.829 282.674,132.148C282.483,132.467 281.174,132.658 281.174,132.658C281.174,132.658 280.695,133.648 280.504,134.127C280.312,134.606 280.536,133.393 279.77,134.286C279.004,135.18 279.195,135.308 278.94,135.787C278.684,136.265 278.908,135.563 278.046,136.201C277.184,136.84 277.088,136.297 277.088,136.297C277.088,136.297 276.737,137.542 276.705,137.829C276.673,138.117 275.812,136.999 275.844,138.117C275.875,139.234 275.939,138.436 275.492,138.883C275.046,139.33 274.407,139.745 274.471,140.67C274.535,141.596 273.673,140.957 273.928,141.724C274.184,142.49 274.279,142.426 274.248,142.777C274.216,143.128 273.13,142.649 273.226,143.511C273.322,144.373 273.865,144.469 273.769,145.267C273.673,146.065 273.29,146.831 273.194,147.086C273.098,147.341 272.652,147.788 272.077,147.277C271.502,146.767 271.566,146.256 271.088,146.958C270.609,147.66 269.619,148.267 269.619,148.267C269.619,148.267 269.843,148.395 268.789,147.948C267.736,147.501 267.066,148.554 267.066,148.554C267.066,148.554 266.3,148.969 266.012,148.841C265.725,148.714 264.863,148.905 265.183,148.299C265.502,147.692 265.278,147.054 265.278,147.054C265.278,147.054 264.129,145.745 263.746,146.256C263.363,146.767 262.086,147.533 262.086,147.533L261.831,147.565L261.161,147.086C261.161,147.086 260.012,149.161 260.171,149.639C260.331,150.118 259.533,152.512 259.597,152.608C259.661,152.704 258.671,154.619 258.671,154.619C258.671,154.619 258.831,155.353 258.32,155.8C257.809,156.247 257.362,157.013 257.362,157.013L253.129,165.799L253.043,175.464L253.043,183.104L236.195,183.104C230.023,183.104 225.014,188.113 225.014,194.281L225.014,288.912C225.014,295.104 230.023,300.088 236.195,300.088L256.97,300.088C260.084,306.656 264.363,312.657 269.092,316.561L392.161,418.101C406.444,429.888 429.603,429.888 443.886,418.101L566.95,316.561C571.68,312.657 575.958,306.656 579.076,300.088L599.839,300.088C606.012,300.088 611.02,295.104 611.02,288.912L611.02,194.281C611.02,188.113 606.012,183.104 599.839,183.104" style="fill:rgb(32,51,101);fill-rule:nonzero;"/></g><g transform="matrix(0.944444,0,0,0.944444,523.58,306.239)"><path d="M0,32.441C1.512,32.441 2.268,30.976 2.268,28.046L2.268,3.686C2.268,1.229 1.531,0 0.056,0C-1.607,0 -2.439,1.257 -2.439,3.772L-2.439,28.103C-2.439,29.653 -2.25,30.764 -1.872,31.434C-1.494,32.106 -0.87,32.441 0,32.441" style="fill:rgb(32,51,101);fill-rule:nonzero;"/></g><g transform="matrix(0.944444,0,0,0.944444,366.819,412.847)"><path d="M0,-7.341L1.106,-7.341C2.542,-7.341 3.448,-6.477 3.448,-3.672C3.448,-0.864 2.542,-0 1.106,-0L0,-0L0,-7.341ZM7.715,-3.672C7.715,-7.981 5.968,-11.407 1.106,-11.407L-4.266,-11.407L-4.266,4.066L1.106,4.066C5.968,4.066 7.715,0.64 7.715,-3.672" style="fill:rgb(32,51,101);fill-rule:nonzero;"/></g><g transform="matrix(0.944444,0,0,0.944444,384.478,405.707)"><path d="M0,7.778L-5.261,7.778L-5.261,5.702L-0.618,5.702L-0.618,2.008L-5.261,2.008L-5.261,-0.046L-0.132,-0.046L-0.132,-3.847L-9.526,-3.847L-9.526,11.625L0,11.625L0,7.778Z" style="fill:rgb(32,51,101);fill-rule:nonzero;"/></g><g transform="matrix(0.944444,0,0,0.944444,390.009,413.033)"><path d="M0,-7.735L1.326,-7.735C2.299,-7.735 2.874,-7.138 2.874,-6.145C2.874,-5.173 2.299,-4.576 1.326,-4.576L0,-4.576L0,-7.735ZM0,-0.686L1.768,-0.686C4.73,-0.686 7.14,-2.365 7.14,-6.145C7.14,-9.925 4.73,-11.604 1.768,-11.604L-4.267,-11.604L-4.267,3.869L0,3.869L0,-0.686Z" style="fill:rgb(32,51,101);fill-rule:nonzero;"/></g><g transform="matrix(0.944444,0,0,0.944444,403.47,402.073)"><path d="M0,15.805C3.714,15.805 5.946,14.08 5.946,10.478L5.946,0L1.681,0L1.681,10.1C1.681,11.229 1.105,11.736 0,11.736C-1.083,11.736 -1.658,11.229 -1.658,10.1L-1.658,0L-5.923,0L-5.923,10.478C-5.923,14.08 -3.691,15.805 0,15.805" style="fill:rgb(32,51,101);fill-rule:nonzero;"/></g><g transform="matrix(-0.944444,0,0,0.944444,802.44,240)"><rect x="410.393" y="171.607" width="4.267" height="15.473" style="fill:rgb(32,51,101);"/></g><g transform="matrix(0.944444,0,0,0.944444,422.402,406.456)"><path d="M0,6.191C0,6.809 -0.618,7.095 -1.724,7.095C-3.183,7.095 -4.951,6.545 -6.123,5.813L-6.123,10.168C-4.532,10.875 -3.049,11.164 -1.259,11.164C1.636,11.164 4.466,9.86 4.466,6.277C4.466,0.886 -2.188,1.569 -2.188,-0.154C-2.188,-0.707 -1.702,-0.993 -0.663,-0.993C0.796,-0.993 2.167,-0.442 3.471,0.332L3.471,-3.844C2.122,-4.552 0.884,-4.973 -0.972,-4.973C-4.044,-4.973 -6.565,-3.515 -6.565,-0.064C-6.565,5.262 0,4.487 0,6.191" style="fill:rgb(32,51,101);fill-rule:nonzero;"/></g><g transform="matrix(0.944444,0,0,0.944444,438.807,406.329)"><path d="M0,6.901L-2.056,6.901L-2.056,-4.066L-5.393,-4.066L-8.599,-2.673L-8.599,1.682L-6.322,0.71L-6.322,6.901L-8.599,6.901L-8.599,10.967L0,10.967L0,6.901Z" style="fill:rgb(32,51,101);fill-rule:nonzero;"/></g><g transform="matrix(0.944444,0,0,0.944444,444.442,413.244)"><path d="M0,-7.74C0.884,-7.74 1.371,-7.165 1.525,-5.461C1.061,-5.175 0.553,-5.021 0.023,-5.021C-0.751,-5.021 -1.193,-5.44 -1.193,-6.39C-1.193,-7.119 -0.795,-7.74 0,-7.74M-0.95,-1.66C-0.088,-1.66 0.664,-1.814 1.282,-2.124C0.863,-0.667 -0.109,-0.091 -1.635,-0.091C-2.431,-0.091 -3.315,-0.267 -4.2,-0.642L-4.2,3.224C-2.873,3.845 -2.165,3.977 -0.751,3.977C2.653,3.977 5.946,1.677 5.946,-4.246C5.946,-8.491 4.178,-11.717 -0.177,-11.717C-2.939,-11.717 -5.261,-9.905 -5.261,-6.458C-5.261,-3.207 -3.337,-1.617 -0.95,-1.66" style="fill:rgb(32,51,101);fill-rule:nonzero;"/></g><g transform="matrix(0.944444,0,0,0.944444,456.716,408.504)"><path d="M0,2.298C0.795,2.298 1.215,2.719 1.215,3.67C1.215,4.398 0.84,5.017 0.045,5.017C-0.84,5.017 -1.349,4.442 -1.481,2.741C-1.017,2.452 -0.509,2.298 0,2.298M0.221,8.996C2.983,8.996 5.305,7.182 5.305,3.734C5.305,0.486 3.36,-1.106 0.995,-1.061C0.132,-1.061 -0.62,-0.907 -1.261,-0.599C-0.818,-2.057 0.154,-2.632 1.702,-2.632C2.52,-2.632 3.381,-2.454 4.266,-2.078L4.266,-5.947C2.94,-6.565 2.233,-6.698 0.818,-6.698C-2.608,-6.698 -5.902,-4.4 -5.902,1.523C-5.902,5.767 -4.156,8.996 0.221,8.996" style="fill:rgb(32,51,101);fill-rule:nonzero;"/></g><g transform="matrix(0.944444,0,0,0.944444,467.379,408.316)"><path d="M0,2.697C1.106,3.205 2.034,3.626 2.034,4.355C2.034,5.016 1.57,5.416 0.664,5.416C-0.198,5.416 -0.684,4.884 -0.684,4.198C-0.684,3.691 -0.441,3.183 0,2.697M0.664,-2.719C1.504,-2.719 1.902,-2.233 1.902,-1.615C1.902,-1.15 1.702,-0.686 1.372,-0.265C0.332,-0.664 -0.529,-1.061 -0.529,-1.814C-0.529,-2.344 -0.109,-2.719 0.664,-2.719M-5.061,4.708C-5.061,6.963 -3.359,9.196 0.664,9.196C4.731,9.196 6.389,6.963 6.389,4.708C6.389,2.851 5.505,1.747 4.378,1.015C5.262,0.154 5.946,-0.818 5.946,-2.233C5.946,-4.466 4.244,-6.499 0.664,-6.499C-2.939,-6.499 -4.598,-4.444 -4.598,-2.254C-4.598,-0.775 -3.978,0.221 -3.094,0.972C-4.133,1.768 -5.061,3.094 -5.061,4.708" style="fill:rgb(32,51,101);fill-rule:nonzero;"/></g></g></svg>